{"glyphs":{"0":{"ha":983,"x_min":63,"x_max":922,"o":"m 493 1046 q 714 979 617 1046 q 867 792 811 913 q 922 513 922 671 q 867 235 922 354 q 715 52 813 117 q 493 -12 618 -12 q 270 52 368 -12 q 117 235 172 117 q 63 511 63 354 q 118 791 63 669 q 272 979 174 913 q 493 1046 369 1046 m 493 160 q 631 242 586 160 q 675 511 675 324 q 630 790 675 703 q 492 876 585 876 q 354 789 400 876 q 308 511 308 701 q 354 242 308 325 q 493 160 400 160 z "},"1":{"ha":707,"x_min":56,"x_max":660,"o":"m 635 179 q 660 158 660 179 l 660 24 q 653 7 660 14 q 632 0 646 0 l 83 0 q 57 24 57 0 l 57 158 q 81 179 57 179 l 225 179 q 240 189 240 179 l 240 772 q 236 787 240 783 q 221 788 232 790 l 86 747 l 76 746 q 56 774 56 746 l 56 865 q 60 885 56 879 q 76 899 64 892 l 308 1014 q 340 1027 328 1024 q 367 1031 351 1031 l 463 1031 q 478 1024 472 1031 q 483 1006 483 1017 l 483 193 q 496 179 483 179 l 635 179 z "},"2":{"ha":894,"x_min":51,"x_max":835,"o":"m 374 446 q 510 572 465 525 q 572 655 554 619 q 589 732 589 690 q 545 831 589 794 q 435 868 501 868 q 327 834 376 868 q 232 722 278 800 q 214 711 228 711 q 194 717 204 711 l 71 781 q 54 806 54 792 q 61 826 54 815 q 449 1044 199 1044 q 645 1007 560 1044 q 778 899 731 969 q 825 732 825 828 q 780 576 825 647 q 625 418 735 506 l 368 217 q 360 207 360 211 q 376 200 360 200 l 808 200 q 835 178 835 200 l 835 25 q 807 0 835 0 l 83 0 q 58 6 65 0 q 51 29 51 13 l 51 136 q 63 163 51 149 q 115 213 74 178 l 374 446 z "},"3":{"ha":926,"x_min":42,"x_max":871,"o":"m 90 869 q 85 883 85 875 q 90 900 85 890 q 243 1006 146 967 q 450 1044 340 1044 q 658 1010 569 1044 q 792 915 746 976 q 839 775 839 854 q 796 647 839 706 q 675 564 753 588 q 658 550 658 558 q 674 539 658 543 q 817 446 763 510 q 871 299 871 382 q 760 67 871 147 q 433 -14 650 -14 q 210 33 314 -14 q 49 158 107 79 q 42 176 42 168 q 57 199 42 188 l 165 275 q 183 283 178 283 q 196 276 192 283 q 316 183 261 210 q 447 157 371 157 q 583 194 533 157 q 632 293 632 232 q 577 401 632 361 q 439 443 522 442 l 319 446 q 296 465 296 446 l 296 596 q 319 615 296 611 l 415 619 q 549 660 497 621 q 601 760 601 700 q 558 844 601 810 q 447 878 514 878 q 331 853 383 878 q 222 775 278 829 q 207 765 213 765 q 192 775 204 765 l 90 869 z "},"4":{"ha":957,"x_min":49,"x_max":911,"o":"m 504 1004 q 528 1026 518 1021 q 561 1031 539 1031 l 735 1031 q 757 1006 757 1031 l 757 424 q 761 413 757 417 q 771 408 765 408 l 885 408 q 911 388 911 408 l 911 268 q 883 243 911 243 l 772 243 q 757 226 757 243 l 757 32 q 749 8 757 15 q 721 0 740 0 l 540 0 q 511 28 511 0 l 511 231 q 494 243 511 243 l 78 243 q 49 268 49 243 l 49 383 q 56 410 49 396 q 85 451 64 424 l 504 1004 m 500 408 q 509 411 506 408 q 513 418 513 414 l 513 764 q 508 783 513 783 q 493 769 503 783 l 244 426 q 239 415 239 418 q 254 408 239 408 l 500 408 z "},"5":{"ha":939,"x_min":47,"x_max":885,"o":"m 781 1031 q 808 1025 803 1031 q 813 999 814 1019 l 806 861 q 798 842 804 847 q 775 836 792 836 l 338 836 q 313 815 314 836 l 296 639 l 296 636 q 302 622 296 626 q 317 621 308 618 q 423 654 383 644 q 515 664 463 664 q 704 626 621 664 q 836 515 788 589 q 885 336 885 440 q 832 149 885 228 q 685 28 779 69 q 465 -14 590 -14 q 225 31 333 -14 q 58 153 117 76 q 47 178 47 167 q 61 200 47 192 l 175 281 q 190 286 182 286 q 211 275 203 286 q 317 185 269 214 q 439 157 365 157 q 591 205 536 157 q 646 329 646 253 q 595 447 646 403 q 458 492 544 492 q 376 478 414 492 q 281 438 338 465 q 263 432 269 432 q 244 439 257 432 l 118 508 q 103 532 103 517 q 104 553 103 544 l 143 997 q 154 1024 144 1017 q 193 1031 164 1031 l 781 1031 z "},"6":{"ha":951,"x_min":63,"x_max":900,"o":"m 517 1043 q 672 1014 601 1043 q 786 941 742 985 q 846 854 831 897 q 847 843 847 850 q 833 824 847 829 l 682 775 q 675 774 679 774 q 656 790 663 774 q 595 853 625 832 q 517 874 565 874 q 359 800 415 874 q 303 607 303 726 q 305 581 303 588 q 315 574 307 574 q 333 579 317 574 q 440 618 396 606 q 543 631 483 631 q 730 592 649 631 q 856 483 811 553 q 900 325 900 414 q 847 151 900 228 q 701 31 793 74 q 497 -12 610 -12 q 266 49 364 -12 q 115 225 168 111 q 63 493 63 339 q 119 787 63 663 q 278 977 175 911 q 517 1043 381 1043 m 493 471 q 402 457 451 471 q 325 424 353 443 q 309 406 313 415 q 306 376 306 397 q 356 215 306 282 q 490 147 406 147 q 611 196 563 147 q 660 317 660 244 q 613 428 660 386 q 493 471 565 471 z "},"7":{"ha":860,"x_min":43,"x_max":815,"o":"m 775 1031 q 805 1022 794 1031 q 814 1000 815 1013 l 810 925 q 797 888 808 913 q 775 847 786 864 q 626 574 694 726 q 515 277 558 421 q 463 39 471 133 q 433 0 461 0 l 214 0 q 189 22 189 0 q 190 33 189 29 q 320 389 238 206 q 554 813 403 572 q 560 828 560 824 q 543 836 560 836 l 74 836 q 46 864 43 836 l 61 1011 q 94 1031 64 1031 l 775 1031 z "},"8":{"ha":949,"x_min":57,"x_max":894,"o":"m 468 1044 q 663 1007 576 1044 q 799 904 750 969 q 849 757 849 839 q 715 565 849 643 q 704 553 704 558 q 714 540 704 546 q 853 428 813 488 q 894 292 894 369 q 840 128 894 197 q 688 22 786 58 q 461 -14 590 -14 q 167 57 278 -14 q 57 254 57 128 q 93 379 57 325 q 217 482 129 433 q 224 487 218 483 q 231 494 231 490 q 219 507 231 500 q 120 601 156 550 q 85 728 85 651 q 132 887 85 814 q 266 1002 179 960 q 468 1044 353 1044 m 472 885 q 358 849 404 885 q 313 757 313 814 q 337 687 313 715 q 408 644 361 658 l 519 613 q 532 611 524 611 q 583 633 557 611 q 627 687 610 654 q 644 751 644 719 q 598 847 644 808 q 472 885 551 885 m 475 146 q 606 181 558 146 q 654 274 654 215 q 628 347 654 318 q 542 394 603 376 l 410 433 q 392 436 399 436 q 334 417 364 436 q 284 363 304 397 q 264 290 264 329 q 316 183 264 221 q 475 146 368 146 z "},"9":{"ha":950,"x_min":53,"x_max":888,"o":"m 436 -12 q 279 17 350 -12 q 163 90 208 46 q 103 176 118 133 q 101 189 101 181 q 114 207 101 201 l 265 256 q 272 257 268 257 q 287 250 282 257 q 293 242 292 243 q 353 178 321 200 q 436 157 385 157 q 591 231 536 157 q 646 424 646 304 q 644 450 646 443 q 633 457 642 457 q 615 451 632 457 q 511 413 554 425 q 408 400 468 400 q 222 439 303 400 q 97 547 142 478 q 53 706 53 617 q 106 880 53 803 q 251 1000 160 957 q 456 1043 343 1043 q 685 981 588 1043 q 835 806 783 919 q 888 538 888 692 q 831 244 888 368 q 673 53 775 119 q 436 -12 571 -12 m 457 560 q 549 574 500 560 q 625 610 597 589 q 641 627 638 618 q 644 657 644 636 q 595 817 644 750 q 461 883 546 883 q 342 835 390 883 q 293 715 293 788 q 340 602 293 644 q 457 560 386 560 z "},"\r":{"ha":293,"x_min":0,"x_max":0,"o":""}," ":{"ha":286,"x_min":0,"x_max":0,"o":""},"A":{"ha":1071,"x_min":46,"x_max":1026,"o":"m 67 0 q 46 24 46 0 q 49 40 46 35 l 394 1003 q 408 1024 400 1018 q 431 1031 415 1031 l 639 1031 q 665 1022 654 1031 q 681 1000 676 1014 l 1024 38 q 1026 25 1026 29 q 1022 7 1026 14 q 1007 0 1017 0 l 803 0 q 776 19 782 0 l 704 222 q 698 234 701 231 q 686 238 694 238 l 347 238 q 329 224 333 238 l 256 18 q 226 0 247 0 l 67 0 m 629 422 q 643 433 643 422 q 642 446 643 442 l 525 771 q 515 779 521 779 q 507 769 511 779 l 389 446 q 386 433 386 438 q 401 422 386 422 l 629 422 z "},"Á":{"ha":1071,"x_min":46,"x_max":1026,"o":"m 67 0 q 46 24 46 0 q 49 40 46 35 l 394 1003 q 408 1024 400 1018 q 431 1031 415 1031 l 639 1031 q 665 1022 654 1031 q 681 1000 676 1014 l 1024 38 q 1026 25 1026 29 q 1022 7 1026 14 q 1007 0 1017 0 l 803 0 q 776 19 782 0 l 704 222 q 698 234 701 231 q 686 238 694 238 l 347 238 q 329 224 333 238 l 256 18 q 226 0 247 0 l 67 0 m 629 422 q 643 433 643 422 q 642 446 643 442 l 525 771 q 515 779 521 779 q 507 769 511 779 l 389 446 q 386 433 386 438 q 401 422 386 422 l 629 422 m 726 1232 q 729 1218 729 1224 q 706 1194 729 1203 l 385 1108 q 372 1107 379 1107 q 360 1110 364 1107 q 351 1124 356 1114 l 335 1172 l 332 1183 q 343 1200 332 1196 l 671 1338 q 678 1339 674 1339 q 694 1325 690 1339 l 726 1232 z "},"Ă":{"ha":1071,"x_min":46,"x_max":1026,"o":"m 67 0 q 46 24 46 0 q 49 40 46 35 l 394 1003 q 408 1024 400 1018 q 431 1031 415 1031 l 639 1031 q 665 1022 654 1031 q 681 1000 676 1014 l 1024 38 q 1026 25 1026 29 q 1022 7 1026 14 q 1007 0 1017 0 l 803 0 q 776 19 782 0 l 704 222 q 698 234 701 231 q 686 238 694 238 l 347 238 q 329 224 333 238 l 256 18 q 226 0 247 0 l 67 0 m 629 422 q 643 433 643 422 q 642 446 643 442 l 525 771 q 515 779 521 779 q 507 769 511 779 l 389 446 q 386 433 386 438 q 401 422 386 422 l 629 422 m 761 1325 q 777 1320 774 1325 q 778 1304 781 1315 q 688 1184 754 1228 q 531 1140 621 1140 q 376 1183 442 1140 q 285 1306 310 1226 l 283 1313 q 297 1325 283 1325 l 388 1325 q 403 1322 397 1325 q 417 1308 410 1318 q 464 1264 433 1282 q 531 1246 494 1246 q 597 1264 565 1246 q 647 1310 629 1282 q 658 1322 653 1319 q 671 1325 663 1325 l 761 1325 z "},"Â":{"ha":1071,"x_min":46,"x_max":1026,"o":"m 67 0 q 46 24 46 0 q 49 40 46 35 l 394 1003 q 408 1024 400 1018 q 431 1031 415 1031 l 639 1031 q 665 1022 654 1031 q 681 1000 676 1014 l 1024 38 q 1026 25 1026 29 q 1022 7 1026 14 q 1007 0 1017 0 l 803 0 q 776 19 782 0 l 704 222 q 698 234 701 231 q 686 238 694 238 l 347 238 q 329 224 333 238 l 256 18 q 226 0 247 0 l 67 0 m 629 422 q 643 433 643 422 q 642 446 643 442 l 525 771 q 515 779 521 779 q 507 769 511 779 l 389 446 q 386 433 386 438 q 401 422 386 422 l 629 422 m 549 1225 q 538 1237 543 1232 q 528 1242 532 1242 q 507 1225 521 1242 l 438 1151 q 424 1142 429 1143 q 406 1140 418 1140 l 293 1140 q 281 1147 281 1140 q 289 1163 281 1154 l 439 1318 q 459 1332 450 1328 q 485 1336 468 1336 l 585 1336 q 604 1332 597 1336 q 619 1319 611 1328 l 768 1163 q 779 1146 779 1151 q 765 1140 779 1140 l 646 1140 q 613 1151 624 1140 l 549 1225 z "},"Ȁ":{"ha":1071,"x_min":46,"x_max":1026,"o":"m 67 0 q 46 24 46 0 q 49 40 46 35 l 394 1003 q 408 1024 400 1018 q 431 1031 415 1031 l 639 1031 q 665 1022 654 1031 q 681 1000 676 1014 l 1024 38 q 1026 25 1026 29 q 1022 7 1026 14 q 1007 0 1017 0 l 803 0 q 776 19 782 0 l 704 222 q 698 234 701 231 q 686 238 694 238 l 347 238 q 329 224 333 238 l 256 18 q 226 0 247 0 l 67 0 m 629 422 q 643 433 643 422 q 642 446 643 442 l 525 771 q 515 779 521 779 q 507 769 511 779 l 389 446 q 386 433 386 438 q 401 422 386 422 l 629 422 m 704 1160 q 710 1147 710 1154 q 701 1131 710 1139 l 665 1090 q 650 1082 657 1082 q 628 1090 642 1082 l 549 1143 q 540 1131 546 1138 l 504 1090 q 489 1082 496 1082 q 468 1090 481 1082 l 276 1217 q 261 1238 261 1226 q 271 1260 261 1247 l 331 1331 q 346 1339 338 1339 q 358 1333 353 1339 l 433 1263 l 492 1331 q 506 1339 497 1339 q 518 1333 513 1339 l 704 1160 z "},"Ä":{"ha":1071,"x_min":46,"x_max":1026,"o":"m 67 0 q 46 24 46 0 q 49 40 46 35 l 394 1003 q 408 1024 400 1018 q 431 1031 415 1031 l 639 1031 q 665 1022 654 1031 q 681 1000 676 1014 l 1024 38 q 1026 25 1026 29 q 1022 7 1026 14 q 1007 0 1017 0 l 803 0 q 776 19 782 0 l 704 222 q 698 234 701 231 q 686 238 694 238 l 347 238 q 329 224 333 238 l 256 18 q 226 0 247 0 l 67 0 m 629 422 q 643 433 643 422 q 642 446 643 442 l 525 771 q 515 779 521 779 q 507 769 511 779 l 389 446 q 386 433 386 438 q 401 422 386 422 l 629 422 m 483 1172 q 476 1151 483 1157 q 450 1144 468 1144 l 321 1144 q 300 1151 306 1144 q 294 1169 294 1157 l 294 1301 q 314 1325 294 1325 l 464 1325 q 483 1303 483 1325 l 483 1172 m 765 1172 q 758 1151 765 1157 q 732 1144 750 1144 l 603 1144 q 582 1151 588 1144 q 576 1169 576 1157 l 576 1301 q 596 1325 576 1325 l 746 1325 q 765 1303 765 1325 l 765 1172 z "},"À":{"ha":1071,"x_min":46,"x_max":1026,"o":"m 67 0 q 46 24 46 0 q 49 40 46 35 l 394 1003 q 408 1024 400 1018 q 431 1031 415 1031 l 639 1031 q 665 1022 654 1031 q 681 1000 676 1014 l 1024 38 q 1026 25 1026 29 q 1022 7 1026 14 q 1007 0 1017 0 l 803 0 q 776 19 782 0 l 704 222 q 698 234 701 231 q 686 238 694 238 l 347 238 q 329 224 333 238 l 256 18 q 226 0 247 0 l 67 0 m 629 422 q 643 433 643 422 q 642 446 643 442 l 525 771 q 515 779 521 779 q 507 769 511 779 l 389 446 q 386 433 386 438 q 401 422 386 422 l 629 422 m 360 1325 q 369 1337 363 1333 q 385 1338 376 1340 l 711 1200 q 722 1183 722 1196 q 719 1172 722 1176 l 703 1124 q 683 1107 697 1107 q 671 1108 675 1107 l 349 1194 q 325 1218 325 1203 q 328 1232 325 1224 l 360 1325 z "},"Ȃ":{"ha":1071,"x_min":46,"x_max":1026,"o":"m 67 0 q 46 24 46 0 q 49 40 46 35 l 394 1003 q 408 1024 400 1018 q 431 1031 415 1031 l 639 1031 q 665 1022 654 1031 q 681 1000 676 1014 l 1024 38 q 1026 25 1026 29 q 1022 7 1026 14 q 1007 0 1017 0 l 803 0 q 776 19 782 0 l 704 222 q 698 234 701 231 q 686 238 694 238 l 347 238 q 329 224 333 238 l 256 18 q 226 0 247 0 l 67 0 m 629 422 q 643 433 643 422 q 642 446 643 442 l 525 771 q 515 779 521 779 q 507 769 511 779 l 389 446 q 386 433 386 438 q 401 422 386 422 l 629 422 m 671 1144 q 658 1147 663 1144 q 647 1160 653 1150 q 597 1206 629 1188 q 531 1224 565 1224 q 464 1206 494 1224 q 415 1161 433 1188 q 404 1148 410 1151 q 388 1144 399 1144 l 297 1144 q 285 1150 289 1144 q 285 1163 282 1156 q 376 1285 310 1242 q 531 1328 442 1328 q 687 1285 621 1328 q 778 1165 753 1242 l 779 1157 q 761 1144 779 1144 l 671 1144 z "},"Ā":{"ha":1071,"x_min":46,"x_max":1026,"o":"m 67 0 q 46 24 46 0 q 49 40 46 35 l 394 1003 q 408 1024 400 1018 q 431 1031 415 1031 l 639 1031 q 665 1022 654 1031 q 681 1000 676 1014 l 1024 38 q 1026 25 1026 29 q 1022 7 1026 14 q 1007 0 1017 0 l 803 0 q 776 19 782 0 l 704 222 q 698 234 701 231 q 686 238 694 238 l 347 238 q 329 224 333 238 l 256 18 q 226 0 247 0 l 67 0 m 629 422 q 643 433 643 422 q 642 446 643 442 l 525 771 q 515 779 521 779 q 507 769 511 779 l 389 446 q 386 433 386 438 q 401 422 386 422 l 629 422 m 783 1207 q 751 1181 783 1181 l 301 1181 q 282 1187 288 1181 q 276 1206 276 1193 l 276 1294 q 294 1317 276 1317 l 765 1317 q 778 1311 774 1317 q 783 1297 783 1306 l 783 1207 z "},"Ą":{"ha":1071,"x_min":46,"x_max":1039,"o":"m 1018 -121 q 1031 -118 1024 -118 q 1038 -122 1036 -118 q 1039 -133 1039 -125 l 1039 -193 q 1028 -214 1039 -208 q 969 -232 1008 -224 q 889 -240 931 -240 q 774 -210 815 -240 q 732 -124 732 -181 q 757 -55 732 -85 q 846 0 782 -25 l 803 0 q 776 19 782 0 l 704 222 q 698 234 701 231 q 686 238 694 238 l 347 238 q 329 224 333 238 l 256 18 q 226 0 247 0 l 67 0 q 46 24 46 0 q 49 40 46 35 l 394 1003 q 408 1024 400 1018 q 431 1031 415 1031 l 639 1031 q 665 1022 654 1031 q 681 1000 676 1014 l 1024 38 q 1026 25 1026 29 q 1022 7 1026 14 q 1007 0 1017 0 l 1003 0 q 913 -47 939 -24 q 886 -96 886 -69 q 899 -131 886 -119 q 938 -142 911 -142 q 1018 -121 979 -142 m 629 422 q 643 433 643 422 q 642 446 643 442 l 525 771 q 515 779 521 779 q 507 769 511 779 l 389 446 q 386 433 386 438 q 401 422 386 422 l 629 422 z "},"Å":{"ha":1071,"x_min":46,"x_max":1026,"o":"m 1024 38 q 1026 25 1026 29 q 1022 7 1026 14 q 1007 0 1017 0 l 803 0 q 776 19 782 0 l 704 222 q 698 234 701 231 q 686 238 694 238 l 347 238 q 329 224 333 238 l 256 18 q 226 0 247 0 l 67 0 q 46 24 46 0 q 49 40 46 35 l 394 1003 q 408 1024 400 1018 q 431 1031 415 1031 l 488 1031 q 406 1086 438 1044 q 374 1183 374 1128 q 419 1290 374 1246 q 529 1333 465 1333 q 640 1289 594 1333 q 685 1181 685 1244 q 653 1085 685 1126 q 572 1031 622 1044 l 639 1031 q 665 1022 654 1031 q 681 1000 676 1014 l 1024 38 m 456 1179 q 478 1128 456 1150 q 528 1107 500 1107 q 578 1128 557 1107 q 599 1179 599 1150 q 578 1229 599 1210 q 528 1249 558 1249 q 477 1228 499 1249 q 456 1179 456 1208 m 629 422 q 643 433 643 422 q 642 446 643 442 l 525 771 q 515 779 521 779 q 507 769 511 779 l 389 446 q 386 433 386 438 q 401 422 386 422 l 629 422 z "},"Ǻ":{"ha":957,"x_min":8,"x_max":957,"o":"m 954 38 q 957 24 957 29 q 951 7 957 14 q 938 0 946 0 l 733 0 q 716 4 722 0 q 706 19 710 8 l 640 222 q 633 234 636 231 q 621 238 629 238 l 304 238 q 285 224 289 238 l 217 18 q 189 0 211 0 l 29 0 q 14 6 19 0 q 8 22 8 13 q 13 40 8 31 l 342 1003 q 361 1028 349 1022 q 336 1111 336 1064 q 366 1196 336 1160 q 443 1243 396 1232 l 457 1303 q 472 1331 463 1324 q 501 1339 482 1339 l 556 1339 q 576 1318 576 1339 q 574 1304 576 1315 l 546 1238 q 610 1186 586 1221 q 633 1108 633 1151 q 607 1025 633 1063 q 628 1000 624 1018 l 954 38 m 483 1176 q 433 1156 454 1176 q 411 1107 411 1136 q 433 1056 411 1078 q 483 1035 454 1035 q 533 1056 513 1035 q 554 1107 554 1078 q 533 1156 554 1136 q 483 1176 513 1176 m 565 422 q 579 433 579 422 q 578 446 579 442 l 471 771 q 461 779 467 779 q 454 769 456 779 l 344 446 q 342 433 342 438 q 357 422 342 422 l 565 422 z "},"Ã":{"ha":1071,"x_min":46,"x_max":1026,"o":"m 67 0 q 46 24 46 0 q 49 40 46 35 l 394 1003 q 408 1024 400 1018 q 431 1031 415 1031 l 639 1031 q 665 1022 654 1031 q 681 1000 676 1014 l 1024 38 q 1026 25 1026 29 q 1022 7 1026 14 q 1007 0 1017 0 l 803 0 q 776 19 782 0 l 704 222 q 698 234 701 231 q 686 238 694 238 l 347 238 q 329 224 333 238 l 256 18 q 226 0 247 0 l 67 0 m 629 422 q 643 433 643 422 q 642 446 643 442 l 525 771 q 515 779 521 779 q 507 769 511 779 l 389 446 q 386 433 386 438 q 401 422 386 422 l 629 422 m 763 1203 q 636 1165 708 1165 q 587 1170 610 1165 q 529 1186 564 1175 q 476 1201 497 1196 q 431 1206 454 1206 q 383 1199 403 1206 q 338 1174 364 1192 q 324 1167 328 1167 q 311 1183 315 1167 l 292 1243 q 289 1257 289 1251 q 300 1276 289 1265 q 356 1315 329 1301 q 424 1328 383 1328 q 477 1322 451 1328 q 542 1304 503 1317 q 636 1283 604 1283 q 685 1292 663 1283 q 732 1318 708 1301 q 746 1324 740 1324 q 761 1308 757 1324 l 778 1236 q 779 1228 779 1233 q 763 1203 779 1215 z "},"Æ":{"ha":1500,"x_min":46,"x_max":1447,"o":"m 1422 178 q 1447 157 1447 178 l 1447 25 q 1440 7 1447 14 q 1421 0 1433 0 l 731 0 q 708 7 714 0 q 701 29 701 14 l 701 222 q 686 238 701 238 l 386 238 q 364 224 369 238 l 254 18 q 224 0 244 0 l 63 0 q 46 18 46 0 q 53 40 46 31 l 568 1003 q 607 1031 581 1031 l 1411 1031 q 1432 1007 1432 1031 l 1431 882 q 1401 853 1431 853 l 969 853 q 944 831 944 853 l 944 629 q 965 606 944 606 l 1251 606 q 1274 583 1274 606 l 1274 450 q 1253 431 1274 431 l 964 431 q 944 414 944 431 l 944 196 q 947 181 944 185 q 960 178 950 178 l 1422 178 m 679 422 q 701 444 701 422 l 701 800 q 683 828 699 828 q 656 801 668 828 l 464 446 q 458 431 458 436 q 471 422 458 422 l 679 422 z "},"Ǽ":{"ha":1500,"x_min":46,"x_max":1447,"o":"m 1422 178 q 1447 157 1447 178 l 1447 25 q 1440 7 1447 14 q 1421 0 1433 0 l 731 0 q 708 7 714 0 q 701 29 701 14 l 701 222 q 686 238 701 238 l 386 238 q 364 224 369 238 l 254 18 q 224 0 244 0 l 63 0 q 46 18 46 0 q 53 40 46 31 l 568 1003 q 607 1031 581 1031 l 1411 1031 q 1432 1007 1432 1031 l 1431 882 q 1401 853 1431 853 l 969 853 q 944 831 944 853 l 944 629 q 965 606 944 606 l 1251 606 q 1274 583 1274 606 l 1274 450 q 1253 431 1274 431 l 964 431 q 944 414 944 431 l 944 196 q 947 181 944 185 q 960 178 950 178 l 1422 178 m 679 422 q 701 444 701 422 l 701 800 q 683 828 699 828 q 656 801 668 828 l 464 446 q 458 431 458 436 q 471 422 458 422 l 679 422 m 1182 1232 q 1185 1218 1185 1224 q 1161 1194 1185 1203 l 840 1108 q 828 1107 835 1107 q 815 1110 819 1107 q 807 1124 811 1114 l 790 1172 l 788 1183 q 799 1200 788 1196 l 1126 1338 q 1133 1339 1129 1339 q 1150 1325 1146 1339 l 1182 1232 z "},"B":{"ha":1004,"x_min":97,"x_max":946,"o":"m 124 0 q 104 7 111 0 q 97 25 97 14 l 97 1001 q 105 1023 97 1015 q 125 1031 113 1031 l 501 1031 q 813 962 706 1031 q 921 760 921 893 q 879 628 921 682 q 739 535 838 575 q 735 529 735 533 q 739 524 735 525 q 897 430 847 488 q 946 279 946 372 q 840 69 946 138 q 519 0 733 0 l 124 0 m 522 606 q 635 638 590 606 q 681 732 681 671 q 633 831 681 796 q 510 867 586 867 l 367 867 q 347 861 353 867 q 340 843 340 856 l 340 631 q 344 611 340 617 q 360 606 349 606 l 522 606 m 513 164 q 647 201 601 164 q 693 301 693 238 q 646 401 693 365 q 522 436 599 436 l 367 436 q 346 431 351 436 q 340 413 340 426 l 340 190 q 344 170 340 176 q 360 164 349 164 l 513 164 z "},"C":{"ha":1007,"x_min":61,"x_max":961,"o":"m 531 1044 q 725 1004 636 1044 q 872 894 814 964 q 944 739 929 825 q 947 717 947 729 q 943 706 947 708 q 931 701 939 703 l 743 689 q 727 693 731 689 q 721 710 724 697 q 660 831 706 786 q 538 875 614 875 q 315 519 315 875 q 371 250 315 335 q 540 165 426 165 q 681 207 624 165 q 775 343 739 249 q 793 353 779 353 q 806 351 801 353 l 942 322 q 957 288 961 315 q 892 158 943 228 q 750 38 842 89 q 531 -14 658 -14 q 281 53 388 -14 q 118 242 175 121 q 61 524 61 364 q 118 800 61 682 q 281 981 175 918 q 531 1044 388 1044 z "},"Ć":{"ha":1007,"x_min":61,"x_max":961,"o":"m 531 1044 q 725 1004 636 1044 q 872 894 814 964 q 944 739 929 825 q 947 717 947 729 q 943 706 947 708 q 931 701 939 703 l 743 689 q 727 693 731 689 q 721 710 724 697 q 660 831 706 786 q 538 875 614 875 q 315 519 315 875 q 371 250 315 335 q 540 165 426 165 q 681 207 624 165 q 775 343 739 249 q 793 353 779 353 q 806 351 801 353 l 942 322 q 957 288 961 315 q 892 158 943 228 q 750 38 842 89 q 531 -14 658 -14 q 281 53 388 -14 q 118 242 175 121 q 61 524 61 364 q 118 800 61 682 q 281 981 175 918 q 531 1044 388 1044 m 726 1232 q 729 1218 729 1224 q 706 1194 729 1203 l 385 1108 q 372 1107 379 1107 q 360 1110 364 1107 q 351 1124 356 1114 l 335 1172 l 332 1183 q 343 1200 332 1196 l 671 1338 q 678 1339 674 1339 q 694 1325 690 1339 l 726 1232 z "},"Č":{"ha":1007,"x_min":61,"x_max":961,"o":"m 531 1044 q 725 1004 636 1044 q 872 894 814 964 q 944 739 929 825 q 947 717 947 729 q 943 706 947 708 q 931 701 939 703 l 743 689 q 727 693 731 689 q 721 710 724 697 q 660 831 706 786 q 538 875 614 875 q 315 519 315 875 q 371 250 315 335 q 540 165 426 165 q 681 207 624 165 q 775 343 739 249 q 793 353 779 353 q 806 351 801 353 l 942 322 q 957 288 961 315 q 892 158 943 228 q 750 38 842 89 q 531 -14 658 -14 q 281 53 388 -14 q 118 242 175 121 q 61 524 61 364 q 118 800 61 682 q 281 981 175 918 q 531 1044 388 1044 m 613 1315 q 646 1326 624 1326 l 765 1326 q 779 1321 779 1326 q 768 1304 779 1315 l 619 1147 q 604 1135 611 1139 q 585 1131 597 1131 l 485 1131 q 459 1135 468 1131 q 439 1149 450 1139 l 289 1304 q 281 1319 281 1313 q 293 1326 281 1326 l 406 1326 q 424 1325 418 1326 q 438 1315 429 1324 l 507 1242 q 529 1225 521 1225 q 541 1233 535 1225 q 549 1242 547 1240 l 613 1315 z "},"Ç":{"ha":1007,"x_min":61,"x_max":961,"o":"m 942 322 q 957 288 961 315 q 898 167 943 232 q 771 49 853 101 q 575 -12 689 -3 l 554 -65 q 561 -75 550 -75 q 664 -110 631 -76 q 697 -187 697 -143 q 647 -272 697 -240 q 525 -304 597 -304 q 371 -271 431 -304 q 364 -253 358 -264 l 383 -204 q 399 -199 388 -194 q 499 -229 450 -229 q 551 -217 532 -229 q 569 -185 569 -206 q 541 -142 569 -157 q 449 -128 513 -128 q 438 -114 431 -128 l 481 -11 q 258 70 353 0 q 112 257 163 140 q 61 524 61 374 q 118 800 61 682 q 281 981 175 918 q 531 1044 388 1044 q 725 1004 636 1044 q 872 894 814 964 q 944 739 929 825 q 947 717 947 729 q 943 706 947 708 q 931 701 939 703 l 743 689 q 727 693 731 689 q 721 710 724 697 q 660 831 706 786 q 538 875 614 875 q 315 519 315 875 q 371 250 315 335 q 540 165 426 165 q 681 207 624 165 q 775 343 739 249 q 793 353 779 353 q 806 351 801 353 l 942 322 z "},"Ĉ":{"ha":1007,"x_min":61,"x_max":961,"o":"m 531 1044 q 725 1004 636 1044 q 872 894 814 964 q 944 739 929 825 q 947 717 947 729 q 943 706 947 708 q 931 701 939 703 l 743 689 q 727 693 731 689 q 721 710 724 697 q 660 831 706 786 q 538 875 614 875 q 315 519 315 875 q 371 250 315 335 q 540 165 426 165 q 681 207 624 165 q 775 343 739 249 q 793 353 779 353 q 806 351 801 353 l 942 322 q 957 288 961 315 q 892 158 943 228 q 750 38 842 89 q 531 -14 658 -14 q 281 53 388 -14 q 118 242 175 121 q 61 524 61 364 q 118 800 61 682 q 281 981 175 918 q 531 1044 388 1044 m 549 1225 q 538 1237 543 1232 q 528 1242 532 1242 q 507 1225 521 1242 l 438 1151 q 424 1142 429 1143 q 406 1140 418 1140 l 293 1140 q 281 1147 281 1140 q 289 1163 281 1154 l 439 1318 q 459 1332 450 1328 q 485 1336 468 1336 l 585 1336 q 604 1332 597 1336 q 619 1319 611 1328 l 768 1163 q 779 1146 779 1151 q 765 1140 779 1140 l 646 1140 q 613 1151 624 1140 l 549 1225 z "},"Ċ":{"ha":1007,"x_min":61,"x_max":961,"o":"m 531 1044 q 725 1004 636 1044 q 872 894 814 964 q 944 739 929 825 q 947 717 947 729 q 943 706 947 708 q 931 701 939 703 l 743 689 q 727 693 731 689 q 721 710 724 697 q 660 831 706 786 q 538 875 614 875 q 315 519 315 875 q 371 250 315 335 q 540 165 426 165 q 681 207 624 165 q 775 343 739 249 q 793 353 779 353 q 806 351 801 353 l 942 322 q 957 288 961 315 q 892 158 943 228 q 750 38 842 89 q 531 -14 658 -14 q 281 53 388 -14 q 118 242 175 121 q 61 524 61 364 q 118 800 61 682 q 281 981 175 918 q 531 1044 388 1044 m 640 1153 q 631 1127 640 1135 q 603 1119 622 1119 l 453 1119 q 429 1126 436 1119 q 422 1150 422 1133 l 422 1299 q 444 1325 422 1325 l 618 1325 q 640 1300 640 1325 l 640 1153 z "},"D":{"ha":1043,"x_min":97,"x_max":982,"o":"m 128 1031 q 438 1029 357 1031 q 847 889 713 1021 q 982 519 982 757 q 842 138 982 275 q 431 0 701 0 l 129 0 q 105 8 113 0 q 97 33 97 15 l 97 1003 q 104 1024 97 1018 q 128 1031 111 1031 m 353 858 q 340 839 340 858 l 340 190 q 344 175 340 179 q 358 171 347 171 l 385 171 q 644 252 560 171 q 728 521 728 333 q 657 771 728 694 q 438 856 586 847 l 353 858 z "},"Ǳ":{"ha":1932,"x_min":97,"x_max":1879,"o":"m 128 1031 q 438 1029 357 1031 q 847 889 713 1021 q 982 519 982 757 q 842 138 982 275 q 431 0 701 0 l 129 0 q 105 8 113 0 q 97 33 97 15 l 97 1003 q 104 1024 97 1018 q 128 1031 111 1031 m 353 858 q 340 839 340 858 l 340 190 q 344 175 340 179 q 358 171 347 171 l 385 171 q 644 252 560 171 q 728 521 728 333 q 657 771 728 694 q 438 856 586 847 l 353 858 m 1063 0 q 1040 6 1046 0 q 1033 28 1033 11 l 1033 78 q 1037 103 1033 94 q 1057 135 1040 113 l 1531 833 q 1535 843 1535 840 q 1519 851 1535 851 l 1094 851 q 1076 857 1081 851 q 1071 878 1071 863 l 1071 1007 q 1090 1031 1071 1031 l 1858 1031 q 1874 1024 1868 1031 q 1879 1008 1879 1018 l 1879 951 q 1875 930 1879 939 q 1860 906 1871 921 l 1375 197 q 1372 189 1372 194 q 1388 181 1372 181 l 1849 181 q 1874 160 1874 181 l 1874 25 q 1867 7 1874 14 q 1847 0 1860 0 l 1063 0 z "},"Ǆ":{"ha":1963,"x_min":97,"x_max":1908,"o":"m 128 1031 q 438 1029 357 1031 q 847 889 713 1021 q 982 519 982 757 q 842 138 982 275 q 431 0 701 0 l 129 0 q 105 8 113 0 q 97 33 97 15 l 97 1003 q 104 1024 97 1018 q 128 1031 111 1031 m 353 858 q 340 839 340 858 l 340 190 q 344 175 340 179 q 358 171 347 171 l 385 171 q 644 252 560 171 q 728 521 728 333 q 657 771 728 694 q 438 856 586 847 l 353 858 m 1092 0 q 1069 6 1075 0 q 1063 28 1063 11 l 1063 78 q 1066 103 1063 94 q 1086 135 1069 113 l 1560 833 q 1564 843 1564 840 q 1549 851 1564 851 l 1124 851 q 1105 857 1110 851 q 1100 878 1100 863 l 1100 1007 q 1119 1031 1100 1031 l 1888 1031 q 1903 1024 1897 1031 q 1908 1008 1908 1018 l 1908 951 q 1904 930 1908 939 q 1889 906 1900 921 l 1404 197 q 1401 189 1401 194 q 1417 181 1401 181 l 1878 181 q 1903 160 1903 181 l 1903 25 q 1896 7 1903 14 q 1876 0 1889 0 l 1092 0 m 1586 1315 q 1619 1326 1597 1326 l 1739 1326 q 1753 1321 1753 1326 q 1742 1304 1753 1315 l 1593 1147 q 1578 1135 1585 1139 q 1558 1131 1571 1131 l 1458 1131 q 1433 1135 1442 1131 q 1413 1149 1424 1139 l 1263 1304 q 1254 1319 1254 1313 q 1267 1326 1254 1326 l 1379 1326 q 1397 1325 1392 1326 q 1411 1315 1403 1324 l 1481 1242 q 1503 1225 1494 1225 q 1515 1233 1508 1225 q 1522 1242 1521 1240 l 1586 1315 z "},"Ð":{"ha":1064,"x_min":38,"x_max":1001,"o":"m 457 1029 q 867 889 732 1021 q 1001 519 1001 757 q 861 138 1001 275 q 450 0 721 0 l 149 0 q 124 8 132 0 q 117 33 117 15 l 117 431 l 68 431 q 44 438 51 431 q 38 460 38 444 l 38 561 q 60 588 38 588 l 117 588 l 117 1003 q 124 1024 117 1018 q 147 1031 131 1031 q 457 1029 376 1031 m 406 171 q 664 252 581 171 q 747 521 747 333 q 676 771 747 694 q 457 856 606 847 l 372 858 q 360 839 360 858 l 360 588 l 543 588 q 564 564 564 588 l 564 463 q 555 438 564 446 q 526 431 546 431 l 360 431 l 360 190 q 363 175 360 179 q 378 171 367 171 l 406 171 z "},"Ď":{"ha":1043,"x_min":97,"x_max":982,"o":"m 128 1031 q 438 1029 357 1031 q 847 889 713 1021 q 982 519 982 757 q 842 138 982 275 q 431 0 701 0 l 129 0 q 105 8 113 0 q 97 33 97 15 l 97 1003 q 104 1024 97 1018 q 128 1031 111 1031 m 353 858 q 340 839 340 858 l 340 190 q 344 175 340 179 q 358 171 347 171 l 385 171 q 644 252 560 171 q 728 521 728 333 q 657 771 728 694 q 438 856 586 847 l 353 858 m 603 1315 q 636 1326 614 1326 l 756 1326 q 769 1321 769 1326 q 758 1304 769 1315 l 610 1147 q 594 1135 601 1139 q 575 1131 588 1131 l 475 1131 q 449 1135 458 1131 q 429 1149 440 1139 l 279 1304 q 271 1319 271 1313 q 283 1326 271 1326 l 396 1326 q 414 1325 408 1326 q 428 1315 419 1324 l 497 1242 q 519 1225 511 1225 q 531 1233 525 1225 q 539 1242 538 1240 l 603 1315 z "},"Đ":{"ha":1064,"x_min":38,"x_max":1001,"o":"m 457 1029 q 867 889 732 1021 q 1001 519 1001 757 q 861 138 1001 275 q 450 0 721 0 l 149 0 q 124 8 132 0 q 117 33 117 15 l 117 431 l 68 431 q 44 438 51 431 q 38 460 38 444 l 38 561 q 60 588 38 588 l 117 588 l 117 1003 q 124 1024 117 1018 q 147 1031 131 1031 q 457 1029 376 1031 m 406 171 q 664 252 581 171 q 747 521 747 333 q 676 771 747 694 q 457 856 606 847 l 372 858 q 360 839 360 858 l 360 588 l 543 588 q 564 564 564 588 l 564 463 q 555 438 564 446 q 526 431 546 431 l 360 431 l 360 190 q 363 175 360 179 q 378 171 367 171 l 406 171 z "},"Ḍ":{"ha":1043,"x_min":97,"x_max":982,"o":"m 128 1031 q 438 1029 357 1031 q 847 889 713 1021 q 982 519 982 757 q 842 138 982 275 q 431 0 701 0 l 129 0 q 105 8 113 0 q 97 33 97 15 l 97 1003 q 104 1024 97 1018 q 128 1031 111 1031 m 353 858 q 340 839 340 858 l 340 190 q 344 175 340 179 q 358 171 347 171 l 385 171 q 644 252 560 171 q 728 521 728 333 q 657 771 728 694 q 438 856 586 847 l 353 858 m 572 -203 q 566 -223 572 -217 q 544 -229 560 -229 l 429 -229 q 410 -224 415 -229 q 406 -207 406 -218 l 406 -85 q 409 -69 406 -74 q 422 -64 413 -64 l 557 -64 q 572 -83 572 -64 l 572 -203 z "},"ǲ":{"ha":1722,"x_min":97,"x_max":1682,"o":"m 128 1031 q 438 1029 357 1031 q 847 889 713 1021 q 982 519 982 757 q 842 138 982 275 q 431 0 701 0 l 129 0 q 105 8 113 0 q 97 33 97 15 l 97 1003 q 104 1024 97 1018 q 128 1031 111 1031 m 353 858 q 340 839 340 858 l 340 190 q 344 175 340 179 q 358 171 347 171 l 385 171 q 644 252 560 171 q 728 521 728 333 q 657 771 728 694 q 438 856 586 847 l 353 858 m 1061 0 q 1039 6 1044 0 q 1033 28 1033 11 l 1033 82 q 1038 108 1033 99 q 1057 140 1042 118 l 1396 582 q 1399 588 1397 585 q 1401 593 1401 590 q 1385 601 1401 601 l 1089 601 q 1069 607 1075 601 q 1064 626 1064 613 l 1064 714 q 1083 736 1064 736 l 1658 736 q 1674 731 1668 736 q 1679 715 1679 725 l 1679 654 q 1674 631 1679 642 q 1658 604 1669 619 l 1315 158 q 1308 144 1308 149 q 1324 136 1308 136 l 1657 136 q 1682 115 1682 136 l 1682 25 q 1654 0 1682 0 l 1061 0 z "},"ǅ":{"ha":1765,"x_min":97,"x_max":1725,"o":"m 128 1031 q 438 1029 357 1031 q 847 889 713 1021 q 982 519 982 757 q 842 138 982 275 q 431 0 701 0 l 129 0 q 105 8 113 0 q 97 33 97 15 l 97 1003 q 104 1024 97 1018 q 128 1031 111 1031 m 353 858 q 340 839 340 858 l 340 190 q 344 175 340 179 q 358 171 347 171 l 385 171 q 644 252 560 171 q 728 521 728 333 q 657 771 728 694 q 438 856 586 847 l 353 858 m 1104 0 q 1082 6 1088 0 q 1076 28 1076 11 l 1076 82 q 1081 108 1076 99 q 1100 140 1085 118 l 1439 582 q 1442 588 1440 585 q 1444 593 1444 590 q 1428 601 1444 601 l 1132 601 q 1113 607 1118 601 q 1107 626 1107 613 l 1107 714 q 1126 736 1107 736 l 1701 736 q 1717 731 1711 736 q 1722 715 1722 725 l 1722 654 q 1717 631 1722 642 q 1701 604 1713 619 l 1358 158 q 1351 144 1351 149 q 1367 136 1351 136 l 1700 136 q 1725 115 1725 136 l 1725 25 q 1697 0 1725 0 l 1104 0 m 1497 1021 q 1531 1032 1508 1032 l 1650 1032 q 1664 1026 1664 1032 q 1653 1010 1664 1021 l 1504 853 q 1489 840 1496 844 q 1469 836 1482 836 l 1369 836 q 1344 840 1353 836 q 1324 854 1335 844 l 1174 1010 q 1165 1025 1165 1018 q 1178 1032 1165 1032 l 1290 1032 q 1308 1031 1303 1032 q 1322 1021 1314 1029 l 1392 947 q 1414 931 1406 931 q 1426 938 1419 931 q 1433 947 1432 946 l 1497 1021 z "},"E":{"ha":908,"x_min":97,"x_max":856,"o":"m 97 1004 q 119 1031 97 1031 l 819 1031 q 840 1007 840 1031 l 839 882 q 810 853 839 853 l 367 853 q 340 831 340 853 l 340 629 q 361 606 340 606 l 656 606 q 679 583 679 606 l 679 450 q 657 431 679 431 l 360 431 q 340 414 340 431 l 340 196 q 344 182 340 186 q 356 178 347 178 l 831 178 q 856 157 856 178 l 856 25 q 828 0 856 0 l 128 0 q 104 7 111 0 q 97 29 97 14 l 97 1004 z "},"É":{"ha":908,"x_min":97,"x_max":856,"o":"m 97 1004 q 119 1031 97 1031 l 819 1031 q 840 1007 840 1031 l 839 882 q 810 853 839 853 l 367 853 q 340 831 340 853 l 340 629 q 361 606 340 606 l 656 606 q 679 583 679 606 l 679 450 q 657 431 679 431 l 360 431 q 340 414 340 431 l 340 196 q 344 182 340 186 q 356 178 347 178 l 831 178 q 856 157 856 178 l 856 25 q 828 0 856 0 l 128 0 q 104 7 111 0 q 97 29 97 14 l 97 1004 m 665 1232 q 668 1218 668 1224 q 644 1194 668 1203 l 324 1108 q 311 1107 318 1107 q 299 1110 303 1107 q 290 1124 294 1114 l 274 1172 l 271 1183 q 282 1200 271 1196 l 610 1338 q 617 1339 613 1339 q 633 1325 629 1339 l 665 1232 z "},"Ĕ":{"ha":908,"x_min":97,"x_max":856,"o":"m 97 1004 q 119 1031 97 1031 l 819 1031 q 840 1007 840 1031 l 839 882 q 810 853 839 853 l 367 853 q 340 831 340 853 l 340 629 q 361 606 340 606 l 656 606 q 679 583 679 606 l 679 450 q 657 431 679 431 l 360 431 q 340 414 340 431 l 340 196 q 344 182 340 186 q 356 178 347 178 l 831 178 q 856 157 856 178 l 856 25 q 828 0 856 0 l 128 0 q 104 7 111 0 q 97 29 97 14 l 97 1004 m 700 1325 q 716 1320 713 1325 q 717 1304 719 1315 q 626 1184 693 1228 q 469 1140 560 1140 q 315 1183 381 1140 q 224 1306 249 1226 l 222 1313 q 236 1325 222 1325 l 326 1325 q 342 1322 336 1325 q 356 1308 349 1318 q 403 1264 372 1282 q 469 1246 433 1246 q 536 1264 504 1246 q 586 1310 568 1282 q 597 1322 592 1319 q 610 1325 601 1325 l 700 1325 z "},"Ě":{"ha":908,"x_min":97,"x_max":856,"o":"m 97 1004 q 119 1031 97 1031 l 819 1031 q 840 1007 840 1031 l 839 882 q 810 853 839 853 l 367 853 q 340 831 340 853 l 340 629 q 361 606 340 606 l 656 606 q 679 583 679 606 l 679 450 q 657 431 679 431 l 360 431 q 340 414 340 431 l 340 196 q 344 182 340 186 q 356 178 347 178 l 831 178 q 856 157 856 178 l 856 25 q 828 0 856 0 l 128 0 q 104 7 111 0 q 97 29 97 14 l 97 1004 m 553 1315 q 586 1326 564 1326 l 706 1326 q 719 1321 719 1326 q 708 1304 719 1315 l 560 1147 q 544 1135 551 1139 q 525 1131 538 1131 l 425 1131 q 399 1135 408 1131 q 379 1149 390 1139 l 229 1304 q 221 1319 221 1313 q 233 1326 221 1326 l 346 1326 q 364 1325 358 1326 q 378 1315 369 1324 l 447 1242 q 469 1225 461 1225 q 481 1233 475 1225 q 489 1242 488 1240 l 553 1315 z "},"Ê":{"ha":908,"x_min":97,"x_max":856,"o":"m 97 1004 q 119 1031 97 1031 l 819 1031 q 840 1007 840 1031 l 839 882 q 810 853 839 853 l 367 853 q 340 831 340 853 l 340 629 q 361 606 340 606 l 656 606 q 679 583 679 606 l 679 450 q 657 431 679 431 l 360 431 q 340 414 340 431 l 340 196 q 344 182 340 186 q 356 178 347 178 l 831 178 q 856 157 856 178 l 856 25 q 828 0 856 0 l 128 0 q 104 7 111 0 q 97 29 97 14 l 97 1004 m 489 1225 q 478 1237 483 1232 q 468 1242 472 1242 q 447 1225 461 1242 l 378 1151 q 364 1142 369 1143 q 346 1140 358 1140 l 233 1140 q 221 1147 221 1140 q 229 1163 221 1154 l 379 1318 q 399 1332 390 1328 q 425 1336 408 1336 l 525 1336 q 544 1332 538 1336 q 560 1319 551 1328 l 708 1163 q 719 1146 719 1151 q 706 1140 719 1140 l 586 1140 q 553 1151 564 1140 l 489 1225 z "},"Ȅ":{"ha":908,"x_min":97,"x_max":856,"o":"m 97 1004 q 119 1031 97 1031 l 819 1031 q 840 1007 840 1031 l 839 882 q 810 853 839 853 l 367 853 q 340 831 340 853 l 340 629 q 361 606 340 606 l 656 606 q 679 583 679 606 l 679 450 q 657 431 679 431 l 360 431 q 340 414 340 431 l 340 196 q 344 182 340 186 q 356 178 347 178 l 831 178 q 856 157 856 178 l 856 25 q 828 0 856 0 l 128 0 q 104 7 111 0 q 97 29 97 14 l 97 1004 m 644 1160 q 650 1147 650 1154 q 642 1131 650 1139 l 606 1090 q 590 1082 597 1082 q 568 1090 582 1082 l 489 1143 q 481 1131 486 1138 l 444 1090 q 429 1082 436 1082 q 408 1090 421 1082 l 217 1217 q 201 1238 201 1226 q 211 1260 201 1247 l 271 1331 q 286 1339 278 1339 q 299 1333 293 1339 l 374 1263 l 432 1331 q 446 1339 438 1339 q 458 1333 453 1339 l 644 1160 z "},"Ë":{"ha":908,"x_min":97,"x_max":856,"o":"m 97 1004 q 119 1031 97 1031 l 819 1031 q 840 1007 840 1031 l 839 882 q 810 853 839 853 l 367 853 q 340 831 340 853 l 340 629 q 361 606 340 606 l 656 606 q 679 583 679 606 l 679 450 q 657 431 679 431 l 360 431 q 340 414 340 431 l 340 196 q 344 182 340 186 q 356 178 347 178 l 831 178 q 856 157 856 178 l 856 25 q 828 0 856 0 l 128 0 q 104 7 111 0 q 97 29 97 14 l 97 1004 m 424 1172 q 416 1151 424 1157 q 390 1144 408 1144 l 261 1144 q 240 1151 246 1144 q 235 1169 235 1157 l 235 1301 q 254 1325 235 1325 l 404 1325 q 424 1303 424 1325 l 424 1172 m 706 1172 q 698 1151 706 1157 q 672 1144 690 1144 l 543 1144 q 522 1151 528 1144 q 517 1169 517 1157 l 517 1301 q 536 1325 517 1325 l 686 1325 q 706 1303 706 1325 l 706 1172 z "},"Ė":{"ha":908,"x_min":97,"x_max":856,"o":"m 97 1004 q 119 1031 97 1031 l 819 1031 q 840 1007 840 1031 l 839 882 q 810 853 839 853 l 367 853 q 340 831 340 853 l 340 629 q 361 606 340 606 l 656 606 q 679 583 679 606 l 679 450 q 657 431 679 431 l 360 431 q 340 414 340 431 l 340 196 q 344 182 340 186 q 356 178 347 178 l 831 178 q 856 157 856 178 l 856 25 q 828 0 856 0 l 128 0 q 104 7 111 0 q 97 29 97 14 l 97 1004 m 579 1153 q 570 1127 579 1135 q 542 1119 561 1119 l 392 1119 q 368 1126 375 1119 q 361 1150 361 1133 l 361 1299 q 383 1325 361 1325 l 557 1325 q 579 1300 579 1325 l 579 1153 z "},"Ẹ":{"ha":908,"x_min":97,"x_max":856,"o":"m 97 1004 q 119 1031 97 1031 l 819 1031 q 840 1007 840 1031 l 839 882 q 810 853 839 853 l 367 853 q 340 831 340 853 l 340 629 q 361 606 340 606 l 656 606 q 679 583 679 606 l 679 450 q 657 431 679 431 l 360 431 q 340 414 340 431 l 340 196 q 344 182 340 186 q 356 178 347 178 l 831 178 q 856 157 856 178 l 856 25 q 828 0 856 0 l 128 0 q 104 7 111 0 q 97 29 97 14 l 97 1004 m 572 -203 q 566 -223 572 -217 q 544 -229 560 -229 l 429 -229 q 410 -224 415 -229 q 406 -207 406 -218 l 406 -85 q 409 -69 406 -74 q 422 -64 413 -64 l 557 -64 q 572 -83 572 -64 l 572 -203 z "},"È":{"ha":908,"x_min":97,"x_max":856,"o":"m 97 1004 q 119 1031 97 1031 l 819 1031 q 840 1007 840 1031 l 839 882 q 810 853 839 853 l 367 853 q 340 831 340 853 l 340 629 q 361 606 340 606 l 656 606 q 679 583 679 606 l 679 450 q 657 431 679 431 l 360 431 q 340 414 340 431 l 340 196 q 344 182 340 186 q 356 178 347 178 l 831 178 q 856 157 856 178 l 856 25 q 828 0 856 0 l 128 0 q 104 7 111 0 q 97 29 97 14 l 97 1004 m 299 1325 q 308 1337 301 1333 q 324 1338 315 1340 l 650 1200 q 661 1183 661 1196 q 658 1172 661 1176 l 642 1124 q 622 1107 636 1107 q 610 1108 614 1107 l 288 1194 q 264 1218 264 1203 q 267 1232 264 1224 l 299 1325 z "},"Ȇ":{"ha":908,"x_min":97,"x_max":856,"o":"m 97 1004 q 119 1031 97 1031 l 819 1031 q 840 1007 840 1031 l 839 882 q 810 853 839 853 l 367 853 q 340 831 340 853 l 340 629 q 361 606 340 606 l 656 606 q 679 583 679 606 l 679 450 q 657 431 679 431 l 360 431 q 340 414 340 431 l 340 196 q 344 182 340 186 q 356 178 347 178 l 831 178 q 856 157 856 178 l 856 25 q 828 0 856 0 l 128 0 q 104 7 111 0 q 97 29 97 14 l 97 1004 m 610 1144 q 597 1147 601 1144 q 586 1160 592 1150 q 536 1206 568 1188 q 469 1224 504 1224 q 403 1206 433 1224 q 354 1161 372 1188 q 343 1148 349 1151 q 326 1144 338 1144 l 236 1144 q 224 1150 228 1144 q 224 1163 221 1156 q 315 1285 249 1242 q 469 1328 381 1328 q 626 1285 560 1328 q 717 1165 692 1242 l 718 1157 q 700 1144 718 1144 l 610 1144 z "},"Ē":{"ha":908,"x_min":97,"x_max":856,"o":"m 97 1004 q 119 1031 97 1031 l 819 1031 q 840 1007 840 1031 l 839 882 q 810 853 839 853 l 367 853 q 340 831 340 853 l 340 629 q 361 606 340 606 l 656 606 q 679 583 679 606 l 679 450 q 657 431 679 431 l 360 431 q 340 414 340 431 l 340 196 q 344 182 340 186 q 356 178 347 178 l 831 178 q 856 157 856 178 l 856 25 q 828 0 856 0 l 128 0 q 104 7 111 0 q 97 29 97 14 l 97 1004 m 724 1207 q 692 1181 724 1181 l 242 1181 q 222 1187 228 1181 q 217 1206 217 1193 l 217 1294 q 235 1317 217 1317 l 706 1317 q 719 1311 714 1317 q 724 1297 724 1306 l 724 1207 z "},"Ę":{"ha":908,"x_min":97,"x_max":868,"o":"m 847 -121 q 860 -118 853 -118 q 867 -122 865 -118 q 868 -133 868 -125 l 868 -193 q 857 -214 868 -208 q 799 -232 838 -224 q 718 -240 760 -240 q 603 -210 644 -240 q 561 -124 561 -181 q 586 -55 561 -85 q 675 0 611 -25 l 128 0 q 104 7 111 0 q 97 29 97 14 l 97 1004 q 119 1031 97 1031 l 819 1031 q 840 1007 840 1031 l 839 882 q 810 853 839 853 l 367 853 q 340 831 340 853 l 340 629 q 361 606 340 606 l 656 606 q 679 583 679 606 l 679 450 q 657 431 679 431 l 360 431 q 340 414 340 431 l 340 196 q 344 182 340 186 q 356 178 347 178 l 831 178 q 856 157 856 178 l 856 25 q 847 6 856 13 q 833 0 842 3 q 742 -46 768 -24 q 715 -96 715 -68 q 728 -131 715 -119 q 767 -142 740 -142 q 847 -121 808 -142 z "},"Ẽ":{"ha":908,"x_min":97,"x_max":856,"o":"m 97 1004 q 119 1031 97 1031 l 819 1031 q 840 1007 840 1031 l 839 882 q 810 853 839 853 l 367 853 q 340 831 340 853 l 340 629 q 361 606 340 606 l 656 606 q 679 583 679 606 l 679 450 q 657 431 679 431 l 360 431 q 340 414 340 431 l 340 196 q 344 182 340 186 q 356 178 347 178 l 831 178 q 856 157 856 178 l 856 25 q 828 0 856 0 l 128 0 q 104 7 111 0 q 97 29 97 14 l 97 1004 m 703 1203 q 576 1165 649 1165 q 527 1170 550 1165 q 469 1186 504 1175 q 416 1201 438 1196 q 371 1206 394 1206 q 324 1199 343 1206 q 278 1174 304 1192 q 264 1167 268 1167 q 251 1183 256 1167 l 232 1243 q 229 1257 229 1251 q 240 1276 229 1265 q 297 1315 269 1301 q 364 1328 324 1328 q 417 1322 392 1328 q 482 1304 443 1317 q 576 1283 544 1283 q 626 1292 603 1283 q 672 1318 649 1301 q 686 1324 681 1324 q 701 1308 697 1324 l 718 1236 q 719 1228 719 1233 q 703 1203 719 1215 z "},"F":{"ha":876,"x_min":97,"x_max":829,"o":"m 97 1004 q 119 1031 97 1031 l 808 1031 q 829 1007 829 1031 l 828 882 q 800 853 828 853 l 367 853 q 347 847 353 853 q 340 831 340 842 l 340 615 q 361 593 340 593 l 663 593 q 685 571 685 593 l 685 439 q 664 419 685 419 l 360 419 q 340 401 340 419 l 340 32 q 332 7 340 14 q 304 0 324 0 l 128 0 q 104 7 111 0 q 97 29 97 14 l 97 1004 z "},"G":{"ha":1044,"x_min":61,"x_max":972,"o":"m 525 -14 q 280 51 385 -14 q 118 235 175 117 q 61 511 61 354 q 121 793 61 672 q 289 979 181 914 q 539 1044 397 1044 q 737 1003 647 1044 q 883 894 826 961 q 953 750 939 826 q 956 729 956 742 q 938 713 956 714 l 754 685 q 739 690 743 685 q 732 707 735 694 q 667 826 718 779 q 533 874 615 874 q 371 789 426 874 q 315 519 315 704 q 374 242 315 326 q 542 157 432 157 q 675 202 625 157 q 740 315 725 247 l 743 356 q 744 364 744 358 q 729 376 744 376 l 561 376 q 544 382 550 376 q 539 400 539 388 l 539 504 q 561 524 539 524 l 932 522 q 962 513 951 522 q 972 489 972 504 l 972 21 q 967 6 972 11 q 951 0 961 0 l 907 0 q 871 22 883 0 l 831 122 q 817 121 826 132 q 701 24 768 61 q 525 -14 633 -14 z "},"Ǵ":{"ha":1044,"x_min":61,"x_max":972,"o":"m 525 -14 q 280 51 385 -14 q 118 235 175 117 q 61 511 61 354 q 121 793 61 672 q 289 979 181 914 q 539 1044 397 1044 q 737 1003 647 1044 q 883 894 826 961 q 953 750 939 826 q 956 729 956 742 q 938 713 956 714 l 754 685 q 739 690 743 685 q 732 707 735 694 q 667 826 718 779 q 533 874 615 874 q 371 789 426 874 q 315 519 315 704 q 374 242 315 326 q 542 157 432 157 q 675 202 625 157 q 740 315 725 247 l 743 356 q 744 364 744 358 q 729 376 744 376 l 561 376 q 544 382 550 376 q 539 400 539 388 l 539 504 q 561 524 539 524 l 932 522 q 962 513 951 522 q 972 489 972 504 l 972 21 q 967 6 972 11 q 951 0 961 0 l 907 0 q 871 22 883 0 l 831 122 q 817 121 826 132 q 701 24 768 61 q 525 -14 633 -14 m 724 1232 q 726 1218 726 1224 q 703 1194 726 1203 l 382 1108 q 369 1107 376 1107 q 357 1110 361 1107 q 349 1124 353 1114 l 332 1172 l 329 1183 q 340 1200 329 1196 l 668 1338 q 675 1339 671 1339 q 692 1325 688 1339 l 724 1232 z "},"Ğ":{"ha":1044,"x_min":61,"x_max":972,"o":"m 525 -14 q 280 51 385 -14 q 118 235 175 117 q 61 511 61 354 q 121 793 61 672 q 289 979 181 914 q 539 1044 397 1044 q 737 1003 647 1044 q 883 894 826 961 q 953 750 939 826 q 956 729 956 742 q 938 713 956 714 l 754 685 q 739 690 743 685 q 732 707 735 694 q 667 826 718 779 q 533 874 615 874 q 371 789 426 874 q 315 519 315 704 q 374 242 315 326 q 542 157 432 157 q 675 202 625 157 q 740 315 725 247 l 743 356 q 744 364 744 358 q 729 376 744 376 l 561 376 q 544 382 550 376 q 539 400 539 388 l 539 504 q 561 524 539 524 l 932 522 q 962 513 951 522 q 972 489 972 504 l 972 21 q 967 6 972 11 q 951 0 961 0 l 907 0 q 871 22 883 0 l 831 122 q 817 121 826 132 q 701 24 768 61 q 525 -14 633 -14 m 757 1325 q 773 1320 769 1325 q 774 1304 776 1315 q 683 1184 750 1228 q 526 1140 617 1140 q 372 1183 438 1140 q 281 1306 306 1226 l 279 1313 q 293 1325 279 1325 l 383 1325 q 399 1322 393 1325 q 413 1308 406 1318 q 460 1264 429 1282 q 526 1246 490 1246 q 593 1264 561 1246 q 643 1310 625 1282 q 653 1322 649 1319 q 667 1325 658 1325 l 757 1325 z "},"Ĝ":{"ha":1044,"x_min":61,"x_max":972,"o":"m 525 -14 q 280 51 385 -14 q 118 235 175 117 q 61 511 61 354 q 121 793 61 672 q 289 979 181 914 q 539 1044 397 1044 q 737 1003 647 1044 q 883 894 826 961 q 953 750 939 826 q 956 729 956 742 q 938 713 956 714 l 754 685 q 739 690 743 685 q 732 707 735 694 q 667 826 718 779 q 533 874 615 874 q 371 789 426 874 q 315 519 315 704 q 374 242 315 326 q 542 157 432 157 q 675 202 625 157 q 740 315 725 247 l 743 356 q 744 364 744 358 q 729 376 744 376 l 561 376 q 544 382 550 376 q 539 400 539 388 l 539 504 q 561 524 539 524 l 932 522 q 962 513 951 522 q 972 489 972 504 l 972 21 q 967 6 972 11 q 951 0 961 0 l 907 0 q 871 22 883 0 l 831 122 q 817 121 826 132 q 701 24 768 61 q 525 -14 633 -14 m 546 1225 q 535 1237 540 1232 q 525 1242 529 1242 q 504 1225 518 1242 l 435 1151 q 421 1142 426 1143 q 403 1140 415 1140 l 290 1140 q 278 1147 278 1140 q 286 1163 278 1154 l 436 1318 q 456 1332 447 1328 q 482 1336 465 1336 l 582 1336 q 601 1332 594 1336 q 617 1319 608 1328 l 765 1163 q 776 1146 776 1151 q 763 1140 776 1140 l 643 1140 q 610 1151 621 1140 l 546 1225 z "},"Ģ":{"ha":1044,"x_min":61,"x_max":972,"o":"m 525 -14 q 280 51 385 -14 q 118 235 175 117 q 61 511 61 354 q 121 793 61 672 q 289 979 181 914 q 539 1044 397 1044 q 737 1003 647 1044 q 883 894 826 961 q 953 750 939 826 q 956 729 956 742 q 938 713 956 714 l 754 685 q 739 690 743 685 q 732 707 735 694 q 667 826 718 779 q 533 874 615 874 q 371 789 426 874 q 315 519 315 704 q 374 242 315 326 q 542 157 432 157 q 675 202 625 157 q 740 315 725 247 l 743 356 q 744 364 744 358 q 729 376 744 376 l 561 376 q 544 382 550 376 q 539 400 539 388 l 539 504 q 561 524 539 524 l 932 522 q 962 513 951 522 q 972 489 972 504 l 972 21 q 967 6 972 11 q 951 0 961 0 l 907 0 q 871 22 883 0 l 831 122 q 817 121 826 132 q 701 24 768 61 q 525 -14 633 -14 m 475 -337 q 460 -330 465 -337 q 461 -315 456 -322 l 504 -249 q 510 -232 510 -242 q 493 -217 510 -217 l 481 -217 q 461 -210 467 -217 q 456 -190 456 -204 l 456 -104 q 476 -81 456 -81 l 586 -81 q 606 -100 606 -81 l 606 -217 q 601 -232 606 -219 l 536 -321 q 522 -334 529 -331 q 497 -337 514 -337 l 475 -337 z "},"Ġ":{"ha":1044,"x_min":61,"x_max":972,"o":"m 525 -14 q 280 51 385 -14 q 118 235 175 117 q 61 511 61 354 q 121 793 61 672 q 289 979 181 914 q 539 1044 397 1044 q 737 1003 647 1044 q 883 894 826 961 q 953 750 939 826 q 956 729 956 742 q 938 713 956 714 l 754 685 q 739 690 743 685 q 732 707 735 694 q 667 826 718 779 q 533 874 615 874 q 371 789 426 874 q 315 519 315 704 q 374 242 315 326 q 542 157 432 157 q 675 202 625 157 q 740 315 725 247 l 743 356 q 744 364 744 358 q 729 376 744 376 l 561 376 q 544 382 550 376 q 539 400 539 388 l 539 504 q 561 524 539 524 l 932 522 q 962 513 951 522 q 972 489 972 504 l 972 21 q 967 6 972 11 q 951 0 961 0 l 907 0 q 871 22 883 0 l 831 122 q 817 121 826 132 q 701 24 768 61 q 525 -14 633 -14 m 636 1153 q 627 1127 636 1135 q 599 1119 618 1119 l 449 1119 q 425 1126 432 1119 q 418 1150 418 1133 l 418 1299 q 440 1325 418 1325 l 614 1325 q 636 1300 636 1325 l 636 1153 z "},"H":{"ha":1043,"x_min":97,"x_max":947,"o":"m 358 440 q 345 435 350 440 q 340 422 340 429 l 340 32 q 331 8 340 15 q 303 0 322 0 l 128 0 q 104 7 111 0 q 97 29 97 14 l 97 1004 q 119 1031 97 1031 l 318 1031 q 340 1006 340 1031 l 340 650 q 361 626 340 626 l 682 626 q 704 649 704 626 l 704 1006 q 725 1031 704 1031 l 924 1031 q 947 1004 947 1031 l 947 29 q 917 0 947 0 l 740 0 q 713 7 721 0 q 704 32 704 14 l 704 422 q 699 435 704 431 q 685 440 694 440 l 358 440 z "},"Ħ":{"ha":1074,"x_min":1,"x_max":1071,"o":"m 1053 899 q 1071 876 1071 899 l 1071 808 q 1063 787 1071 793 q 1038 781 1056 781 l 971 781 l 971 29 q 964 7 971 14 q 940 0 957 0 l 764 0 q 736 7 744 0 q 728 32 728 14 l 728 422 q 723 435 728 429 q 710 440 718 440 l 382 440 q 369 435 374 440 q 364 422 364 429 l 364 32 q 328 0 364 0 l 151 0 q 128 7 135 0 q 121 29 121 14 l 121 781 l 28 781 q 8 786 14 781 q 1 806 1 792 l 1 875 q 21 899 1 899 l 121 899 l 121 1004 q 127 1024 121 1017 q 143 1031 133 1031 l 343 1031 q 364 1006 364 1031 l 364 899 l 728 899 l 728 1006 q 733 1024 728 1017 q 749 1031 739 1031 l 949 1031 q 971 1004 971 1031 l 971 899 l 1053 899 m 728 781 l 364 781 l 364 650 q 386 626 364 626 l 707 626 q 728 649 728 626 l 728 781 z "},"Ĥ":{"ha":1043,"x_min":97,"x_max":947,"o":"m 358 440 q 345 435 350 440 q 340 422 340 429 l 340 32 q 331 8 340 15 q 303 0 322 0 l 128 0 q 104 7 111 0 q 97 29 97 14 l 97 1004 q 119 1031 97 1031 l 318 1031 q 340 1006 340 1031 l 340 650 q 361 626 340 626 l 682 626 q 704 649 704 626 l 704 1006 q 725 1031 704 1031 l 924 1031 q 947 1004 947 1031 l 947 29 q 917 0 947 0 l 740 0 q 713 7 721 0 q 704 32 704 14 l 704 422 q 699 435 704 431 q 685 440 694 440 l 358 440 m 539 1225 q 528 1237 533 1232 q 518 1242 522 1242 q 497 1225 511 1242 l 428 1151 q 414 1142 419 1143 q 396 1140 408 1140 l 283 1140 q 271 1147 271 1140 q 279 1163 271 1154 l 429 1318 q 449 1332 440 1328 q 475 1336 458 1336 l 575 1336 q 594 1332 588 1336 q 610 1319 601 1328 l 758 1163 q 769 1146 769 1151 q 756 1140 769 1140 l 636 1140 q 603 1151 614 1140 l 539 1225 z "},"Ḥ":{"ha":1043,"x_min":97,"x_max":947,"o":"m 358 440 q 345 435 350 440 q 340 422 340 429 l 340 32 q 331 8 340 15 q 303 0 322 0 l 128 0 q 104 7 111 0 q 97 29 97 14 l 97 1004 q 119 1031 97 1031 l 318 1031 q 340 1006 340 1031 l 340 650 q 361 626 340 626 l 682 626 q 704 649 704 626 l 704 1006 q 725 1031 704 1031 l 924 1031 q 947 1004 947 1031 l 947 29 q 917 0 947 0 l 740 0 q 713 7 721 0 q 704 32 704 14 l 704 422 q 699 435 704 431 q 685 440 694 440 l 358 440 m 601 -203 q 595 -223 601 -217 q 574 -229 589 -229 l 458 -229 q 440 -224 444 -229 q 435 -207 435 -218 l 435 -85 q 438 -69 435 -74 q 451 -64 442 -64 l 586 -64 q 601 -83 601 -64 l 601 -203 z "},"I":{"ha":438,"x_min":97,"x_max":340,"o":"m 318 1031 q 340 1006 340 1031 l 340 33 q 332 8 340 15 q 303 0 324 0 l 128 0 q 104 7 111 0 q 97 29 97 14 l 97 1004 q 119 1031 97 1031 l 318 1031 z "},"Ĳ":{"ha":1058,"x_min":97,"x_max":968,"o":"m 318 1031 q 340 1006 340 1031 l 340 33 q 332 8 340 15 q 303 0 324 0 l 128 0 q 104 7 111 0 q 97 29 97 14 l 97 1004 q 119 1031 97 1031 l 318 1031 m 968 267 q 898 53 968 119 q 681 -14 828 -14 q 605 -8 640 -14 q 515 8 569 -3 q 490 22 497 11 q 483 54 482 33 l 496 179 q 522 204 499 208 q 556 194 531 201 q 614 186 581 186 q 698 218 671 186 q 725 326 725 250 l 725 1004 q 731 1024 725 1017 q 749 1031 738 1031 l 947 1031 q 968 1006 968 1031 l 968 267 z "},"Í":{"ha":438,"x_min":21,"x_max":418,"o":"m 318 1031 q 340 1006 340 1031 l 340 33 q 332 8 340 15 q 303 0 324 0 l 128 0 q 104 7 111 0 q 97 29 97 14 l 97 1004 q 119 1031 97 1031 l 318 1031 m 415 1232 q 418 1218 418 1224 q 394 1194 418 1203 l 74 1108 q 61 1107 68 1107 q 49 1110 53 1107 q 40 1124 44 1114 l 24 1172 l 21 1183 q 32 1200 21 1196 l 360 1338 q 367 1339 363 1339 q 383 1325 379 1339 l 415 1232 z "},"Ĭ":{"ha":438,"x_min":-28,"x_max":469,"o":"m 318 1031 q 340 1006 340 1031 l 340 33 q 332 8 340 15 q 303 0 324 0 l 128 0 q 104 7 111 0 q 97 29 97 14 l 97 1004 q 119 1031 97 1031 l 318 1031 m 450 1325 q 466 1320 463 1325 q 467 1304 469 1315 q 376 1184 443 1228 q 219 1140 310 1140 q 65 1183 131 1140 q -26 1306 -1 1226 l -28 1313 q -14 1325 -28 1325 l 76 1325 q 92 1322 86 1325 q 106 1308 99 1318 q 153 1264 122 1282 q 219 1246 183 1246 q 286 1264 254 1246 q 336 1310 318 1282 q 347 1322 342 1319 q 360 1325 351 1325 l 450 1325 z "},"Î":{"ha":438,"x_min":-29,"x_max":469,"o":"m 318 1031 q 340 1006 340 1031 l 340 33 q 332 8 340 15 q 303 0 324 0 l 128 0 q 104 7 111 0 q 97 29 97 14 l 97 1004 q 119 1031 97 1031 l 318 1031 m 239 1225 q 228 1237 233 1232 q 218 1242 222 1242 q 197 1225 211 1242 l 128 1151 q 114 1142 119 1143 q 96 1140 108 1140 l -17 1140 q -29 1147 -29 1140 q -21 1163 -29 1154 l 129 1318 q 149 1332 140 1328 q 175 1336 158 1336 l 275 1336 q 294 1332 288 1336 q 310 1319 301 1328 l 458 1163 q 469 1146 469 1151 q 456 1140 469 1140 l 336 1140 q 303 1151 314 1140 l 239 1225 z "},"Ȉ":{"ha":438,"x_min":-49,"x_max":400,"o":"m 318 1031 q 340 1006 340 1031 l 340 33 q 332 8 340 15 q 303 0 324 0 l 128 0 q 104 7 111 0 q 97 29 97 14 l 97 1004 q 119 1031 97 1031 l 318 1031 m 394 1160 q 400 1147 400 1154 q 392 1131 400 1139 l 356 1090 q 340 1082 347 1082 q 318 1090 332 1082 l 239 1143 q 231 1131 236 1138 l 194 1090 q 179 1082 186 1082 q 158 1090 171 1082 l -33 1217 q -49 1238 -49 1226 q -39 1260 -49 1247 l 21 1331 q 36 1339 28 1339 q 49 1333 43 1339 l 124 1263 l 182 1331 q 196 1339 188 1339 q 208 1333 203 1339 l 394 1160 z "},"Ï":{"ha":438,"x_min":-17,"x_max":454,"o":"m 318 1031 q 340 1006 340 1031 l 340 33 q 332 8 340 15 q 303 0 324 0 l 128 0 q 104 7 111 0 q 97 29 97 14 l 97 1004 q 119 1031 97 1031 l 318 1031 m 172 1172 q 165 1151 172 1157 q 139 1144 157 1144 l 10 1144 q -11 1151 -6 1144 q -17 1169 -17 1157 l -17 1301 q 3 1325 -17 1325 l 153 1325 q 172 1303 172 1325 l 172 1172 m 454 1172 q 447 1151 454 1157 q 421 1144 439 1144 l 292 1144 q 271 1151 276 1144 q 265 1169 265 1157 l 265 1301 q 285 1325 265 1325 l 435 1325 q 454 1303 454 1325 l 454 1172 z "},"İ":{"ha":438,"x_min":97,"x_max":340,"o":"m 318 1031 q 340 1006 340 1031 l 340 33 q 332 8 340 15 q 303 0 324 0 l 128 0 q 104 7 111 0 q 97 29 97 14 l 97 1004 q 119 1031 97 1031 l 318 1031 m 329 1153 q 320 1127 329 1135 q 292 1119 311 1119 l 142 1119 q 118 1126 125 1119 q 111 1150 111 1133 l 111 1299 q 133 1325 111 1325 l 307 1325 q 329 1300 329 1325 l 329 1153 z "},"Ị":{"ha":438,"x_min":97,"x_max":340,"o":"m 318 1031 q 340 1006 340 1031 l 340 33 q 332 8 340 15 q 303 0 324 0 l 128 0 q 104 7 111 0 q 97 29 97 14 l 97 1004 q 119 1031 97 1031 l 318 1031 m 301 -203 q 295 -223 301 -217 q 274 -229 289 -229 l 158 -229 q 140 -224 144 -229 q 135 -207 135 -218 l 135 -85 q 138 -69 135 -74 q 151 -64 142 -64 l 286 -64 q 301 -83 301 -64 l 301 -203 z "},"Ì":{"ha":438,"x_min":14,"x_max":411,"o":"m 318 1031 q 340 1006 340 1031 l 340 33 q 332 8 340 15 q 303 0 324 0 l 128 0 q 104 7 111 0 q 97 29 97 14 l 97 1004 q 119 1031 97 1031 l 318 1031 m 49 1325 q 58 1337 51 1333 q 74 1338 65 1340 l 400 1200 q 411 1183 411 1196 q 408 1172 411 1176 l 392 1124 q 372 1107 386 1107 q 360 1108 364 1107 l 38 1194 q 14 1218 14 1203 q 17 1232 14 1224 l 49 1325 z "},"Ȋ":{"ha":438,"x_min":-29,"x_max":468,"o":"m 318 1031 q 340 1006 340 1031 l 340 33 q 332 8 340 15 q 303 0 324 0 l 128 0 q 104 7 111 0 q 97 29 97 14 l 97 1004 q 119 1031 97 1031 l 318 1031 m 360 1144 q 347 1147 351 1144 q 336 1160 342 1150 q 286 1206 318 1188 q 219 1224 254 1224 q 153 1206 183 1224 q 104 1161 122 1188 q 93 1148 99 1151 q 76 1144 88 1144 l -14 1144 q -26 1150 -22 1144 q -26 1163 -29 1156 q 65 1285 -1 1242 q 219 1328 131 1328 q 376 1285 310 1328 q 467 1165 442 1242 l 468 1157 q 450 1144 468 1144 l 360 1144 z "},"Ī":{"ha":438,"x_min":-33,"x_max":474,"o":"m 318 1031 q 340 1006 340 1031 l 340 33 q 332 8 340 15 q 303 0 324 0 l 128 0 q 104 7 111 0 q 97 29 97 14 l 97 1004 q 119 1031 97 1031 l 318 1031 m 474 1207 q 442 1181 474 1181 l -8 1181 q -28 1187 -22 1181 q -33 1206 -33 1193 l -33 1294 q -15 1317 -33 1317 l 456 1317 q 469 1311 464 1317 q 474 1297 474 1306 l 474 1207 z "},"Į":{"ha":438,"x_min":43,"x_max":350,"o":"m 329 -121 q 342 -117 338 -117 q 350 -132 350 -117 l 350 -192 q 339 -212 350 -207 q 281 -232 319 -224 q 200 -240 242 -240 q 85 -210 126 -240 q 43 -122 43 -179 q 67 -54 43 -83 q 154 0 92 -25 l 128 0 q 104 7 111 0 q 97 29 97 14 l 97 1004 q 119 1031 97 1031 l 318 1031 q 340 1006 340 1031 l 340 33 q 333 10 340 17 q 311 0 326 3 q 222 -46 247 -24 q 197 -96 197 -68 q 249 -142 197 -142 q 329 -121 285 -142 z "},"Ĩ":{"ha":438,"x_min":-21,"x_max":469,"o":"m 318 1031 q 340 1006 340 1031 l 340 33 q 332 8 340 15 q 303 0 324 0 l 128 0 q 104 7 111 0 q 97 29 97 14 l 97 1004 q 119 1031 97 1031 l 318 1031 m 453 1203 q 326 1165 399 1165 q 277 1170 300 1165 q 219 1186 254 1175 q 166 1201 188 1196 q 121 1206 144 1206 q 74 1199 93 1206 q 28 1174 54 1192 q 14 1167 18 1167 q 1 1183 6 1167 l -18 1243 q -21 1257 -21 1251 q -10 1276 -21 1265 q 47 1315 19 1301 q 114 1328 74 1328 q 167 1322 142 1328 q 232 1304 193 1317 q 326 1283 294 1283 q 376 1292 353 1283 q 422 1318 399 1301 q 436 1324 431 1324 q 451 1308 447 1324 l 468 1236 q 469 1228 469 1233 q 453 1203 469 1215 z "},"J":{"ha":621,"x_min":44,"x_max":531,"o":"m 531 267 q 460 53 531 119 q 243 -14 390 -14 q 167 -8 203 -14 q 78 8 132 -3 q 52 22 60 11 q 46 54 44 33 l 58 179 q 85 204 61 208 q 118 194 93 201 q 176 186 143 186 q 260 218 233 186 q 288 326 288 250 l 288 1004 q 294 1024 288 1017 q 311 1031 300 1031 l 510 1031 q 531 1006 531 1031 l 531 267 z "},"Ĵ":{"ha":621,"x_min":44,"x_max":596,"o":"m 531 267 q 460 53 531 119 q 243 -14 390 -14 q 167 -8 203 -14 q 78 8 132 -3 q 52 22 60 11 q 46 54 44 33 l 58 179 q 85 204 61 208 q 118 194 93 201 q 176 186 143 186 q 260 218 233 186 q 288 326 288 250 l 288 1004 q 294 1024 288 1017 q 311 1031 300 1031 l 510 1031 q 531 1006 531 1031 l 531 267 m 365 1225 q 354 1237 360 1232 q 344 1242 349 1242 q 324 1225 338 1242 l 254 1151 q 240 1142 246 1143 q 222 1140 235 1140 l 110 1140 q 97 1147 97 1140 q 106 1163 97 1154 l 256 1318 q 276 1332 267 1328 q 301 1336 285 1336 l 401 1336 q 421 1332 414 1336 q 436 1319 428 1328 l 585 1163 q 596 1146 596 1151 q 582 1140 596 1140 l 463 1140 q 429 1151 440 1140 l 365 1225 z "},"K":{"ha":1033,"x_min":97,"x_max":990,"o":"m 986 33 q 990 17 990 25 q 971 0 990 0 l 763 0 q 722 22 733 0 l 499 458 q 489 467 494 467 q 472 453 483 467 l 349 306 q 340 276 340 296 l 340 32 q 331 8 340 15 q 303 0 322 0 l 128 0 q 104 6 111 0 q 97 28 97 13 l 97 1004 q 119 1031 97 1031 l 319 1031 q 340 1007 340 1031 l 340 592 q 346 578 340 578 q 357 586 350 578 l 693 1008 q 711 1026 701 1021 q 740 1031 721 1031 l 906 1031 q 926 1025 918 1031 q 933 1013 933 1019 q 928 999 933 1004 l 661 686 q 654 669 654 675 q 658 653 654 664 l 986 33 z "},"Ķ":{"ha":1033,"x_min":97,"x_max":990,"o":"m 986 33 q 990 17 990 25 q 971 0 990 0 l 763 0 q 722 22 733 0 l 499 458 q 489 467 494 467 q 472 453 483 467 l 349 306 q 340 276 340 296 l 340 32 q 331 8 340 15 q 303 0 322 0 l 128 0 q 104 6 111 0 q 97 28 97 13 l 97 1004 q 119 1031 97 1031 l 319 1031 q 340 1007 340 1031 l 340 592 q 346 578 340 578 q 357 586 350 578 l 693 1008 q 711 1026 701 1021 q 740 1031 721 1031 l 906 1031 q 926 1025 918 1031 q 933 1013 933 1019 q 928 999 933 1004 l 661 686 q 654 669 654 675 q 658 653 654 664 l 986 33 m 449 -337 q 434 -330 439 -337 q 435 -315 429 -322 l 478 -249 q 483 -232 483 -242 q 467 -217 483 -217 l 454 -217 q 435 -210 440 -217 q 429 -190 429 -204 l 429 -104 q 450 -81 429 -81 l 560 -81 q 579 -100 579 -81 l 579 -217 q 575 -232 579 -219 l 510 -321 q 495 -334 503 -331 q 471 -337 488 -337 l 449 -337 z "},"L":{"ha":871,"x_min":97,"x_max":824,"o":"m 97 1004 q 119 1031 97 1031 l 318 1031 q 340 1006 340 1031 l 340 196 q 344 182 340 186 q 356 178 347 178 l 799 178 q 824 157 824 178 l 824 25 q 817 7 824 14 q 797 0 810 0 l 128 0 q 104 7 111 0 q 97 29 97 14 l 97 1004 z "},"Ǉ":{"ha":1492,"x_min":97,"x_max":1401,"o":"m 97 1004 q 119 1031 97 1031 l 318 1031 q 340 1006 340 1031 l 340 196 q 344 182 340 186 q 356 178 347 178 l 799 178 q 824 157 824 178 l 824 25 q 817 7 824 14 q 797 0 810 0 l 128 0 q 104 7 111 0 q 97 29 97 14 l 97 1004 m 1401 267 q 1331 53 1401 119 q 1114 -14 1261 -14 q 1038 -8 1074 -14 q 949 8 1003 -3 q 923 22 931 11 q 917 54 915 33 l 929 179 q 956 204 932 208 q 989 194 964 201 q 1047 186 1014 186 q 1131 218 1104 186 q 1158 326 1158 250 l 1158 1004 q 1165 1024 1158 1017 q 1182 1031 1171 1031 l 1381 1031 q 1401 1006 1401 1031 l 1401 267 z "},"Ĺ":{"ha":871,"x_min":17,"x_max":824,"o":"m 97 1004 q 119 1031 97 1031 l 318 1031 q 340 1006 340 1031 l 340 196 q 344 182 340 186 q 356 178 347 178 l 799 178 q 824 157 824 178 l 824 25 q 817 7 824 14 q 797 0 810 0 l 128 0 q 104 7 111 0 q 97 29 97 14 l 97 1004 m 411 1232 q 414 1218 414 1224 q 390 1194 414 1203 l 69 1108 q 57 1107 64 1107 q 44 1110 49 1107 q 36 1124 40 1114 l 19 1172 l 17 1183 q 28 1200 17 1196 l 356 1338 q 363 1339 358 1339 q 379 1325 375 1339 l 411 1232 z "},"Ľ":{"ha":871,"x_min":97,"x_max":824,"o":"m 97 1004 q 119 1031 97 1031 l 318 1031 q 340 1006 340 1031 l 340 196 q 344 182 340 186 q 356 178 347 178 l 799 178 q 824 157 824 178 l 824 25 q 817 7 824 14 q 797 0 810 0 l 128 0 q 104 7 111 0 q 97 29 97 14 l 97 1004 m 588 717 q 576 722 579 717 q 575 735 572 728 l 618 839 q 621 853 621 844 q 610 864 621 863 l 596 865 q 580 872 585 867 q 575 886 575 876 l 575 1013 q 592 1031 575 1031 l 704 1031 q 719 1015 719 1031 l 719 865 q 718 859 719 861 q 717 854 717 857 l 665 735 q 655 721 663 725 q 631 717 647 717 l 588 717 z "},"Ļ":{"ha":871,"x_min":97,"x_max":824,"o":"m 97 1004 q 119 1031 97 1031 l 318 1031 q 340 1006 340 1031 l 340 196 q 344 182 340 186 q 356 178 347 178 l 799 178 q 824 157 824 178 l 824 25 q 817 7 824 14 q 797 0 810 0 l 128 0 q 104 7 111 0 q 97 29 97 14 l 97 1004 m 401 -337 q 387 -330 392 -337 q 388 -315 382 -322 l 431 -249 q 436 -232 436 -242 q 419 -217 436 -217 l 407 -217 q 388 -210 393 -217 q 382 -190 382 -204 l 382 -104 q 403 -81 382 -81 l 513 -81 q 532 -100 532 -81 l 532 -217 q 528 -232 532 -219 l 463 -321 q 448 -334 456 -331 q 424 -337 440 -337 l 401 -337 z "},"Ŀ":{"ha":856,"x_min":97,"x_max":824,"o":"m 97 1004 q 119 1031 97 1031 l 318 1031 q 340 1006 340 1031 l 340 196 q 344 182 340 186 q 356 178 347 178 l 799 178 q 824 157 824 178 l 824 25 q 817 7 824 14 q 797 0 810 0 l 128 0 q 104 7 111 0 q 97 29 97 14 l 97 1004 m 764 496 q 756 472 764 479 q 731 465 749 465 l 575 465 q 553 472 560 465 q 547 492 547 478 l 547 651 q 567 675 547 675 l 746 675 q 764 654 764 675 l 764 496 z "},"ǈ":{"ha":1239,"x_min":97,"x_max":1165,"o":"m 97 1004 q 119 1031 97 1031 l 318 1031 q 340 1006 340 1031 l 340 196 q 344 182 340 186 q 356 178 347 178 l 799 178 q 824 157 824 178 l 824 25 q 817 7 824 14 q 797 0 810 0 l 128 0 q 104 7 111 0 q 97 29 97 14 l 97 1004 m 1165 860 q 1157 833 1165 842 q 1128 825 1149 825 l 978 825 q 954 833 961 825 q 947 857 947 840 l 947 1003 q 953 1024 947 1017 q 971 1031 960 1031 l 1142 1031 q 1165 1004 1165 1031 l 1165 860 m 1163 8 q 1101 -176 1163 -115 q 910 -236 1040 -236 q 833 -231 850 -236 q 817 -208 817 -226 l 815 -99 q 822 -80 815 -89 q 838 -69 828 -71 l 896 -62 q 935 -42 922 -60 q 949 17 949 -25 l 949 710 q 955 729 949 722 q 972 736 961 736 l 1142 736 q 1163 713 1163 736 l 1163 8 z "},"Ł":{"ha":871,"x_min":4,"x_max":824,"o":"m 799 178 q 824 157 824 178 l 824 25 q 817 7 824 14 q 797 0 810 0 l 128 0 q 104 7 111 0 q 97 29 97 14 l 97 429 l 33 411 q 19 408 22 408 q 4 431 4 408 l 4 558 q 25 585 4 581 l 97 604 l 97 1004 q 119 1031 97 1031 l 318 1031 q 340 1006 340 1031 l 340 668 l 539 721 q 549 722 543 722 q 565 701 565 722 l 565 579 q 543 553 565 558 l 340 496 l 340 196 q 344 182 340 186 q 356 178 347 178 l 799 178 z "},"M":{"ha":1318,"x_min":97,"x_max":1221,"o":"m 126 0 q 105 8 113 0 q 97 32 97 17 l 97 1004 q 121 1031 97 1031 l 408 1031 q 431 1026 424 1031 q 442 1010 438 1022 l 651 428 q 661 417 656 417 q 671 428 667 417 l 871 999 q 901 1031 879 1031 l 1200 1031 q 1221 1006 1221 1031 l 1221 33 q 1213 8 1221 15 q 1186 0 1204 0 l 1007 0 q 984 6 990 0 q 978 28 978 13 l 978 719 q 974 729 978 729 q 965 718 969 729 l 722 22 q 693 0 715 0 l 578 0 q 547 22 553 0 l 307 708 q 299 719 303 719 q 293 707 293 719 l 293 25 q 288 5 293 10 q 268 0 283 0 l 126 0 z "},"N":{"ha":1054,"x_min":97,"x_max":957,"o":"m 939 1031 q 957 1010 957 1031 l 957 22 q 949 6 957 13 q 931 0 942 0 l 790 0 q 771 3 778 0 q 756 17 764 6 l 313 639 q 302 644 307 646 q 297 636 297 643 l 297 25 l 297 21 q 291 5 297 10 q 269 0 285 0 l 125 0 q 97 24 97 0 l 97 1004 q 122 1031 97 1031 l 290 1031 q 314 1027 307 1031 q 331 1010 321 1024 l 739 428 q 753 417 747 417 q 760 432 760 417 l 760 1006 q 785 1031 760 1031 l 939 1031 z "},"Ǌ":{"ha":1676,"x_min":97,"x_max":1585,"o":"m 939 1031 q 957 1010 957 1031 l 957 22 q 949 6 957 13 q 931 0 942 0 l 790 0 q 771 3 778 0 q 756 17 764 6 l 313 639 q 302 644 307 646 q 297 636 297 643 l 297 25 l 297 21 q 291 5 297 10 q 269 0 285 0 l 125 0 q 97 24 97 0 l 97 1004 q 122 1031 97 1031 l 290 1031 q 314 1027 307 1031 q 331 1010 321 1024 l 739 428 q 753 417 747 417 q 760 432 760 417 l 760 1006 q 785 1031 760 1031 l 939 1031 m 1585 267 q 1515 53 1585 119 q 1297 -14 1444 -14 q 1222 -8 1257 -14 q 1132 8 1186 -3 q 1106 22 1114 11 q 1100 54 1099 33 l 1113 179 q 1139 204 1115 208 q 1172 194 1147 201 q 1231 186 1197 186 q 1315 218 1288 186 q 1342 326 1342 250 l 1342 1004 q 1348 1024 1342 1017 q 1365 1031 1354 1031 l 1564 1031 q 1585 1006 1585 1031 l 1585 267 z "},"Ń":{"ha":1054,"x_min":97,"x_max":957,"o":"m 939 1031 q 957 1010 957 1031 l 957 22 q 949 6 957 13 q 931 0 942 0 l 790 0 q 771 3 778 0 q 756 17 764 6 l 313 639 q 302 644 307 646 q 297 636 297 643 l 297 25 l 297 21 q 291 5 297 10 q 269 0 285 0 l 125 0 q 97 24 97 0 l 97 1004 q 122 1031 97 1031 l 290 1031 q 314 1027 307 1031 q 331 1010 321 1024 l 739 428 q 753 417 747 417 q 760 432 760 417 l 760 1006 q 785 1031 760 1031 l 939 1031 m 731 1232 q 733 1218 733 1224 q 710 1194 733 1203 l 389 1108 q 376 1107 383 1107 q 364 1110 368 1107 q 356 1124 360 1114 l 339 1172 l 336 1183 q 347 1200 336 1196 l 675 1338 q 682 1339 678 1339 q 699 1325 694 1339 l 731 1232 z "},"Ň":{"ha":1054,"x_min":97,"x_max":957,"o":"m 939 1031 q 957 1010 957 1031 l 957 22 q 949 6 957 13 q 931 0 942 0 l 790 0 q 771 3 778 0 q 756 17 764 6 l 313 639 q 302 644 307 646 q 297 636 297 643 l 297 25 l 297 21 q 291 5 297 10 q 269 0 285 0 l 125 0 q 97 24 97 0 l 97 1004 q 122 1031 97 1031 l 290 1031 q 314 1027 307 1031 q 331 1010 321 1024 l 739 428 q 753 417 747 417 q 760 432 760 417 l 760 1006 q 785 1031 760 1031 l 939 1031 m 617 1315 q 650 1326 628 1326 l 769 1326 q 783 1321 783 1326 q 772 1304 783 1315 l 624 1147 q 608 1135 615 1139 q 589 1131 601 1131 l 489 1131 q 463 1135 472 1131 q 443 1149 454 1139 l 293 1304 q 285 1319 285 1313 q 297 1326 285 1326 l 410 1326 q 428 1325 422 1326 q 442 1315 433 1324 l 511 1242 q 533 1225 525 1225 q 545 1233 539 1225 q 553 1242 551 1240 l 617 1315 z "},"Ņ":{"ha":1054,"x_min":97,"x_max":957,"o":"m 939 1031 q 957 1010 957 1031 l 957 22 q 949 6 957 13 q 931 0 942 0 l 790 0 q 771 3 778 0 q 756 17 764 6 l 313 639 q 302 644 307 646 q 297 636 297 643 l 297 25 l 297 21 q 291 5 297 10 q 269 0 285 0 l 125 0 q 97 24 97 0 l 97 1004 q 122 1031 97 1031 l 290 1031 q 314 1027 307 1031 q 331 1010 321 1024 l 739 428 q 753 417 747 417 q 760 432 760 417 l 760 1006 q 785 1031 760 1031 l 939 1031 m 465 -337 q 451 -330 456 -337 q 451 -315 446 -322 l 494 -249 q 500 -232 500 -242 q 483 -217 500 -217 l 471 -217 q 451 -210 457 -217 q 446 -190 446 -204 l 446 -104 q 467 -81 446 -81 l 576 -81 q 596 -100 596 -81 l 596 -217 q 592 -232 596 -219 l 526 -321 q 512 -334 519 -331 q 488 -337 504 -337 l 465 -337 z "},"Ṅ":{"ha":1054,"x_min":97,"x_max":957,"o":"m 939 1031 q 957 1010 957 1031 l 957 22 q 949 6 957 13 q 931 0 942 0 l 790 0 q 771 3 778 0 q 756 17 764 6 l 313 639 q 302 644 307 646 q 297 636 297 643 l 297 25 l 297 21 q 291 5 297 10 q 269 0 285 0 l 125 0 q 97 24 97 0 l 97 1004 q 122 1031 97 1031 l 290 1031 q 314 1027 307 1031 q 331 1010 321 1024 l 739 428 q 753 417 747 417 q 760 432 760 417 l 760 1006 q 785 1031 760 1031 l 939 1031 m 643 1153 q 634 1127 643 1135 q 606 1119 625 1119 l 456 1119 q 432 1126 439 1119 q 425 1150 425 1133 l 425 1299 q 447 1325 425 1325 l 621 1325 q 643 1300 643 1325 l 643 1153 z "},"Ŋ":{"ha":1054,"x_min":97,"x_max":957,"o":"m 939 1031 q 957 1010 957 1031 l 957 28 q 888 -178 957 -112 q 676 -243 819 -243 q 515 -225 603 -243 q 490 -211 497 -222 q 483 -179 482 -200 l 493 -56 q 519 -32 496 -28 q 553 -39 526 -33 q 608 -44 581 -44 q 690 -17 661 -44 q 719 71 718 10 l 719 101 l 311 639 q 301 647 306 647 q 297 638 297 646 l 297 25 l 297 21 q 291 5 297 10 q 269 0 285 0 l 125 0 q 97 24 97 0 l 97 1004 q 122 1031 97 1031 l 292 1031 q 315 1027 307 1031 q 332 1010 322 1024 l 739 467 q 751 457 747 457 q 760 472 760 457 l 760 1006 q 785 1031 760 1031 l 939 1031 z "},"ǋ":{"ha":1424,"x_min":97,"x_max":1349,"o":"m 939 1031 q 957 1010 957 1031 l 957 22 q 949 6 957 13 q 931 0 942 0 l 790 0 q 771 3 778 0 q 756 17 764 6 l 313 639 q 302 644 307 646 q 297 636 297 643 l 297 25 l 297 21 q 291 5 297 10 q 269 0 285 0 l 125 0 q 97 24 97 0 l 97 1004 q 122 1031 97 1031 l 290 1031 q 314 1027 307 1031 q 331 1010 321 1024 l 739 428 q 753 417 747 417 q 760 432 760 417 l 760 1006 q 785 1031 760 1031 l 939 1031 m 1349 860 q 1340 833 1349 842 q 1311 825 1332 825 l 1161 825 q 1138 833 1144 825 q 1131 857 1131 840 l 1131 1003 q 1137 1024 1131 1017 q 1154 1031 1143 1031 l 1325 1031 q 1349 1004 1349 1031 l 1349 860 m 1346 8 q 1285 -176 1346 -115 q 1093 -236 1224 -236 q 1017 -231 1033 -236 q 1000 -208 1000 -226 l 999 -99 q 1005 -80 999 -89 q 1021 -69 1011 -71 l 1079 -62 q 1119 -42 1106 -60 q 1132 17 1132 -25 l 1132 710 q 1138 729 1132 722 q 1156 736 1144 736 l 1325 736 q 1346 713 1346 736 l 1346 8 z "},"Ñ":{"ha":1054,"x_min":97,"x_max":957,"o":"m 939 1031 q 957 1010 957 1031 l 957 22 q 949 6 957 13 q 931 0 942 0 l 790 0 q 771 3 778 0 q 756 17 764 6 l 313 639 q 302 644 307 646 q 297 636 297 643 l 297 25 l 297 21 q 291 5 297 10 q 269 0 285 0 l 125 0 q 97 24 97 0 l 97 1004 q 122 1031 97 1031 l 290 1031 q 314 1027 307 1031 q 331 1010 321 1024 l 739 428 q 753 417 747 417 q 760 432 760 417 l 760 1006 q 785 1031 760 1031 l 939 1031 m 767 1203 q 640 1165 713 1165 q 591 1170 614 1165 q 533 1186 568 1175 q 480 1201 501 1196 q 435 1206 458 1206 q 388 1199 407 1206 q 342 1174 368 1192 q 328 1167 332 1167 q 315 1183 319 1167 l 296 1243 q 293 1257 293 1251 q 304 1276 293 1265 q 360 1315 333 1301 q 428 1328 388 1328 q 481 1322 456 1328 q 546 1304 507 1317 q 640 1283 608 1283 q 690 1292 667 1283 q 736 1318 713 1301 q 750 1324 744 1324 q 765 1308 761 1324 l 782 1236 q 783 1228 783 1233 q 767 1203 783 1215 z "},"O":{"ha":1075,"x_min":63,"x_max":1013,"o":"m 539 -14 q 285 49 393 -14 q 120 231 178 113 q 63 511 63 349 q 121 795 63 675 q 287 980 179 915 q 539 1044 394 1044 q 789 980 682 1044 q 954 795 896 915 q 1013 513 1013 675 q 955 233 1013 351 q 790 50 897 114 q 539 -14 683 -14 m 539 157 q 706 240 654 157 q 758 510 758 324 q 705 788 758 700 q 539 875 651 875 q 370 788 424 875 q 317 510 317 700 q 369 240 317 324 q 539 157 422 157 z "},"Ó":{"ha":1075,"x_min":63,"x_max":1013,"o":"m 539 -14 q 285 49 393 -14 q 120 231 178 113 q 63 511 63 349 q 121 795 63 675 q 287 980 179 915 q 539 1044 394 1044 q 789 980 682 1044 q 954 795 896 915 q 1013 513 1013 675 q 955 233 1013 351 q 790 50 897 114 q 539 -14 683 -14 m 539 157 q 706 240 654 157 q 758 510 758 324 q 705 788 758 700 q 539 875 651 875 q 370 788 424 875 q 317 510 317 700 q 369 240 317 324 q 539 157 422 157 m 733 1232 q 736 1218 736 1224 q 713 1194 736 1203 l 392 1108 q 379 1107 386 1107 q 367 1110 371 1107 q 358 1124 363 1114 l 342 1172 l 339 1183 q 350 1200 339 1196 l 678 1338 q 685 1339 681 1339 q 701 1325 697 1339 l 733 1232 z "},"Ŏ":{"ha":1075,"x_min":63,"x_max":1013,"o":"m 539 -14 q 285 49 393 -14 q 120 231 178 113 q 63 511 63 349 q 121 795 63 675 q 287 980 179 915 q 539 1044 394 1044 q 789 980 682 1044 q 954 795 896 915 q 1013 513 1013 675 q 955 233 1013 351 q 790 50 897 114 q 539 -14 683 -14 m 539 157 q 706 240 654 157 q 758 510 758 324 q 705 788 758 700 q 539 875 651 875 q 370 788 424 875 q 317 510 317 700 q 369 240 317 324 q 539 157 422 157 m 768 1325 q 784 1320 781 1325 q 785 1304 788 1315 q 694 1184 761 1228 q 538 1140 628 1140 q 383 1183 449 1140 q 292 1306 317 1226 l 290 1313 q 304 1325 290 1325 l 394 1325 q 410 1322 404 1325 q 424 1308 417 1318 q 471 1264 440 1282 q 538 1246 501 1246 q 604 1264 572 1246 q 654 1310 636 1282 q 665 1322 660 1319 q 678 1325 669 1325 l 768 1325 z "},"Ô":{"ha":1075,"x_min":63,"x_max":1013,"o":"m 539 -14 q 285 49 393 -14 q 120 231 178 113 q 63 511 63 349 q 121 795 63 675 q 287 980 179 915 q 539 1044 394 1044 q 789 980 682 1044 q 954 795 896 915 q 1013 513 1013 675 q 955 233 1013 351 q 790 50 897 114 q 539 -14 683 -14 m 539 157 q 706 240 654 157 q 758 510 758 324 q 705 788 758 700 q 539 875 651 875 q 370 788 424 875 q 317 510 317 700 q 369 240 317 324 q 539 157 422 157 m 557 1225 q 546 1237 551 1232 q 536 1242 540 1242 q 515 1225 529 1242 l 446 1151 q 432 1142 438 1143 q 414 1140 426 1140 l 301 1140 q 289 1147 289 1140 q 297 1163 289 1154 l 447 1318 q 467 1332 458 1328 q 493 1336 476 1336 l 593 1336 q 613 1332 606 1336 q 628 1319 619 1328 l 776 1163 q 788 1146 788 1151 q 774 1140 788 1140 l 654 1140 q 621 1151 632 1140 l 557 1225 z "},"Ȍ":{"ha":1075,"x_min":63,"x_max":1013,"o":"m 539 -14 q 285 49 393 -14 q 120 231 178 113 q 63 511 63 349 q 121 795 63 675 q 287 980 179 915 q 539 1044 394 1044 q 789 980 682 1044 q 954 795 896 915 q 1013 513 1013 675 q 955 233 1013 351 q 790 50 897 114 q 539 -14 683 -14 m 539 157 q 706 240 654 157 q 758 510 758 324 q 705 788 758 700 q 539 875 651 875 q 370 788 424 875 q 317 510 317 700 q 369 240 317 324 q 539 157 422 157 m 711 1160 q 717 1147 717 1154 q 708 1131 717 1139 l 672 1090 q 657 1082 664 1082 q 635 1090 649 1082 l 556 1143 q 547 1131 553 1138 l 511 1090 q 496 1082 503 1082 q 475 1090 488 1082 l 283 1217 q 268 1238 268 1226 q 278 1260 268 1247 l 338 1331 q 353 1339 344 1339 q 365 1333 360 1339 l 440 1263 l 499 1331 q 513 1339 504 1339 q 525 1333 519 1339 l 711 1160 z "},"Ö":{"ha":1075,"x_min":63,"x_max":1013,"o":"m 539 -14 q 285 49 393 -14 q 120 231 178 113 q 63 511 63 349 q 121 795 63 675 q 287 980 179 915 q 539 1044 394 1044 q 789 980 682 1044 q 954 795 896 915 q 1013 513 1013 675 q 955 233 1013 351 q 790 50 897 114 q 539 -14 683 -14 m 539 157 q 706 240 654 157 q 758 510 758 324 q 705 788 758 700 q 539 875 651 875 q 370 788 424 875 q 317 510 317 700 q 369 240 317 324 q 539 157 422 157 m 490 1172 q 483 1151 490 1157 q 457 1144 475 1144 l 328 1144 q 307 1151 313 1144 q 301 1169 301 1157 l 301 1301 q 321 1325 301 1325 l 471 1325 q 490 1303 490 1325 l 490 1172 m 772 1172 q 765 1151 772 1157 q 739 1144 757 1144 l 610 1144 q 589 1151 594 1144 q 583 1169 583 1157 l 583 1301 q 603 1325 583 1325 l 753 1325 q 772 1303 772 1325 l 772 1172 z "},"Ọ":{"ha":1075,"x_min":63,"x_max":1013,"o":"m 539 -14 q 285 49 393 -14 q 120 231 178 113 q 63 511 63 349 q 121 795 63 675 q 287 980 179 915 q 539 1044 394 1044 q 789 980 682 1044 q 954 795 896 915 q 1013 513 1013 675 q 955 233 1013 351 q 790 50 897 114 q 539 -14 683 -14 m 539 157 q 706 240 654 157 q 758 510 758 324 q 705 788 758 700 q 539 875 651 875 q 370 788 424 875 q 317 510 317 700 q 369 240 317 324 q 539 157 422 157 m 624 -203 q 617 -223 624 -217 q 596 -229 611 -229 l 481 -229 q 462 -224 467 -229 q 457 -207 457 -218 l 457 -85 q 460 -69 457 -74 q 474 -64 464 -64 l 608 -64 q 624 -83 624 -64 l 624 -203 z "},"Ò":{"ha":1075,"x_min":63,"x_max":1013,"o":"m 539 -14 q 285 49 393 -14 q 120 231 178 113 q 63 511 63 349 q 121 795 63 675 q 287 980 179 915 q 539 1044 394 1044 q 789 980 682 1044 q 954 795 896 915 q 1013 513 1013 675 q 955 233 1013 351 q 790 50 897 114 q 539 -14 683 -14 m 539 157 q 706 240 654 157 q 758 510 758 324 q 705 788 758 700 q 539 875 651 875 q 370 788 424 875 q 317 510 317 700 q 369 240 317 324 q 539 157 422 157 m 367 1325 q 376 1337 369 1333 q 392 1338 383 1340 l 718 1200 q 729 1183 729 1196 q 726 1172 729 1176 l 710 1124 q 690 1107 704 1107 q 678 1108 682 1107 l 356 1194 q 332 1218 332 1203 q 335 1232 332 1224 l 367 1325 z "},"Ő":{"ha":1075,"x_min":63,"x_max":1013,"o":"m 539 -14 q 285 49 393 -14 q 120 231 178 113 q 63 511 63 349 q 121 795 63 675 q 287 980 179 915 q 539 1044 394 1044 q 789 980 682 1044 q 954 795 896 915 q 1013 513 1013 675 q 955 233 1013 351 q 790 50 897 114 q 539 -14 683 -14 m 539 157 q 706 240 654 157 q 758 510 758 324 q 705 788 758 700 q 539 875 651 875 q 370 788 424 875 q 317 510 317 700 q 369 240 317 324 q 539 157 422 157 m 771 1260 q 781 1238 781 1247 q 765 1217 781 1226 l 575 1090 q 553 1082 561 1082 q 538 1090 546 1082 l 501 1131 q 494 1143 494 1138 l 414 1090 q 393 1082 399 1082 q 378 1090 386 1082 l 342 1131 q 333 1147 333 1139 q 339 1160 333 1156 l 524 1333 q 536 1339 529 1339 q 551 1331 546 1339 l 608 1261 l 685 1333 q 697 1339 690 1339 q 711 1331 706 1339 l 771 1260 z "},"Ȏ":{"ha":1075,"x_min":63,"x_max":1013,"o":"m 539 -14 q 285 49 393 -14 q 120 231 178 113 q 63 511 63 349 q 121 795 63 675 q 287 980 179 915 q 539 1044 394 1044 q 789 980 682 1044 q 954 795 896 915 q 1013 513 1013 675 q 955 233 1013 351 q 790 50 897 114 q 539 -14 683 -14 m 539 157 q 706 240 654 157 q 758 510 758 324 q 705 788 758 700 q 539 875 651 875 q 370 788 424 875 q 317 510 317 700 q 369 240 317 324 q 539 157 422 157 m 678 1144 q 665 1147 669 1144 q 654 1160 660 1150 q 604 1206 636 1188 q 538 1224 572 1224 q 471 1206 501 1224 q 422 1161 440 1188 q 411 1148 417 1151 q 394 1144 406 1144 l 304 1144 q 292 1150 296 1144 q 292 1163 289 1156 q 383 1285 317 1242 q 538 1328 449 1328 q 694 1285 628 1328 q 785 1165 760 1242 l 786 1157 q 768 1144 786 1144 l 678 1144 z "},"Ō":{"ha":1075,"x_min":63,"x_max":1013,"o":"m 539 -14 q 285 49 393 -14 q 120 231 178 113 q 63 511 63 349 q 121 795 63 675 q 287 980 179 915 q 539 1044 394 1044 q 789 980 682 1044 q 954 795 896 915 q 1013 513 1013 675 q 955 233 1013 351 q 790 50 897 114 q 539 -14 683 -14 m 539 157 q 706 240 654 157 q 758 510 758 324 q 705 788 758 700 q 539 875 651 875 q 370 788 424 875 q 317 510 317 700 q 369 240 317 324 q 539 157 422 157 m 790 1207 q 758 1181 790 1181 l 308 1181 q 289 1187 294 1181 q 283 1206 283 1193 l 283 1294 q 301 1317 283 1317 l 772 1317 q 785 1311 781 1317 q 790 1297 790 1306 l 790 1207 z "},"Ǫ":{"ha":1075,"x_min":63,"x_max":1013,"o":"m 671 1 q 576 -46 603 -24 q 550 -96 550 -68 q 563 -131 550 -119 q 601 -142 575 -142 q 682 -121 643 -142 q 694 -118 688 -118 q 701 -122 700 -118 q 703 -133 703 -125 l 703 -193 q 692 -214 703 -208 q 633 -232 672 -224 q 553 -240 594 -240 q 438 -210 479 -240 q 396 -124 396 -181 q 415 -61 396 -89 q 482 -11 433 -33 q 257 66 351 0 q 113 246 163 132 q 63 511 63 360 q 121 795 63 675 q 287 980 179 915 q 539 1044 394 1044 q 789 980 682 1044 q 954 795 896 915 q 1013 513 1013 675 q 922 175 1013 308 q 671 1 832 42 m 317 510 q 369 240 317 324 q 539 157 422 157 q 706 240 654 157 q 758 510 758 324 q 705 788 758 700 q 539 875 651 875 q 370 788 424 875 q 317 510 317 700 z "},"Ø":{"ha":1061,"x_min":21,"x_max":1049,"o":"m 1042 969 q 1049 954 1049 963 q 1040 938 1049 946 l 932 825 q 1006 513 1006 694 q 948 233 1006 351 q 783 50 890 114 q 532 -14 676 -14 q 217 94 338 -14 l 132 6 q 107 -8 118 -8 q 82 6 94 -8 l 36 51 q 21 75 21 67 q 31 93 21 83 l 131 197 q 54 511 54 328 q 113 795 54 675 q 280 980 172 915 q 532 1044 388 1044 q 847 929 724 1044 l 942 1028 q 964 1039 953 1039 q 978 1033 972 1039 l 1042 969 m 311 510 q 326 390 311 436 l 699 783 q 532 875 647 875 q 364 788 417 875 q 311 510 311 700 m 750 510 q 735 631 750 578 l 364 240 q 532 158 415 158 q 699 241 647 158 q 750 510 750 324 z "},"Ǿ":{"ha":1061,"x_min":21,"x_max":1049,"o":"m 1042 969 q 1049 954 1049 963 q 1040 938 1049 946 l 932 825 q 1006 513 1006 694 q 948 233 1006 351 q 783 50 890 114 q 532 -14 676 -14 q 217 94 338 -14 l 132 6 q 107 -8 118 -8 q 82 6 94 -8 l 36 51 q 21 75 21 67 q 31 93 21 83 l 131 197 q 54 511 54 328 q 113 795 54 675 q 280 980 172 915 q 532 1044 388 1044 q 847 929 724 1044 l 942 1028 q 964 1039 953 1039 q 978 1033 972 1039 l 1042 969 m 311 510 q 326 390 311 436 l 699 783 q 532 875 647 875 q 364 788 417 875 q 311 510 311 700 m 750 510 q 735 631 750 578 l 364 240 q 532 158 415 158 q 699 241 647 158 q 750 510 750 324 m 726 1232 q 729 1218 729 1224 q 706 1194 729 1203 l 385 1108 q 372 1107 379 1107 q 360 1110 364 1107 q 351 1124 356 1114 l 335 1172 l 332 1183 q 343 1200 332 1196 l 671 1338 q 678 1339 674 1339 q 694 1325 690 1339 l 726 1232 z "},"Õ":{"ha":1075,"x_min":63,"x_max":1013,"o":"m 539 -14 q 285 49 393 -14 q 120 231 178 113 q 63 511 63 349 q 121 795 63 675 q 287 980 179 915 q 539 1044 394 1044 q 789 980 682 1044 q 954 795 896 915 q 1013 513 1013 675 q 955 233 1013 351 q 790 50 897 114 q 539 -14 683 -14 m 539 157 q 706 240 654 157 q 758 510 758 324 q 705 788 758 700 q 539 875 651 875 q 370 788 424 875 q 317 510 317 700 q 369 240 317 324 q 539 157 422 157 m 771 1203 q 644 1165 717 1165 q 595 1170 618 1165 q 538 1186 572 1175 q 484 1201 506 1196 q 439 1206 463 1206 q 392 1199 411 1206 q 346 1174 372 1192 q 332 1167 336 1167 q 319 1183 324 1167 l 300 1243 q 297 1257 297 1251 q 308 1276 297 1265 q 365 1315 338 1301 q 432 1328 392 1328 q 485 1322 460 1328 q 550 1304 511 1317 q 644 1283 613 1283 q 694 1292 671 1283 q 740 1318 717 1301 q 754 1324 749 1324 q 769 1308 765 1324 l 786 1236 q 788 1228 788 1233 q 771 1203 788 1215 z "},"Œ":{"ha":1567,"x_min":63,"x_max":1513,"o":"m 1488 178 q 1507 174 1501 178 q 1513 157 1513 169 l 1513 25 q 1486 0 1513 0 l 865 0 q 842 4 850 0 l 792 56 q 550 -14 703 -14 q 289 49 399 -14 q 121 231 179 113 q 63 511 63 349 q 122 795 63 675 q 294 980 182 915 q 563 1044 407 1044 q 792 974 711 1044 l 832 1026 q 857 1031 843 1031 l 1478 1031 q 1499 1007 1499 1031 l 1497 882 q 1468 853 1497 853 l 1028 853 q 1001 831 1001 853 l 1001 629 q 1008 612 1001 618 q 1024 606 1014 606 l 1313 606 q 1336 583 1336 606 l 1336 450 q 1315 431 1336 431 l 1021 431 q 1001 414 1001 431 l 1001 196 q 1005 182 1001 186 q 1017 178 1008 178 l 1488 178 m 539 157 q 706 240 654 157 q 757 510 757 324 q 704 788 757 700 q 539 875 651 875 q 370 788 424 875 q 317 510 317 700 q 369 240 317 324 q 539 157 422 157 z "},"P":{"ha":993,"x_min":97,"x_max":940,"o":"m 940 710 q 837 477 940 560 q 564 394 733 394 l 356 394 q 340 379 340 394 l 340 32 q 304 0 340 0 l 126 0 q 103 7 110 0 q 97 28 97 14 l 97 1004 q 119 1031 97 1031 l 536 1031 q 742 995 651 1031 q 887 888 833 960 q 940 710 940 815 m 690 714 q 644 821 690 785 q 521 857 599 857 l 367 857 q 347 851 353 857 q 340 832 340 846 l 340 594 q 344 574 340 581 q 360 568 349 568 l 531 568 q 647 607 604 568 q 690 714 690 646 z "},"Þ":{"ha":1006,"x_min":97,"x_max":953,"o":"m 953 524 q 849 295 953 376 q 576 214 746 214 l 356 214 q 340 199 340 214 l 340 32 q 304 0 340 0 l 126 0 q 103 7 110 0 q 97 28 97 14 l 97 1004 q 119 1031 97 1031 l 318 1031 q 340 1006 340 1031 l 340 847 q 353 833 340 833 l 549 833 q 840 754 726 833 q 953 524 953 675 m 704 526 q 658 624 704 590 q 535 658 611 658 l 367 658 q 347 653 353 658 q 340 635 340 647 l 340 414 q 344 394 340 400 q 360 388 349 388 l 543 388 q 661 424 618 388 q 704 526 704 461 z "},"Q":{"ha":1076,"x_min":63,"x_max":1014,"o":"m 63 513 q 121 795 63 675 q 287 980 179 915 q 539 1044 394 1044 q 790 980 682 1044 q 956 795 897 915 q 1014 513 1014 675 q 849 94 1014 233 q 844 83 844 92 q 891 34 844 63 q 990 -3 938 6 q 1010 -22 1010 -4 l 1010 -139 q 999 -167 1010 -160 q 958 -175 988 -175 q 661 -12 786 -175 q 640 -7 654 -3 q 539 -14 585 -14 q 285 49 393 -14 q 120 231 178 113 q 63 513 63 350 m 317 510 q 369 240 317 324 q 539 157 422 157 q 706 240 653 157 q 760 511 760 324 q 706 787 760 699 q 539 875 653 875 q 370 787 424 875 q 317 510 317 699 z "},"R":{"ha":1003,"x_min":97,"x_max":946,"o":"m 933 38 q 936 25 936 29 q 929 7 936 14 q 913 0 922 0 l 708 0 q 678 25 685 0 l 528 414 q 515 429 524 425 q 489 433 507 433 l 357 433 q 344 428 349 433 q 340 418 340 424 l 340 33 q 331 8 340 15 q 303 0 322 0 l 126 0 q 103 7 110 0 q 97 28 97 14 l 97 1004 q 119 1031 97 1031 l 553 1031 q 843 957 740 1031 q 946 747 946 883 q 892 574 946 646 q 756 474 838 503 q 750 453 744 469 l 933 38 m 531 597 q 653 631 611 597 q 694 731 694 665 q 652 833 694 797 q 538 868 610 868 l 367 868 q 346 863 351 868 q 340 846 340 858 l 340 621 q 344 603 340 608 q 360 597 349 597 l 531 597 z "},"Ŕ":{"ha":1003,"x_min":97,"x_max":946,"o":"m 933 38 q 936 25 936 29 q 929 7 936 14 q 913 0 922 0 l 708 0 q 678 25 685 0 l 528 414 q 515 429 524 425 q 489 433 507 433 l 357 433 q 344 428 349 433 q 340 418 340 424 l 340 33 q 331 8 340 15 q 303 0 322 0 l 126 0 q 103 7 110 0 q 97 28 97 14 l 97 1004 q 119 1031 97 1031 l 553 1031 q 843 957 740 1031 q 946 747 946 883 q 892 574 946 646 q 756 474 838 503 q 750 453 744 469 l 933 38 m 531 597 q 653 631 611 597 q 694 731 694 665 q 652 833 694 797 q 538 868 610 868 l 367 868 q 346 863 351 868 q 340 846 340 858 l 340 621 q 344 603 340 608 q 360 597 349 597 l 531 597 m 683 1232 q 686 1218 686 1224 q 663 1194 686 1203 l 342 1108 q 329 1107 336 1107 q 317 1110 321 1107 q 308 1124 313 1114 l 292 1172 l 289 1183 q 300 1200 289 1196 l 628 1338 q 635 1339 631 1339 q 651 1325 647 1339 l 683 1232 z "},"Ř":{"ha":1003,"x_min":97,"x_max":946,"o":"m 933 38 q 936 25 936 29 q 929 7 936 14 q 913 0 922 0 l 708 0 q 678 25 685 0 l 528 414 q 515 429 524 425 q 489 433 507 433 l 357 433 q 344 428 349 433 q 340 418 340 424 l 340 33 q 331 8 340 15 q 303 0 322 0 l 126 0 q 103 7 110 0 q 97 28 97 14 l 97 1004 q 119 1031 97 1031 l 553 1031 q 843 957 740 1031 q 946 747 946 883 q 892 574 946 646 q 756 474 838 503 q 750 453 744 469 l 933 38 m 531 597 q 653 631 611 597 q 694 731 694 665 q 652 833 694 797 q 538 868 610 868 l 367 868 q 346 863 351 868 q 340 846 340 858 l 340 621 q 344 603 340 608 q 360 597 349 597 l 531 597 m 569 1315 q 603 1326 581 1326 l 722 1326 q 736 1321 736 1326 q 725 1304 736 1315 l 576 1147 q 561 1135 568 1139 q 542 1131 554 1131 l 442 1131 q 416 1135 425 1131 q 396 1149 407 1139 l 246 1304 q 238 1319 238 1313 q 250 1326 238 1326 l 363 1326 q 381 1325 375 1326 q 394 1315 386 1324 l 464 1242 q 486 1225 478 1225 q 498 1233 492 1225 q 506 1242 504 1240 l 569 1315 z "},"Ŗ":{"ha":1003,"x_min":97,"x_max":946,"o":"m 933 38 q 936 25 936 29 q 929 7 936 14 q 913 0 922 0 l 708 0 q 678 25 685 0 l 528 414 q 515 429 524 425 q 489 433 507 433 l 357 433 q 344 428 349 433 q 340 418 340 424 l 340 33 q 331 8 340 15 q 303 0 322 0 l 126 0 q 103 7 110 0 q 97 28 97 14 l 97 1004 q 119 1031 97 1031 l 553 1031 q 843 957 740 1031 q 946 747 946 883 q 892 574 946 646 q 756 474 838 503 q 750 453 744 469 l 933 38 m 531 597 q 653 631 611 597 q 694 731 694 665 q 652 833 694 797 q 538 868 610 868 l 367 868 q 346 863 351 868 q 340 846 340 858 l 340 621 q 344 603 340 608 q 360 597 349 597 l 531 597 m 446 -337 q 431 -330 436 -337 q 432 -315 426 -322 l 475 -249 q 481 -232 481 -242 q 464 -217 481 -217 l 451 -217 q 432 -210 438 -217 q 426 -190 426 -204 l 426 -104 q 447 -81 426 -81 l 557 -81 q 576 -100 576 -81 l 576 -217 q 572 -232 576 -219 l 507 -321 q 492 -334 500 -331 q 468 -337 485 -337 l 446 -337 z "},"Ȑ":{"ha":1003,"x_min":97,"x_max":946,"o":"m 933 38 q 936 25 936 29 q 929 7 936 14 q 913 0 922 0 l 708 0 q 678 25 685 0 l 528 414 q 515 429 524 425 q 489 433 507 433 l 357 433 q 344 428 349 433 q 340 418 340 424 l 340 33 q 331 8 340 15 q 303 0 322 0 l 126 0 q 103 7 110 0 q 97 28 97 14 l 97 1004 q 119 1031 97 1031 l 553 1031 q 843 957 740 1031 q 946 747 946 883 q 892 574 946 646 q 756 474 838 503 q 750 453 744 469 l 933 38 m 531 597 q 653 631 611 597 q 694 731 694 665 q 652 833 694 797 q 538 868 610 868 l 367 868 q 346 863 351 868 q 340 846 340 858 l 340 621 q 344 603 340 608 q 360 597 349 597 l 531 597 m 661 1160 q 667 1147 667 1154 q 658 1131 667 1139 l 622 1090 q 607 1082 614 1082 q 585 1090 599 1082 l 506 1143 q 497 1131 503 1138 l 461 1090 q 446 1082 453 1082 q 425 1090 438 1082 l 233 1217 q 218 1238 218 1226 q 228 1260 218 1247 l 288 1331 q 303 1339 294 1339 q 315 1333 310 1339 l 390 1263 l 449 1331 q 463 1339 454 1339 q 475 1333 469 1339 l 661 1160 z "},"Ṛ":{"ha":1003,"x_min":97,"x_max":946,"o":"m 933 38 q 936 25 936 29 q 929 7 936 14 q 913 0 922 0 l 708 0 q 678 25 685 0 l 528 414 q 515 429 524 425 q 489 433 507 433 l 357 433 q 344 428 349 433 q 340 418 340 424 l 340 33 q 331 8 340 15 q 303 0 322 0 l 126 0 q 103 7 110 0 q 97 28 97 14 l 97 1004 q 119 1031 97 1031 l 553 1031 q 843 957 740 1031 q 946 747 946 883 q 892 574 946 646 q 756 474 838 503 q 750 453 744 469 l 933 38 m 531 597 q 653 631 611 597 q 694 731 694 665 q 652 833 694 797 q 538 868 610 868 l 367 868 q 346 863 351 868 q 340 846 340 858 l 340 621 q 344 603 340 608 q 360 597 349 597 l 531 597 m 583 -203 q 577 -223 583 -217 q 556 -229 571 -229 l 440 -229 q 422 -224 426 -229 q 417 -207 417 -218 l 417 -85 q 420 -69 417 -74 q 433 -64 424 -64 l 568 -64 q 583 -83 583 -64 l 583 -203 z "},"Ȓ":{"ha":1003,"x_min":97,"x_max":946,"o":"m 933 38 q 936 25 936 29 q 929 7 936 14 q 913 0 922 0 l 708 0 q 678 25 685 0 l 528 414 q 515 429 524 425 q 489 433 507 433 l 357 433 q 344 428 349 433 q 340 418 340 424 l 340 33 q 331 8 340 15 q 303 0 322 0 l 126 0 q 103 7 110 0 q 97 28 97 14 l 97 1004 q 119 1031 97 1031 l 553 1031 q 843 957 740 1031 q 946 747 946 883 q 892 574 946 646 q 756 474 838 503 q 750 453 744 469 l 933 38 m 531 597 q 653 631 611 597 q 694 731 694 665 q 652 833 694 797 q 538 868 610 868 l 367 868 q 346 863 351 868 q 340 846 340 858 l 340 621 q 344 603 340 608 q 360 597 349 597 l 531 597 m 628 1144 q 615 1147 619 1144 q 604 1160 610 1150 q 554 1206 586 1188 q 488 1224 522 1224 q 421 1206 451 1224 q 372 1161 390 1188 q 361 1148 367 1151 q 344 1144 356 1144 l 254 1144 q 242 1150 246 1144 q 242 1163 239 1156 q 333 1285 267 1242 q 488 1328 399 1328 q 644 1285 578 1328 q 735 1165 710 1242 l 736 1157 q 718 1144 736 1144 l 628 1144 z "},"S":{"ha":940,"x_min":46,"x_max":888,"o":"m 689 788 q 606 851 653 828 q 485 874 560 874 q 356 843 400 874 q 311 763 311 813 q 424 657 311 690 l 643 594 q 827 485 767 560 q 888 304 888 410 q 838 135 888 207 q 694 25 788 64 q 474 -14 600 -14 q 218 34 332 -14 q 51 165 104 82 q 46 183 46 175 q 60 207 46 194 l 167 281 q 192 289 181 289 q 213 278 204 289 q 317 183 264 211 q 457 156 369 156 q 603 185 550 156 q 656 272 656 214 q 629 336 656 310 q 540 382 603 363 l 331 442 q 146 553 211 475 q 81 732 81 632 q 130 892 81 821 q 269 1003 179 963 q 478 1044 360 1044 q 692 1005 594 1044 q 840 899 789 965 q 849 879 849 888 q 840 864 849 871 l 724 778 q 711 772 715 772 q 689 788 704 772 z "},"Ś":{"ha":940,"x_min":46,"x_max":888,"o":"m 689 788 q 606 851 653 828 q 485 874 560 874 q 356 843 400 874 q 311 763 311 813 q 424 657 311 690 l 643 594 q 827 485 767 560 q 888 304 888 410 q 838 135 888 207 q 694 25 788 64 q 474 -14 600 -14 q 218 34 332 -14 q 51 165 104 82 q 46 183 46 175 q 60 207 46 194 l 167 281 q 192 289 181 289 q 213 278 204 289 q 317 183 264 211 q 457 156 369 156 q 603 185 550 156 q 656 272 656 214 q 629 336 656 310 q 540 382 603 363 l 331 442 q 146 553 211 475 q 81 732 81 632 q 130 892 81 821 q 269 1003 179 963 q 478 1044 360 1044 q 692 1005 594 1044 q 840 899 789 965 q 849 879 849 888 q 840 864 849 871 l 724 778 q 711 772 715 772 q 689 788 704 772 m 675 1232 q 678 1218 678 1224 q 654 1194 678 1203 l 333 1108 q 321 1107 328 1107 q 308 1110 313 1107 q 300 1124 304 1114 l 283 1172 l 281 1183 q 292 1200 281 1196 l 619 1338 q 626 1339 622 1339 q 643 1325 639 1339 l 675 1232 z "},"Š":{"ha":940,"x_min":46,"x_max":888,"o":"m 689 788 q 606 851 653 828 q 485 874 560 874 q 356 843 400 874 q 311 763 311 813 q 424 657 311 690 l 643 594 q 827 485 767 560 q 888 304 888 410 q 838 135 888 207 q 694 25 788 64 q 474 -14 600 -14 q 218 34 332 -14 q 51 165 104 82 q 46 183 46 175 q 60 207 46 194 l 167 281 q 192 289 181 289 q 213 278 204 289 q 317 183 264 211 q 457 156 369 156 q 603 185 550 156 q 656 272 656 214 q 629 336 656 310 q 540 382 603 363 l 331 442 q 146 553 211 475 q 81 732 81 632 q 130 892 81 821 q 269 1003 179 963 q 478 1044 360 1044 q 692 1005 594 1044 q 840 899 789 965 q 849 879 849 888 q 840 864 849 871 l 724 778 q 711 772 715 772 q 689 788 704 772 m 561 1315 q 594 1326 572 1326 l 714 1326 q 728 1321 728 1326 q 717 1304 728 1315 l 568 1147 q 553 1135 560 1139 q 533 1131 546 1131 l 433 1131 q 408 1135 417 1131 q 388 1149 399 1139 l 238 1304 q 229 1319 229 1313 q 242 1326 229 1326 l 354 1326 q 372 1325 367 1326 q 386 1315 378 1324 l 456 1242 q 478 1225 469 1225 q 490 1233 483 1225 q 497 1242 496 1240 l 561 1315 z "},"Ş":{"ha":940,"x_min":46,"x_max":888,"o":"m 503 -65 q 510 -75 499 -75 q 613 -110 579 -76 q 646 -187 646 -143 q 596 -272 646 -240 q 474 -304 546 -304 q 319 -271 379 -304 q 313 -253 307 -264 l 332 -204 q 347 -199 336 -194 q 447 -229 399 -229 q 499 -217 481 -229 q 518 -185 518 -206 q 490 -142 518 -157 q 397 -128 461 -128 q 386 -114 379 -128 l 429 -12 q 201 42 301 -6 q 51 165 100 89 q 46 183 46 175 q 60 207 46 194 l 167 281 q 192 289 181 289 q 213 278 204 289 q 317 183 264 211 q 457 156 369 156 q 603 185 550 156 q 656 272 656 214 q 629 336 656 310 q 540 382 603 363 l 331 442 q 146 553 211 475 q 81 732 81 632 q 130 892 81 821 q 269 1003 179 963 q 478 1044 360 1044 q 692 1005 594 1044 q 840 899 789 965 q 849 879 849 888 q 840 864 849 871 l 724 778 q 711 772 715 772 q 689 788 704 772 q 606 851 653 828 q 485 874 560 874 q 356 843 400 874 q 311 763 311 813 q 424 657 311 690 l 643 594 q 827 485 767 560 q 888 304 888 410 q 790 83 888 168 q 524 -12 693 -1 l 503 -65 z "},"Ŝ":{"ha":940,"x_min":46,"x_max":888,"o":"m 689 788 q 606 851 653 828 q 485 874 560 874 q 356 843 400 874 q 311 763 311 813 q 424 657 311 690 l 643 594 q 827 485 767 560 q 888 304 888 410 q 838 135 888 207 q 694 25 788 64 q 474 -14 600 -14 q 218 34 332 -14 q 51 165 104 82 q 46 183 46 175 q 60 207 46 194 l 167 281 q 192 289 181 289 q 213 278 204 289 q 317 183 264 211 q 457 156 369 156 q 603 185 550 156 q 656 272 656 214 q 629 336 656 310 q 540 382 603 363 l 331 442 q 146 553 211 475 q 81 732 81 632 q 130 892 81 821 q 269 1003 179 963 q 478 1044 360 1044 q 692 1005 594 1044 q 840 899 789 965 q 849 879 849 888 q 840 864 849 871 l 724 778 q 711 772 715 772 q 689 788 704 772 m 497 1225 q 486 1237 492 1232 q 476 1242 481 1242 q 456 1225 469 1242 l 386 1151 q 372 1142 378 1143 q 354 1140 367 1140 l 242 1140 q 229 1147 229 1140 q 238 1163 229 1154 l 388 1318 q 408 1332 399 1328 q 433 1336 417 1336 l 533 1336 q 553 1332 546 1336 q 568 1319 560 1328 l 717 1163 q 728 1146 728 1151 q 714 1140 728 1140 l 594 1140 q 561 1151 572 1140 l 497 1225 z "},"Ș":{"ha":940,"x_min":46,"x_max":888,"o":"m 689 788 q 606 851 653 828 q 485 874 560 874 q 356 843 400 874 q 311 763 311 813 q 424 657 311 690 l 643 594 q 827 485 767 560 q 888 304 888 410 q 838 135 888 207 q 694 25 788 64 q 474 -14 600 -14 q 218 34 332 -14 q 51 165 104 82 q 46 183 46 175 q 60 207 46 194 l 167 281 q 192 289 181 289 q 213 278 204 289 q 317 183 264 211 q 457 156 369 156 q 603 185 550 156 q 656 272 656 214 q 629 336 656 310 q 540 382 603 363 l 331 442 q 146 553 211 475 q 81 732 81 632 q 130 892 81 821 q 269 1003 179 963 q 478 1044 360 1044 q 692 1005 594 1044 q 840 899 789 965 q 849 879 849 888 q 840 864 849 871 l 724 778 q 711 772 715 772 q 689 788 704 772 m 425 -337 q 410 -330 415 -337 q 411 -315 406 -322 l 454 -249 q 460 -232 460 -242 q 443 -217 460 -217 l 431 -217 q 411 -210 417 -217 q 406 -190 406 -204 l 406 -104 q 426 -81 406 -81 l 536 -81 q 556 -100 556 -81 l 556 -217 q 551 -232 556 -219 l 486 -321 q 472 -334 479 -331 q 447 -337 464 -337 l 425 -337 z "},"Ṣ":{"ha":940,"x_min":46,"x_max":888,"o":"m 689 788 q 606 851 653 828 q 485 874 560 874 q 356 843 400 874 q 311 763 311 813 q 424 657 311 690 l 643 594 q 827 485 767 560 q 888 304 888 410 q 838 135 888 207 q 694 25 788 64 q 474 -14 600 -14 q 218 34 332 -14 q 51 165 104 82 q 46 183 46 175 q 60 207 46 194 l 167 281 q 192 289 181 289 q 213 278 204 289 q 317 183 264 211 q 457 156 369 156 q 603 185 550 156 q 656 272 656 214 q 629 336 656 310 q 540 382 603 363 l 331 442 q 146 553 211 475 q 81 732 81 632 q 130 892 81 821 q 269 1003 179 963 q 478 1044 360 1044 q 692 1005 594 1044 q 840 899 789 965 q 849 879 849 888 q 840 864 849 871 l 724 778 q 711 772 715 772 q 689 788 704 772 m 564 -203 q 558 -223 564 -217 q 536 -229 551 -229 l 421 -229 q 402 -224 407 -229 q 397 -207 397 -218 l 397 -85 q 401 -69 397 -74 q 414 -64 404 -64 l 549 -64 q 564 -83 564 -64 l 564 -203 z "},"Ə":{"ha":1072,"x_min":63,"x_max":1010,"o":"m 753 596 q 706 778 753 700 q 538 856 660 856 q 427 828 471 856 q 363 769 383 800 q 297 664 342 739 q 286 657 293 657 q 267 663 278 657 l 115 735 q 104 750 104 740 q 110 769 104 758 q 535 1044 247 1044 q 796 974 689 1044 q 956 785 903 904 q 1010 522 1010 667 q 949 253 1010 375 q 780 58 889 131 q 532 -14 671 -14 q 179 132 296 -14 q 63 535 63 278 q 67 565 63 557 q 88 572 71 572 l 731 572 q 753 596 753 572 m 349 417 q 328 413 333 417 q 324 397 324 410 q 376 228 324 297 q 531 158 428 158 q 691 225 642 158 q 750 417 740 292 l 349 417 z "},"T":{"ha":946,"x_min":46,"x_max":899,"o":"m 46 1006 q 53 1024 46 1017 q 74 1031 61 1031 l 871 1031 q 899 1006 899 1031 l 899 876 q 874 856 899 856 l 614 856 q 599 842 599 856 l 599 26 q 575 0 599 0 l 376 0 q 356 24 356 0 l 356 838 q 352 851 356 847 q 340 856 349 856 l 72 856 q 46 876 46 856 l 46 1006 z "},"Ŧ":{"ha":946,"x_min":46,"x_max":899,"o":"m 871 1031 q 899 1006 899 1031 l 899 876 q 874 856 899 856 l 614 856 q 599 842 599 856 l 599 578 l 729 578 q 744 572 739 578 q 750 556 750 565 l 750 454 q 741 430 750 438 q 711 422 732 422 l 599 422 l 599 26 q 575 0 599 0 l 376 0 q 356 24 356 0 l 356 422 l 200 422 q 176 428 183 422 q 169 450 169 435 l 169 551 q 192 578 169 578 l 356 578 l 356 838 q 352 851 356 847 q 340 856 349 856 l 72 856 q 46 876 46 856 l 46 1006 q 53 1024 46 1017 q 74 1031 61 1031 l 871 1031 z "},"Ť":{"ha":946,"x_min":46,"x_max":899,"o":"m 46 1006 q 53 1024 46 1017 q 74 1031 61 1031 l 871 1031 q 899 1006 899 1031 l 899 876 q 874 856 899 856 l 614 856 q 599 842 599 856 l 599 26 q 575 0 599 0 l 376 0 q 356 24 356 0 l 356 838 q 352 851 356 847 q 340 856 349 856 l 72 856 q 46 876 46 856 l 46 1006 m 560 1315 q 593 1326 571 1326 l 713 1326 q 726 1321 726 1326 q 715 1304 726 1315 l 567 1147 q 551 1135 558 1139 q 532 1131 544 1131 l 432 1131 q 406 1135 415 1131 q 386 1149 397 1139 l 236 1304 q 228 1319 228 1313 q 240 1326 228 1326 l 353 1326 q 371 1325 365 1326 q 385 1315 376 1324 l 454 1242 q 476 1225 468 1225 q 488 1233 482 1225 q 496 1242 494 1240 l 560 1315 z "},"Ţ":{"ha":946,"x_min":46,"x_max":899,"o":"m 871 1031 q 899 1006 899 1031 l 899 876 q 874 856 899 856 l 614 856 q 599 842 599 856 l 599 26 q 575 0 599 0 l 526 0 l 500 -65 q 507 -75 496 -75 q 610 -110 576 -76 q 643 -187 643 -143 q 593 -272 643 -240 q 471 -304 543 -304 q 317 -271 376 -304 q 310 -253 304 -264 l 329 -204 q 344 -199 333 -194 q 444 -229 396 -229 q 497 -217 478 -229 q 515 -185 515 -206 q 487 -142 515 -157 q 394 -128 458 -128 q 383 -114 376 -128 l 432 0 l 376 0 q 356 24 356 0 l 356 838 q 352 851 356 847 q 340 856 349 856 l 72 856 q 46 876 46 856 l 46 1006 q 53 1024 46 1017 q 74 1031 61 1031 l 871 1031 z "},"Ț":{"ha":946,"x_min":46,"x_max":899,"o":"m 46 1006 q 53 1024 46 1017 q 74 1031 61 1031 l 871 1031 q 899 1006 899 1031 l 899 876 q 874 856 899 856 l 614 856 q 599 842 599 856 l 599 26 q 575 0 599 0 l 376 0 q 356 24 356 0 l 356 838 q 352 851 356 847 q 340 856 349 856 l 72 856 q 46 876 46 856 l 46 1006 m 422 -337 q 408 -330 413 -337 q 408 -315 403 -322 l 451 -249 q 457 -232 457 -242 q 440 -217 457 -217 l 428 -217 q 408 -210 414 -217 q 403 -190 403 -204 l 403 -104 q 424 -81 403 -81 l 533 -81 q 553 -100 553 -81 l 553 -217 q 549 -232 553 -219 l 483 -321 q 469 -334 476 -331 q 444 -337 461 -337 l 422 -337 z "},"Ṭ":{"ha":946,"x_min":46,"x_max":899,"o":"m 46 1006 q 53 1024 46 1017 q 74 1031 61 1031 l 871 1031 q 899 1006 899 1031 l 899 876 q 874 856 899 856 l 614 856 q 599 842 599 856 l 599 26 q 575 0 599 0 l 376 0 q 356 24 356 0 l 356 838 q 352 851 356 847 q 340 856 349 856 l 72 856 q 46 876 46 856 l 46 1006 m 560 -203 q 553 -223 560 -217 q 532 -229 547 -229 l 417 -229 q 398 -224 403 -229 q 393 -207 393 -218 l 393 -85 q 397 -69 393 -74 q 410 -64 400 -64 l 544 -64 q 560 -83 560 -64 l 560 -203 z "},"U":{"ha":1001,"x_min":85,"x_max":915,"o":"m 915 382 q 808 78 915 171 q 500 -14 701 -14 q 182 90 279 -14 q 85 407 85 194 l 85 1003 q 91 1023 85 1015 q 107 1031 97 1031 l 307 1031 q 328 1006 328 1031 l 328 376 q 376 212 328 264 q 518 160 424 160 q 715 381 715 160 l 715 1004 q 736 1031 715 1031 l 894 1031 q 915 1006 915 1031 l 915 382 z "},"Ú":{"ha":1001,"x_min":85,"x_max":915,"o":"m 915 382 q 808 78 915 171 q 500 -14 701 -14 q 182 90 279 -14 q 85 407 85 194 l 85 1003 q 91 1023 85 1015 q 107 1031 97 1031 l 307 1031 q 328 1006 328 1031 l 328 376 q 376 212 328 264 q 518 160 424 160 q 715 381 715 160 l 715 1004 q 736 1031 715 1031 l 894 1031 q 915 1006 915 1031 l 915 382 m 714 1232 q 717 1218 717 1224 q 693 1194 717 1203 l 372 1108 q 360 1107 367 1107 q 347 1110 351 1107 q 339 1124 343 1114 l 322 1172 l 319 1183 q 331 1200 319 1196 l 658 1338 q 665 1339 661 1339 q 682 1325 678 1339 l 714 1232 z "},"Ŭ":{"ha":1001,"x_min":85,"x_max":915,"o":"m 915 382 q 808 78 915 171 q 500 -14 701 -14 q 182 90 279 -14 q 85 407 85 194 l 85 1003 q 91 1023 85 1015 q 107 1031 97 1031 l 307 1031 q 328 1006 328 1031 l 328 376 q 376 212 328 264 q 518 160 424 160 q 715 381 715 160 l 715 1004 q 736 1031 715 1031 l 894 1031 q 915 1006 915 1031 l 915 382 m 749 1325 q 765 1320 761 1325 q 765 1304 768 1315 q 675 1184 742 1228 q 518 1140 608 1140 q 363 1183 429 1140 q 272 1306 297 1226 l 271 1313 q 285 1325 271 1325 l 375 1325 q 391 1322 385 1325 q 404 1308 397 1318 q 451 1264 421 1282 q 518 1246 482 1246 q 585 1264 553 1246 q 635 1310 617 1282 q 645 1322 640 1319 q 658 1325 650 1325 l 749 1325 z "},"Û":{"ha":1001,"x_min":85,"x_max":915,"o":"m 915 382 q 808 78 915 171 q 500 -14 701 -14 q 182 90 279 -14 q 85 407 85 194 l 85 1003 q 91 1023 85 1015 q 107 1031 97 1031 l 307 1031 q 328 1006 328 1031 l 328 376 q 376 212 328 264 q 518 160 424 160 q 715 381 715 160 l 715 1004 q 736 1031 715 1031 l 894 1031 q 915 1006 915 1031 l 915 382 m 538 1225 q 526 1237 532 1232 q 517 1242 521 1242 q 496 1225 510 1242 l 426 1151 q 413 1142 418 1143 q 394 1140 407 1140 l 282 1140 q 269 1147 269 1140 q 278 1163 269 1154 l 428 1318 q 448 1332 439 1328 q 474 1336 457 1336 l 574 1336 q 593 1332 586 1336 q 608 1319 600 1328 l 757 1163 q 768 1146 768 1151 q 754 1140 768 1140 l 635 1140 q 601 1151 613 1140 l 538 1225 z "},"Ȕ":{"ha":1001,"x_min":85,"x_max":915,"o":"m 915 382 q 808 78 915 171 q 500 -14 701 -14 q 182 90 279 -14 q 85 407 85 194 l 85 1003 q 91 1023 85 1015 q 107 1031 97 1031 l 307 1031 q 328 1006 328 1031 l 328 376 q 376 212 328 264 q 518 160 424 160 q 715 381 715 160 l 715 1004 q 736 1031 715 1031 l 894 1031 q 915 1006 915 1031 l 915 382 m 693 1160 q 699 1147 699 1154 q 690 1131 699 1139 l 654 1090 q 639 1082 646 1082 q 617 1090 631 1082 l 538 1143 q 529 1131 535 1138 l 493 1090 q 478 1082 485 1082 q 457 1090 469 1082 l 265 1217 q 250 1238 250 1226 q 260 1260 250 1247 l 319 1331 q 335 1339 326 1339 q 347 1333 342 1339 l 422 1263 l 481 1331 q 494 1339 486 1339 q 507 1333 501 1339 l 693 1160 z "},"Ü":{"ha":1001,"x_min":85,"x_max":915,"o":"m 915 382 q 808 78 915 171 q 500 -14 701 -14 q 182 90 279 -14 q 85 407 85 194 l 85 1003 q 91 1023 85 1015 q 107 1031 97 1031 l 307 1031 q 328 1006 328 1031 l 328 376 q 376 212 328 264 q 518 160 424 160 q 715 381 715 160 l 715 1004 q 736 1031 715 1031 l 894 1031 q 915 1006 915 1031 l 915 382 m 471 1172 q 463 1151 471 1157 q 438 1144 456 1144 l 308 1144 q 288 1151 293 1144 q 282 1169 282 1157 l 282 1301 q 301 1325 282 1325 l 451 1325 q 471 1303 471 1325 l 471 1172 m 753 1172 q 745 1151 753 1157 q 719 1144 738 1144 l 590 1144 q 569 1151 575 1144 q 564 1169 564 1157 l 564 1301 q 583 1325 564 1325 l 733 1325 q 753 1303 753 1325 l 753 1172 z "},"Ụ":{"ha":1001,"x_min":85,"x_max":915,"o":"m 915 382 q 808 78 915 171 q 500 -14 701 -14 q 182 90 279 -14 q 85 407 85 194 l 85 1003 q 91 1023 85 1015 q 107 1031 97 1031 l 307 1031 q 328 1006 328 1031 l 328 376 q 376 212 328 264 q 518 160 424 160 q 715 381 715 160 l 715 1004 q 736 1031 715 1031 l 894 1031 q 915 1006 915 1031 l 915 382 m 589 -203 q 583 -223 589 -217 q 561 -229 576 -229 l 446 -229 q 427 -224 432 -229 q 422 -207 422 -218 l 422 -85 q 426 -69 422 -74 q 439 -64 429 -64 l 574 -64 q 589 -83 589 -64 l 589 -203 z "},"Ù":{"ha":1001,"x_min":85,"x_max":915,"o":"m 915 382 q 808 78 915 171 q 500 -14 701 -14 q 182 90 279 -14 q 85 407 85 194 l 85 1003 q 91 1023 85 1015 q 107 1031 97 1031 l 307 1031 q 328 1006 328 1031 l 328 376 q 376 212 328 264 q 518 160 424 160 q 715 381 715 160 l 715 1004 q 736 1031 715 1031 l 894 1031 q 915 1006 915 1031 l 915 382 m 347 1325 q 357 1337 350 1333 q 372 1338 364 1340 l 699 1200 q 710 1183 710 1196 q 707 1172 710 1176 l 690 1124 q 671 1107 685 1107 q 658 1108 663 1107 l 336 1194 q 313 1218 313 1203 q 315 1232 313 1224 l 347 1325 z "},"Ű":{"ha":1001,"x_min":85,"x_max":915,"o":"m 915 382 q 808 78 915 171 q 500 -14 701 -14 q 182 90 279 -14 q 85 407 85 194 l 85 1003 q 91 1023 85 1015 q 107 1031 97 1031 l 307 1031 q 328 1006 328 1031 l 328 376 q 376 212 328 264 q 518 160 424 160 q 715 381 715 160 l 715 1004 q 736 1031 715 1031 l 894 1031 q 915 1006 915 1031 l 915 382 m 751 1260 q 761 1238 761 1247 q 746 1217 761 1226 l 556 1090 q 533 1082 542 1082 q 518 1090 526 1082 l 482 1131 q 475 1143 475 1138 l 394 1090 q 374 1082 379 1082 q 358 1090 367 1082 l 322 1131 q 314 1147 314 1139 q 319 1160 314 1156 l 504 1333 q 517 1339 510 1339 q 532 1331 526 1339 l 589 1261 l 665 1333 q 678 1339 671 1339 q 692 1331 686 1339 l 751 1260 z "},"Ȗ":{"ha":1001,"x_min":85,"x_max":915,"o":"m 915 382 q 808 78 915 171 q 500 -14 701 -14 q 182 90 279 -14 q 85 407 85 194 l 85 1003 q 91 1023 85 1015 q 107 1031 97 1031 l 307 1031 q 328 1006 328 1031 l 328 376 q 376 212 328 264 q 518 160 424 160 q 715 381 715 160 l 715 1004 q 736 1031 715 1031 l 894 1031 q 915 1006 915 1031 l 915 382 m 658 1144 q 645 1147 650 1144 q 635 1160 640 1150 q 585 1206 617 1188 q 518 1224 553 1224 q 451 1206 482 1224 q 403 1161 421 1188 q 392 1148 397 1151 q 375 1144 386 1144 l 285 1144 q 273 1150 276 1144 q 272 1163 269 1156 q 363 1285 297 1242 q 518 1328 429 1328 q 674 1285 608 1328 q 765 1165 740 1242 l 767 1157 q 749 1144 767 1144 l 658 1144 z "},"Ū":{"ha":1001,"x_min":85,"x_max":915,"o":"m 915 382 q 808 78 915 171 q 500 -14 701 -14 q 182 90 279 -14 q 85 407 85 194 l 85 1003 q 91 1023 85 1015 q 107 1031 97 1031 l 307 1031 q 328 1006 328 1031 l 328 376 q 376 212 328 264 q 518 160 424 160 q 715 381 715 160 l 715 1004 q 736 1031 715 1031 l 894 1031 q 915 1006 915 1031 l 915 382 m 772 1207 q 740 1181 772 1181 l 290 1181 q 271 1187 276 1181 q 265 1206 265 1193 l 265 1294 q 283 1317 265 1317 l 754 1317 q 767 1311 763 1317 q 772 1297 772 1306 l 772 1207 z "},"Ų":{"ha":1001,"x_min":85,"x_max":915,"o":"m 894 1031 q 915 1006 915 1031 l 915 382 q 849 124 915 215 q 654 1 782 32 q 560 -45 588 -22 q 532 -96 532 -68 q 544 -131 532 -119 q 583 -142 557 -142 q 664 -121 625 -142 q 676 -118 669 -118 q 683 -122 682 -118 q 685 -133 685 -125 l 685 -193 q 674 -214 685 -208 q 615 -232 654 -224 q 535 -240 576 -240 q 419 -210 461 -240 q 378 -124 378 -181 q 396 -62 378 -89 q 461 -12 414 -35 q 173 100 261 -4 q 85 407 85 204 l 85 1003 q 91 1023 85 1015 q 107 1031 97 1031 l 307 1031 q 328 1006 328 1031 l 328 376 q 376 212 328 264 q 518 160 424 160 q 715 381 715 160 l 715 1004 q 736 1031 715 1031 l 894 1031 z "},"Ů":{"ha":1001,"x_min":85,"x_max":915,"o":"m 915 382 q 808 78 915 171 q 500 -14 701 -14 q 182 90 279 -14 q 85 407 85 194 l 85 1003 q 91 1023 85 1015 q 107 1031 97 1031 l 307 1031 q 328 1006 328 1031 l 328 376 q 376 212 328 264 q 518 160 424 160 q 715 381 715 160 l 715 1004 q 736 1031 715 1031 l 894 1031 q 915 1006 915 1031 l 915 382 m 674 1172 q 628 1062 674 1107 q 518 1017 583 1017 q 408 1063 453 1017 q 363 1175 363 1108 q 408 1281 363 1238 q 518 1325 454 1325 q 628 1281 583 1325 q 674 1172 674 1236 m 588 1171 q 567 1222 588 1201 q 517 1242 547 1242 q 466 1222 488 1242 q 444 1171 444 1201 q 467 1121 444 1143 q 517 1099 489 1099 q 567 1120 546 1099 q 588 1171 588 1142 z "},"Ũ":{"ha":1001,"x_min":85,"x_max":915,"o":"m 915 382 q 808 78 915 171 q 500 -14 701 -14 q 182 90 279 -14 q 85 407 85 194 l 85 1003 q 91 1023 85 1015 q 107 1031 97 1031 l 307 1031 q 328 1006 328 1031 l 328 376 q 376 212 328 264 q 518 160 424 160 q 715 381 715 160 l 715 1004 q 736 1031 715 1031 l 894 1031 q 915 1006 915 1031 l 915 382 m 751 1203 q 625 1165 697 1165 q 576 1170 599 1165 q 518 1186 553 1175 q 465 1201 486 1196 q 419 1206 443 1206 q 372 1199 392 1206 q 326 1174 353 1192 q 313 1167 317 1167 q 300 1183 304 1167 l 281 1243 q 278 1257 278 1251 q 289 1276 278 1265 q 345 1315 318 1301 q 413 1328 372 1328 q 466 1322 440 1328 q 531 1304 492 1317 q 625 1283 593 1283 q 674 1292 651 1283 q 721 1318 697 1301 q 735 1324 729 1324 q 750 1308 746 1324 l 767 1236 q 768 1228 768 1233 q 751 1203 768 1215 z "},"V":{"ha":1018,"x_min":44,"x_max":978,"o":"m 951 1031 q 972 1021 965 1031 q 972 999 978 1011 l 639 29 q 596 0 629 0 l 422 0 q 378 29 389 0 l 47 997 l 44 1008 q 51 1024 44 1018 q 69 1031 58 1031 l 269 1031 q 299 1007 292 1031 l 526 304 q 533 294 528 294 q 543 306 539 294 l 764 1007 q 794 1031 771 1031 l 951 1031 z "},"W":{"ha":1506,"x_min":47,"x_max":1458,"o":"m 1425 1031 q 1458 1001 1458 1031 q 1457 988 1458 992 l 1174 29 q 1158 7 1168 14 q 1132 0 1149 0 l 982 0 q 939 29 947 0 l 764 636 q 757 650 761 650 q 747 633 754 650 l 571 29 q 557 7 567 14 q 529 0 547 0 l 375 0 q 347 7 357 0 q 332 29 338 14 l 49 988 q 47 1001 47 992 q 82 1031 47 1031 l 256 1031 q 281 1025 272 1031 q 292 1007 289 1019 l 471 375 q 479 358 475 358 q 488 371 483 358 l 667 1007 q 703 1031 671 1031 l 851 1031 q 877 1025 869 1031 q 889 1007 885 1019 l 1071 365 q 1079 355 1074 356 q 1086 364 1085 354 l 1263 1007 q 1300 1031 1269 1031 l 1425 1031 z "},"Ẃ":{"ha":1506,"x_min":47,"x_max":1458,"o":"m 1425 1031 q 1458 1001 1458 1031 q 1457 988 1458 992 l 1174 29 q 1158 7 1168 14 q 1132 0 1149 0 l 982 0 q 939 29 947 0 l 764 636 q 757 650 761 650 q 747 633 754 650 l 571 29 q 557 7 567 14 q 529 0 547 0 l 375 0 q 347 7 357 0 q 332 29 338 14 l 49 988 q 47 1001 47 992 q 82 1031 47 1031 l 256 1031 q 281 1025 272 1031 q 292 1007 289 1019 l 471 375 q 479 358 475 358 q 488 371 483 358 l 667 1007 q 703 1031 671 1031 l 851 1031 q 877 1025 869 1031 q 889 1007 885 1019 l 1071 365 q 1079 355 1074 356 q 1086 364 1085 354 l 1263 1007 q 1300 1031 1269 1031 l 1425 1031 m 951 1232 q 954 1218 954 1224 q 931 1194 954 1203 l 610 1108 q 597 1107 604 1107 q 585 1110 589 1107 q 576 1124 581 1114 l 560 1172 l 557 1183 q 568 1200 557 1196 l 896 1338 q 903 1339 899 1339 q 919 1325 915 1339 l 951 1232 z "},"Ŵ":{"ha":1506,"x_min":47,"x_max":1458,"o":"m 1425 1031 q 1458 1001 1458 1031 q 1457 988 1458 992 l 1174 29 q 1158 7 1168 14 q 1132 0 1149 0 l 982 0 q 939 29 947 0 l 764 636 q 757 650 761 650 q 747 633 754 650 l 571 29 q 557 7 567 14 q 529 0 547 0 l 375 0 q 347 7 357 0 q 332 29 338 14 l 49 988 q 47 1001 47 992 q 82 1031 47 1031 l 256 1031 q 281 1025 272 1031 q 292 1007 289 1019 l 471 375 q 479 358 475 358 q 488 371 483 358 l 667 1007 q 703 1031 671 1031 l 851 1031 q 877 1025 869 1031 q 889 1007 885 1019 l 1071 365 q 1079 355 1074 356 q 1086 364 1085 354 l 1263 1007 q 1300 1031 1269 1031 l 1425 1031 m 774 1225 q 763 1237 768 1232 q 753 1242 757 1242 q 732 1225 746 1242 l 663 1151 q 649 1142 654 1143 q 631 1140 643 1140 l 518 1140 q 506 1147 506 1140 q 514 1163 506 1154 l 664 1318 q 684 1332 675 1328 q 710 1336 693 1336 l 810 1336 q 829 1332 822 1336 q 844 1319 836 1328 l 993 1163 q 1004 1146 1004 1151 q 990 1140 1004 1140 l 871 1140 q 838 1151 849 1140 l 774 1225 z "},"Ẅ":{"ha":1506,"x_min":47,"x_max":1458,"o":"m 1425 1031 q 1458 1001 1458 1031 q 1457 988 1458 992 l 1174 29 q 1158 7 1168 14 q 1132 0 1149 0 l 982 0 q 939 29 947 0 l 764 636 q 757 650 761 650 q 747 633 754 650 l 571 29 q 557 7 567 14 q 529 0 547 0 l 375 0 q 347 7 357 0 q 332 29 338 14 l 49 988 q 47 1001 47 992 q 82 1031 47 1031 l 256 1031 q 281 1025 272 1031 q 292 1007 289 1019 l 471 375 q 479 358 475 358 q 488 371 483 358 l 667 1007 q 703 1031 671 1031 l 851 1031 q 877 1025 869 1031 q 889 1007 885 1019 l 1071 365 q 1079 355 1074 356 q 1086 364 1085 354 l 1263 1007 q 1300 1031 1269 1031 l 1425 1031 m 708 1172 q 701 1151 708 1157 q 675 1144 693 1144 l 546 1144 q 525 1151 531 1144 q 519 1169 519 1157 l 519 1301 q 539 1325 519 1325 l 689 1325 q 708 1303 708 1325 l 708 1172 m 990 1172 q 983 1151 990 1157 q 957 1144 975 1144 l 828 1144 q 807 1151 813 1144 q 801 1169 801 1157 l 801 1301 q 821 1325 801 1325 l 971 1325 q 990 1303 990 1325 l 990 1172 z "},"Ẁ":{"ha":1506,"x_min":47,"x_max":1458,"o":"m 1425 1031 q 1458 1001 1458 1031 q 1457 988 1458 992 l 1174 29 q 1158 7 1168 14 q 1132 0 1149 0 l 982 0 q 939 29 947 0 l 764 636 q 757 650 761 650 q 747 633 754 650 l 571 29 q 557 7 567 14 q 529 0 547 0 l 375 0 q 347 7 357 0 q 332 29 338 14 l 49 988 q 47 1001 47 992 q 82 1031 47 1031 l 256 1031 q 281 1025 272 1031 q 292 1007 289 1019 l 471 375 q 479 358 475 358 q 488 371 483 358 l 667 1007 q 703 1031 671 1031 l 851 1031 q 877 1025 869 1031 q 889 1007 885 1019 l 1071 365 q 1079 355 1074 356 q 1086 364 1085 354 l 1263 1007 q 1300 1031 1269 1031 l 1425 1031 m 583 1325 q 593 1337 586 1333 q 608 1338 600 1340 l 935 1200 q 946 1183 946 1196 q 943 1172 946 1176 l 926 1124 q 907 1107 921 1107 q 894 1108 899 1107 l 572 1194 q 549 1218 549 1203 q 551 1232 549 1224 l 583 1325 z "},"X":{"ha":1013,"x_min":46,"x_max":968,"o":"m 954 54 q 968 18 968 32 q 939 0 968 0 l 746 0 q 701 21 714 0 l 506 336 q 488 354 496 354 q 469 336 479 354 l 275 21 q 229 0 264 0 l 75 0 q 46 17 46 0 q 61 54 46 32 l 353 500 q 361 521 361 513 q 351 544 361 528 l 60 993 q 54 1011 54 1000 q 76 1031 54 1031 l 279 1031 q 306 1025 296 1031 q 322 1008 315 1019 l 494 726 q 508 715 501 715 q 524 726 517 715 l 696 1008 q 712 1026 703 1021 q 738 1031 721 1031 l 907 1031 q 928 1015 928 1031 q 921 996 928 1007 l 640 571 q 633 550 633 557 q 642 528 633 543 l 954 54 z "},"Y":{"ha":1021,"x_min":42,"x_max":978,"o":"m 958 1031 q 978 1017 978 1031 q 974 1003 978 1011 l 647 468 q 638 444 639 456 q 636 394 636 432 l 636 33 q 597 0 636 0 l 424 0 q 400 7 407 0 q 393 29 393 14 l 393 403 q 390 428 393 419 q 376 454 386 438 l 47 999 q 42 1014 42 1010 q 49 1026 42 1021 q 68 1031 56 1031 l 276 1031 q 301 1026 293 1031 q 317 1006 310 1021 l 522 644 q 536 629 531 629 q 549 642 543 629 l 751 1006 q 767 1026 760 1021 q 792 1031 775 1031 l 958 1031 z "},"Ý":{"ha":1021,"x_min":42,"x_max":978,"o":"m 958 1031 q 978 1017 978 1031 q 974 1003 978 1011 l 647 468 q 638 444 639 456 q 636 394 636 432 l 636 33 q 597 0 636 0 l 424 0 q 400 7 407 0 q 393 29 393 14 l 393 403 q 390 428 393 419 q 376 454 386 438 l 47 999 q 42 1014 42 1010 q 49 1026 42 1021 q 68 1031 56 1031 l 276 1031 q 301 1026 293 1031 q 317 1006 310 1021 l 522 644 q 536 629 531 629 q 549 642 543 629 l 751 1006 q 767 1026 760 1021 q 792 1031 775 1031 l 958 1031 m 719 1232 q 722 1218 722 1224 q 699 1194 722 1203 l 378 1108 q 365 1107 372 1107 q 353 1110 357 1107 q 344 1124 349 1114 l 328 1172 l 325 1183 q 336 1200 325 1196 l 664 1338 q 671 1339 667 1339 q 688 1325 683 1339 l 719 1232 z "},"Ŷ":{"ha":1021,"x_min":42,"x_max":978,"o":"m 958 1031 q 978 1017 978 1031 q 974 1003 978 1011 l 647 468 q 638 444 639 456 q 636 394 636 432 l 636 33 q 597 0 636 0 l 424 0 q 400 7 407 0 q 393 29 393 14 l 393 403 q 390 428 393 419 q 376 454 386 438 l 47 999 q 42 1014 42 1010 q 49 1026 42 1021 q 68 1031 56 1031 l 276 1031 q 301 1026 293 1031 q 317 1006 310 1021 l 522 644 q 536 629 531 629 q 549 642 543 629 l 751 1006 q 767 1026 760 1021 q 792 1031 775 1031 l 958 1031 m 543 1225 q 532 1237 538 1232 q 522 1242 526 1242 q 501 1225 515 1242 l 432 1151 q 418 1142 424 1143 q 400 1140 413 1140 l 288 1140 q 275 1147 275 1140 q 283 1163 275 1154 l 433 1318 q 453 1332 444 1328 q 479 1336 463 1336 l 579 1336 q 599 1332 592 1336 q 614 1319 606 1328 l 763 1163 q 774 1146 774 1151 q 760 1140 774 1140 l 640 1140 q 607 1151 618 1140 l 543 1225 z "},"Ÿ":{"ha":1021,"x_min":42,"x_max":978,"o":"m 958 1031 q 978 1017 978 1031 q 974 1003 978 1011 l 647 468 q 638 444 639 456 q 636 394 636 432 l 636 33 q 597 0 636 0 l 424 0 q 400 7 407 0 q 393 29 393 14 l 393 403 q 390 428 393 419 q 376 454 386 438 l 47 999 q 42 1014 42 1010 q 49 1026 42 1021 q 68 1031 56 1031 l 276 1031 q 301 1026 293 1031 q 317 1006 310 1021 l 522 644 q 536 629 531 629 q 549 642 543 629 l 751 1006 q 767 1026 760 1021 q 792 1031 775 1031 l 958 1031 m 476 1172 q 469 1151 476 1157 q 443 1144 461 1144 l 314 1144 q 293 1151 299 1144 q 288 1169 288 1157 l 288 1301 q 307 1325 288 1325 l 457 1325 q 476 1303 476 1325 l 476 1172 m 758 1172 q 751 1151 758 1157 q 725 1144 743 1144 l 596 1144 q 575 1151 581 1144 q 569 1169 569 1157 l 569 1301 q 589 1325 569 1325 l 739 1325 q 758 1303 758 1325 l 758 1172 z "},"Ỳ":{"ha":1021,"x_min":42,"x_max":978,"o":"m 958 1031 q 978 1017 978 1031 q 974 1003 978 1011 l 647 468 q 638 444 639 456 q 636 394 636 432 l 636 33 q 597 0 636 0 l 424 0 q 400 7 407 0 q 393 29 393 14 l 393 403 q 390 428 393 419 q 376 454 386 438 l 47 999 q 42 1014 42 1010 q 49 1026 42 1021 q 68 1031 56 1031 l 276 1031 q 301 1026 293 1031 q 317 1006 310 1021 l 522 644 q 536 629 531 629 q 549 642 543 629 l 751 1006 q 767 1026 760 1021 q 792 1031 775 1031 l 958 1031 m 353 1325 q 363 1337 356 1333 q 378 1338 369 1340 l 704 1200 q 715 1183 715 1196 q 713 1172 715 1176 l 696 1124 q 676 1107 690 1107 q 664 1108 668 1107 l 342 1194 q 318 1218 318 1203 q 321 1232 318 1224 l 353 1325 z "},"Ỹ":{"ha":1021,"x_min":42,"x_max":978,"o":"m 958 1031 q 978 1017 978 1031 q 974 1003 978 1011 l 647 468 q 638 444 639 456 q 636 394 636 432 l 636 33 q 597 0 636 0 l 424 0 q 400 7 407 0 q 393 29 393 14 l 393 403 q 390 428 393 419 q 376 454 386 438 l 47 999 q 42 1014 42 1010 q 49 1026 42 1021 q 68 1031 56 1031 l 276 1031 q 301 1026 293 1031 q 317 1006 310 1021 l 522 644 q 536 629 531 629 q 549 642 543 629 l 751 1006 q 767 1026 760 1021 q 792 1031 775 1031 l 958 1031 m 757 1203 q 631 1165 703 1165 q 581 1170 604 1165 q 524 1186 558 1175 q 470 1201 492 1196 q 425 1206 449 1206 q 378 1199 397 1206 q 332 1174 358 1192 q 318 1167 322 1167 q 306 1183 310 1167 l 286 1243 q 283 1257 283 1251 q 294 1276 283 1265 q 351 1315 324 1301 q 418 1328 378 1328 q 472 1322 446 1328 q 536 1304 497 1317 q 631 1283 599 1283 q 680 1292 657 1283 q 726 1318 703 1301 q 740 1324 735 1324 q 756 1308 751 1324 l 772 1236 q 774 1228 774 1233 q 757 1203 774 1215 z "},"Z":{"ha":946,"x_min":47,"x_max":893,"o":"m 76 0 q 53 6 60 0 q 47 28 47 11 l 47 78 q 51 103 47 94 q 71 135 54 113 l 544 833 q 549 843 549 840 q 533 851 549 851 l 108 851 q 90 857 94 851 q 85 878 85 863 l 85 1007 q 104 1031 85 1031 l 872 1031 q 888 1024 882 1031 q 893 1008 893 1018 l 893 951 q 889 930 893 939 q 874 906 885 921 l 389 197 q 386 189 386 194 q 401 181 386 181 l 863 181 q 888 160 888 181 l 888 25 q 881 7 888 14 q 861 0 874 0 l 76 0 z "},"Ź":{"ha":946,"x_min":47,"x_max":893,"o":"m 76 0 q 53 6 60 0 q 47 28 47 11 l 47 78 q 51 103 47 94 q 71 135 54 113 l 544 833 q 549 843 549 840 q 533 851 549 851 l 108 851 q 90 857 94 851 q 85 878 85 863 l 85 1007 q 104 1031 85 1031 l 872 1031 q 888 1024 882 1031 q 893 1008 893 1018 l 893 951 q 889 930 893 939 q 874 906 885 921 l 389 197 q 386 189 386 194 q 401 181 386 181 l 863 181 q 888 160 888 181 l 888 25 q 881 7 888 14 q 861 0 874 0 l 76 0 m 685 1232 q 688 1218 688 1224 q 664 1194 688 1203 l 343 1108 q 331 1107 338 1107 q 318 1110 322 1107 q 310 1124 314 1114 l 293 1172 l 290 1183 q 301 1200 290 1196 l 629 1338 q 636 1339 632 1339 q 653 1325 649 1339 l 685 1232 z "},"Ž":{"ha":946,"x_min":47,"x_max":893,"o":"m 76 0 q 53 6 60 0 q 47 28 47 11 l 47 78 q 51 103 47 94 q 71 135 54 113 l 544 833 q 549 843 549 840 q 533 851 549 851 l 108 851 q 90 857 94 851 q 85 878 85 863 l 85 1007 q 104 1031 85 1031 l 872 1031 q 888 1024 882 1031 q 893 1008 893 1018 l 893 951 q 889 930 893 939 q 874 906 885 921 l 389 197 q 386 189 386 194 q 401 181 386 181 l 863 181 q 888 160 888 181 l 888 25 q 881 7 888 14 q 861 0 874 0 l 76 0 m 571 1315 q 604 1326 582 1326 l 724 1326 q 738 1321 738 1326 q 726 1304 738 1315 l 578 1147 q 563 1135 569 1139 q 543 1131 556 1131 l 443 1131 q 417 1135 426 1131 q 397 1149 408 1139 l 247 1304 q 239 1319 239 1313 q 251 1326 239 1326 l 364 1326 q 382 1325 376 1326 q 396 1315 388 1324 l 465 1242 q 488 1225 479 1225 q 499 1233 493 1225 q 507 1242 506 1240 l 571 1315 z "},"Ż":{"ha":946,"x_min":47,"x_max":893,"o":"m 76 0 q 53 6 60 0 q 47 28 47 11 l 47 78 q 51 103 47 94 q 71 135 54 113 l 544 833 q 549 843 549 840 q 533 851 549 851 l 108 851 q 90 857 94 851 q 85 878 85 863 l 85 1007 q 104 1031 85 1031 l 872 1031 q 888 1024 882 1031 q 893 1008 893 1018 l 893 951 q 889 930 893 939 q 874 906 885 921 l 389 197 q 386 189 386 194 q 401 181 386 181 l 863 181 q 888 160 888 181 l 888 25 q 881 7 888 14 q 861 0 874 0 l 76 0 m 599 1153 q 590 1127 599 1135 q 561 1119 581 1119 l 411 1119 q 388 1126 394 1119 q 381 1150 381 1133 l 381 1299 q 403 1325 381 1325 l 576 1325 q 599 1300 599 1325 l 599 1153 z "},"Ẓ":{"ha":946,"x_min":47,"x_max":893,"o":"m 76 0 q 53 6 60 0 q 47 28 47 11 l 47 78 q 51 103 47 94 q 71 135 54 113 l 544 833 q 549 843 549 840 q 533 851 549 851 l 108 851 q 90 857 94 851 q 85 878 85 863 l 85 1007 q 104 1031 85 1031 l 872 1031 q 888 1024 882 1031 q 893 1008 893 1018 l 893 951 q 889 930 893 939 q 874 906 885 921 l 389 197 q 386 189 386 194 q 401 181 386 181 l 863 181 q 888 160 888 181 l 888 25 q 881 7 888 14 q 861 0 874 0 l 76 0 m 551 -203 q 545 -223 551 -217 q 524 -229 539 -229 l 408 -229 q 390 -224 394 -229 q 385 -207 385 -218 l 385 -85 q 388 -69 385 -74 q 401 -64 392 -64 l 536 -64 q 551 -83 551 -64 l 551 -203 z "},"a":{"ha":782,"x_min":38,"x_max":714,"o":"m 482 71 q 264 -14 390 -14 q 99 42 160 -14 q 38 189 38 99 q 144 376 38 306 q 439 451 251 447 l 489 456 q 503 460 497 456 q 510 475 510 465 l 510 504 q 479 588 510 558 q 392 617 449 617 q 247 533 294 617 q 229 519 242 519 q 217 521 222 519 l 78 553 q 65 568 65 556 q 71 589 65 576 q 190 710 104 669 q 401 750 275 750 q 640 690 567 750 q 714 518 714 629 l 714 31 q 708 7 714 14 q 688 0 703 0 l 544 0 q 524 10 531 0 q 515 39 518 19 l 514 69 q 503 82 513 82 q 482 71 497 82 m 510 328 q 506 346 510 340 q 489 351 501 351 l 450 349 q 308 310 369 344 q 246 217 246 276 q 275 151 246 175 q 356 126 304 126 q 464 164 419 126 q 510 238 510 200 l 510 328 z "},"á":{"ha":782,"x_min":38,"x_max":714,"o":"m 482 71 q 264 -14 390 -14 q 99 42 160 -14 q 38 189 38 99 q 144 376 38 306 q 439 451 251 447 l 489 456 q 503 460 497 456 q 510 475 510 465 l 510 504 q 479 588 510 558 q 392 617 449 617 q 247 533 294 617 q 229 519 242 519 q 217 521 222 519 l 78 553 q 65 568 65 556 q 71 589 65 576 q 190 710 104 669 q 401 750 275 750 q 640 690 567 750 q 714 518 714 629 l 714 31 q 708 7 714 14 q 688 0 703 0 l 544 0 q 524 10 531 0 q 515 39 518 19 l 514 69 q 503 82 513 82 q 482 71 497 82 m 510 328 q 506 346 510 340 q 489 351 501 351 l 450 349 q 308 310 369 344 q 246 217 246 276 q 275 151 246 175 q 356 126 304 126 q 464 164 419 126 q 510 238 510 200 l 510 328 m 596 938 q 599 924 599 929 q 575 900 599 908 l 254 814 q 242 813 249 813 q 229 816 233 813 q 221 829 225 819 l 204 878 l 201 889 q 213 906 201 901 l 540 1043 q 547 1044 543 1044 q 564 1031 560 1044 l 596 938 z "},"ă":{"ha":782,"x_min":38,"x_max":714,"o":"m 482 71 q 264 -14 390 -14 q 99 42 160 -14 q 38 189 38 99 q 144 376 38 306 q 439 451 251 447 l 489 456 q 503 460 497 456 q 510 475 510 465 l 510 504 q 479 588 510 558 q 392 617 449 617 q 247 533 294 617 q 229 519 242 519 q 217 521 222 519 l 78 553 q 65 568 65 556 q 71 589 65 576 q 190 710 104 669 q 401 750 275 750 q 640 690 567 750 q 714 518 714 629 l 714 31 q 708 7 714 14 q 688 0 703 0 l 544 0 q 524 10 531 0 q 515 39 518 19 l 514 69 q 503 82 513 82 q 482 71 497 82 m 510 328 q 506 346 510 340 q 489 351 501 351 l 450 349 q 308 310 369 344 q 246 217 246 276 q 275 151 246 175 q 356 126 304 126 q 464 164 419 126 q 510 238 510 200 l 510 328 m 631 1031 q 647 1026 643 1031 q 647 1010 650 1021 q 557 890 624 933 q 400 846 490 846 q 245 889 311 846 q 154 1011 179 932 l 153 1018 q 167 1031 153 1031 l 257 1031 q 273 1027 267 1031 q 286 1014 279 1024 q 333 969 303 988 q 400 951 364 951 q 467 969 435 951 q 517 1015 499 988 q 527 1028 522 1025 q 540 1031 532 1031 l 631 1031 z "},"â":{"ha":782,"x_min":38,"x_max":714,"o":"m 482 71 q 264 -14 390 -14 q 99 42 160 -14 q 38 189 38 99 q 144 376 38 306 q 439 451 251 447 l 489 456 q 503 460 497 456 q 510 475 510 465 l 510 504 q 479 588 510 558 q 392 617 449 617 q 247 533 294 617 q 229 519 242 519 q 217 521 222 519 l 78 553 q 65 568 65 556 q 71 589 65 576 q 190 710 104 669 q 401 750 275 750 q 640 690 567 750 q 714 518 714 629 l 714 31 q 708 7 714 14 q 688 0 703 0 l 544 0 q 524 10 531 0 q 515 39 518 19 l 514 69 q 503 82 513 82 q 482 71 497 82 m 510 328 q 506 346 510 340 q 489 351 501 351 l 450 349 q 308 310 369 344 q 246 217 246 276 q 275 151 246 175 q 356 126 304 126 q 464 164 419 126 q 510 238 510 200 l 510 328 m 418 931 q 407 942 413 938 q 397 947 401 947 q 376 931 390 947 l 307 857 q 293 847 299 849 q 275 846 288 846 l 163 846 q 150 853 150 846 q 158 868 150 860 l 308 1024 q 328 1038 319 1033 q 354 1042 338 1042 l 454 1042 q 474 1038 467 1042 q 489 1025 481 1033 l 638 868 q 649 851 649 857 q 635 846 649 846 l 515 846 q 482 857 493 846 l 418 931 z "},"ȁ":{"ha":782,"x_min":38,"x_max":714,"o":"m 482 71 q 264 -14 390 -14 q 99 42 160 -14 q 38 189 38 99 q 144 376 38 306 q 439 451 251 447 l 489 456 q 503 460 497 456 q 510 475 510 465 l 510 504 q 479 588 510 558 q 392 617 449 617 q 247 533 294 617 q 229 519 242 519 q 217 521 222 519 l 78 553 q 65 568 65 556 q 71 589 65 576 q 190 710 104 669 q 401 750 275 750 q 640 690 567 750 q 714 518 714 629 l 714 31 q 708 7 714 14 q 688 0 703 0 l 544 0 q 524 10 531 0 q 515 39 518 19 l 514 69 q 503 82 513 82 q 482 71 497 82 m 510 328 q 506 346 510 340 q 489 351 501 351 l 450 349 q 308 310 369 344 q 246 217 246 276 q 275 151 246 175 q 356 126 304 126 q 464 164 419 126 q 510 238 510 200 l 510 328 m 574 865 q 579 853 579 860 q 571 836 579 844 l 535 796 q 519 788 526 788 q 497 796 511 788 l 418 849 q 410 836 415 843 l 374 796 q 358 788 365 788 q 338 796 350 788 l 146 922 q 131 943 131 932 q 140 965 131 953 l 200 1036 q 215 1044 207 1044 q 228 1039 222 1044 l 303 968 l 361 1036 q 375 1044 367 1044 q 388 1039 382 1044 l 574 865 z "},"ä":{"ha":782,"x_min":38,"x_max":714,"o":"m 482 71 q 264 -14 390 -14 q 99 42 160 -14 q 38 189 38 99 q 144 376 38 306 q 439 451 251 447 l 489 456 q 503 460 497 456 q 510 475 510 465 l 510 504 q 479 588 510 558 q 392 617 449 617 q 247 533 294 617 q 229 519 242 519 q 217 521 222 519 l 78 553 q 65 568 65 556 q 71 589 65 576 q 190 710 104 669 q 401 750 275 750 q 640 690 567 750 q 714 518 714 629 l 714 31 q 708 7 714 14 q 688 0 703 0 l 544 0 q 524 10 531 0 q 515 39 518 19 l 514 69 q 503 82 513 82 q 482 71 497 82 m 510 328 q 506 346 510 340 q 489 351 501 351 l 450 349 q 308 310 369 344 q 246 217 246 276 q 275 151 246 175 q 356 126 304 126 q 464 164 419 126 q 510 238 510 200 l 510 328 m 353 878 q 345 856 353 863 q 319 850 338 850 l 190 850 q 169 856 175 850 q 164 875 164 863 l 164 1007 q 183 1031 164 1031 l 333 1031 q 353 1008 353 1031 l 353 878 m 635 878 q 627 856 635 863 q 601 850 619 850 l 472 850 q 451 856 457 850 q 446 875 446 863 l 446 1007 q 465 1031 446 1031 l 615 1031 q 635 1008 635 1031 l 635 878 z "},"à":{"ha":782,"x_min":38,"x_max":714,"o":"m 482 71 q 264 -14 390 -14 q 99 42 160 -14 q 38 189 38 99 q 144 376 38 306 q 439 451 251 447 l 489 456 q 503 460 497 456 q 510 475 510 465 l 510 504 q 479 588 510 558 q 392 617 449 617 q 247 533 294 617 q 229 519 242 519 q 217 521 222 519 l 78 553 q 65 568 65 556 q 71 589 65 576 q 190 710 104 669 q 401 750 275 750 q 640 690 567 750 q 714 518 714 629 l 714 31 q 708 7 714 14 q 688 0 703 0 l 544 0 q 524 10 531 0 q 515 39 518 19 l 514 69 q 503 82 513 82 q 482 71 497 82 m 510 328 q 506 346 510 340 q 489 351 501 351 l 450 349 q 308 310 369 344 q 246 217 246 276 q 275 151 246 175 q 356 126 304 126 q 464 164 419 126 q 510 238 510 200 l 510 328 m 229 1031 q 239 1042 232 1039 q 254 1043 246 1046 l 581 906 q 592 889 592 901 q 589 878 592 882 l 572 829 q 553 813 567 813 q 540 814 544 813 l 218 900 q 194 924 194 908 q 197 938 194 929 l 229 1031 z "},"ȃ":{"ha":782,"x_min":38,"x_max":714,"o":"m 482 71 q 264 -14 390 -14 q 99 42 160 -14 q 38 189 38 99 q 144 376 38 306 q 439 451 251 447 l 489 456 q 503 460 497 456 q 510 475 510 465 l 510 504 q 479 588 510 558 q 392 617 449 617 q 247 533 294 617 q 229 519 242 519 q 217 521 222 519 l 78 553 q 65 568 65 556 q 71 589 65 576 q 190 710 104 669 q 401 750 275 750 q 640 690 567 750 q 714 518 714 629 l 714 31 q 708 7 714 14 q 688 0 703 0 l 544 0 q 524 10 531 0 q 515 39 518 19 l 514 69 q 503 82 513 82 q 482 71 497 82 m 510 328 q 506 346 510 340 q 489 351 501 351 l 450 349 q 308 310 369 344 q 246 217 246 276 q 275 151 246 175 q 356 126 304 126 q 464 164 419 126 q 510 238 510 200 l 510 328 m 540 850 q 527 853 532 850 q 517 865 522 856 q 467 911 499 893 q 400 929 435 929 q 333 911 364 929 q 285 867 303 893 q 274 853 279 857 q 257 850 268 850 l 167 850 q 155 856 158 850 q 154 868 151 861 q 245 990 179 947 q 400 1033 311 1033 q 556 990 490 1033 q 647 871 622 947 l 649 863 q 631 850 649 850 l 540 850 z "},"ā":{"ha":782,"x_min":38,"x_max":714,"o":"m 482 71 q 264 -14 390 -14 q 99 42 160 -14 q 38 189 38 99 q 144 376 38 306 q 439 451 251 447 l 489 456 q 503 460 497 456 q 510 475 510 465 l 510 504 q 479 588 510 558 q 392 617 449 617 q 247 533 294 617 q 229 519 242 519 q 217 521 222 519 l 78 553 q 65 568 65 556 q 71 589 65 576 q 190 710 104 669 q 401 750 275 750 q 640 690 567 750 q 714 518 714 629 l 714 31 q 708 7 714 14 q 688 0 703 0 l 544 0 q 524 10 531 0 q 515 39 518 19 l 514 69 q 503 82 513 82 q 482 71 497 82 m 510 328 q 506 346 510 340 q 489 351 501 351 l 450 349 q 308 310 369 344 q 246 217 246 276 q 275 151 246 175 q 356 126 304 126 q 464 164 419 126 q 510 238 510 200 l 510 328 m 653 913 q 621 886 653 886 l 171 886 q 151 892 157 886 q 146 911 146 899 l 146 1000 q 164 1022 146 1022 l 635 1022 q 648 1017 643 1022 q 653 1003 653 1011 l 653 913 z "},"ą":{"ha":782,"x_min":38,"x_max":729,"o":"m 708 -118 q 721 -115 714 -115 q 728 -119 726 -115 q 729 -131 729 -122 l 729 -190 q 718 -211 729 -206 q 660 -229 699 -221 q 579 -237 621 -237 q 464 -208 506 -237 q 422 -121 422 -178 q 447 -52 422 -82 q 533 1 471 -22 q 522 14 525 6 q 515 39 518 22 l 514 69 q 503 82 513 82 q 482 71 497 82 q 264 -14 390 -14 q 99 42 160 -14 q 38 189 38 99 q 144 376 38 306 q 439 451 251 447 l 489 456 q 503 460 497 456 q 510 475 510 465 l 510 504 q 479 588 510 558 q 392 617 449 617 q 247 533 294 617 q 229 519 242 519 q 217 521 222 519 l 78 553 q 65 568 65 556 q 71 589 65 576 q 190 710 104 669 q 401 750 275 750 q 640 690 567 750 q 714 518 714 629 l 714 31 q 708 7 714 14 q 688 0 703 0 l 686 0 q 601 -45 626 -24 q 576 -93 576 -67 q 589 -128 576 -117 q 628 -139 601 -139 q 708 -118 669 -139 m 510 328 q 506 346 510 340 q 489 351 501 351 l 450 349 q 308 310 369 344 q 246 217 246 276 q 275 151 246 175 q 356 126 304 126 q 464 164 419 126 q 510 238 510 200 l 510 328 z "},"å":{"ha":782,"x_min":38,"x_max":714,"o":"m 482 71 q 264 -14 390 -14 q 99 42 160 -14 q 38 189 38 99 q 144 376 38 306 q 439 451 251 447 l 489 456 q 503 460 497 456 q 510 475 510 465 l 510 504 q 479 588 510 558 q 392 617 449 617 q 247 533 294 617 q 229 519 242 519 q 217 521 222 519 l 78 553 q 65 568 65 556 q 71 589 65 576 q 190 710 104 669 q 401 750 275 750 q 640 690 567 750 q 714 518 714 629 l 714 31 q 708 7 714 14 q 688 0 703 0 l 544 0 q 524 10 531 0 q 515 39 518 19 l 514 69 q 503 82 513 82 q 482 71 497 82 m 510 328 q 506 346 510 340 q 489 351 501 351 l 450 349 q 308 310 369 344 q 246 217 246 276 q 275 151 246 175 q 356 126 304 126 q 464 164 419 126 q 510 238 510 200 l 510 328 m 556 963 q 510 852 556 897 q 400 807 465 807 q 290 853 335 807 q 244 965 244 899 q 290 1072 244 1028 q 400 1115 336 1115 q 510 1071 465 1115 q 556 963 556 1026 m 469 961 q 449 1012 469 992 q 399 1032 429 1032 q 348 1012 369 1032 q 326 961 326 992 q 349 911 326 933 q 399 889 371 889 q 449 910 428 889 q 469 961 469 932 z "},"ǻ":{"ha":782,"x_min":38,"x_max":714,"o":"m 482 71 q 264 -14 390 -14 q 99 42 160 -14 q 38 189 38 99 q 144 376 38 306 q 439 451 251 447 l 489 456 q 503 460 497 456 q 510 475 510 465 l 510 504 q 479 588 510 558 q 392 617 449 617 q 247 533 294 617 q 229 519 242 519 q 217 521 222 519 l 78 553 q 65 568 65 556 q 71 589 65 576 q 190 710 104 669 q 401 750 275 750 q 640 690 567 750 q 714 518 714 629 l 714 31 q 708 7 714 14 q 688 0 703 0 l 544 0 q 524 10 531 0 q 515 39 518 19 l 514 69 q 503 82 513 82 q 482 71 497 82 m 510 328 q 506 346 510 340 q 489 351 501 351 l 450 349 q 308 310 369 344 q 246 217 246 276 q 275 151 246 175 q 356 126 304 126 q 464 164 419 126 q 510 238 510 200 l 510 328 m 599 1224 q 601 1210 601 1215 q 578 1186 601 1194 l 257 1100 q 244 1099 251 1099 q 232 1102 236 1099 q 224 1115 228 1106 l 207 1164 l 204 1175 q 215 1192 204 1188 l 543 1329 q 550 1331 546 1331 q 567 1317 563 1331 l 599 1224 m 574 939 q 528 828 574 874 q 418 783 483 783 q 308 829 353 783 q 263 942 263 875 q 308 1048 263 1004 q 418 1092 354 1092 q 528 1047 483 1092 q 574 939 574 1003 m 488 938 q 467 988 488 968 q 417 1008 447 1008 q 366 988 388 1008 q 344 938 344 968 q 367 888 344 910 q 417 865 389 865 q 467 887 446 865 q 488 938 488 908 z "},"ã":{"ha":782,"x_min":38,"x_max":714,"o":"m 482 71 q 264 -14 390 -14 q 99 42 160 -14 q 38 189 38 99 q 144 376 38 306 q 439 451 251 447 l 489 456 q 503 460 497 456 q 510 475 510 465 l 510 504 q 479 588 510 558 q 392 617 449 617 q 247 533 294 617 q 229 519 242 519 q 217 521 222 519 l 78 553 q 65 568 65 556 q 71 589 65 576 q 190 710 104 669 q 401 750 275 750 q 640 690 567 750 q 714 518 714 629 l 714 31 q 708 7 714 14 q 688 0 703 0 l 544 0 q 524 10 531 0 q 515 39 518 19 l 514 69 q 503 82 513 82 q 482 71 497 82 m 510 328 q 506 346 510 340 q 489 351 501 351 l 450 349 q 308 310 369 344 q 246 217 246 276 q 275 151 246 175 q 356 126 304 126 q 464 164 419 126 q 510 238 510 200 l 510 328 m 632 908 q 506 871 578 871 q 456 876 479 871 q 399 892 433 881 q 345 906 367 901 q 300 911 324 911 q 253 904 272 911 q 207 879 233 897 q 193 872 197 872 q 181 889 185 872 l 161 949 q 158 963 158 957 q 169 982 158 971 q 226 1020 199 1007 q 293 1033 253 1033 q 347 1028 321 1033 q 411 1010 372 1022 q 506 989 474 989 q 555 998 532 989 q 601 1024 578 1007 q 615 1029 610 1029 q 631 1014 626 1029 l 647 942 q 649 933 649 939 q 632 908 649 921 z "},"æ":{"ha":1276,"x_min":38,"x_max":1239,"o":"m 749 328 q 731 322 736 328 q 726 301 726 317 q 778 180 726 228 q 908 132 831 132 q 1001 154 961 132 q 1086 225 1042 176 q 1097 231 1092 231 q 1111 226 1101 231 l 1210 185 q 1221 171 1221 181 q 1215 157 1221 163 q 1073 25 1151 64 q 881 -14 994 -14 q 717 22 789 -14 q 593 114 644 57 q 581 114 586 119 q 448 19 519 51 q 275 -14 376 -14 q 99 42 161 -14 q 38 196 38 99 q 134 374 38 307 q 418 450 231 440 l 485 456 q 510 475 510 456 l 510 504 q 479 588 510 558 q 390 617 449 617 q 309 597 346 617 q 247 533 272 576 q 241 522 244 525 q 231 519 238 519 q 217 521 222 519 l 78 553 q 68 574 68 554 q 71 589 68 581 q 189 710 114 671 q 399 750 264 750 q 653 663 583 749 q 878 750 740 750 q 1065 704 983 750 q 1193 570 1147 658 q 1239 361 1239 482 q 1234 336 1239 343 q 1214 328 1229 329 l 749 328 m 886 619 q 774 573 819 619 q 731 446 729 526 l 1006 444 q 1024 449 1019 444 q 1029 465 1029 453 q 1013 537 1029 501 q 963 596 996 572 q 886 619 931 619 m 510 319 q 486 343 510 343 l 435 339 q 301 299 356 333 q 246 210 246 265 q 274 143 246 168 q 354 118 303 118 q 463 150 417 118 q 510 229 510 182 l 510 319 z "},"ǽ":{"ha":1276,"x_min":38,"x_max":1239,"o":"m 749 328 q 731 322 736 328 q 726 301 726 317 q 778 180 726 228 q 908 132 831 132 q 1001 154 961 132 q 1086 225 1042 176 q 1097 231 1092 231 q 1111 226 1101 231 l 1210 185 q 1221 171 1221 181 q 1215 157 1221 163 q 1073 25 1151 64 q 881 -14 994 -14 q 717 22 789 -14 q 593 114 644 57 q 581 114 586 119 q 448 19 519 51 q 275 -14 376 -14 q 99 42 161 -14 q 38 196 38 99 q 134 374 38 307 q 418 450 231 440 l 485 456 q 510 475 510 456 l 510 504 q 479 588 510 558 q 390 617 449 617 q 309 597 346 617 q 247 533 272 576 q 241 522 244 525 q 231 519 238 519 q 217 521 222 519 l 78 553 q 68 574 68 554 q 71 589 68 581 q 189 710 114 671 q 399 750 264 750 q 653 663 583 749 q 878 750 740 750 q 1065 704 983 750 q 1193 570 1147 658 q 1239 361 1239 482 q 1234 336 1239 343 q 1214 328 1229 329 l 749 328 m 886 619 q 774 573 819 619 q 731 446 729 526 l 1006 444 q 1024 449 1019 444 q 1029 465 1029 453 q 1013 537 1029 501 q 963 596 996 572 q 886 619 931 619 m 510 319 q 486 343 510 343 l 435 339 q 301 299 356 333 q 246 210 246 265 q 274 143 246 168 q 354 118 303 118 q 463 150 417 118 q 510 229 510 182 l 510 319 m 828 938 q 831 924 831 929 q 807 900 831 908 l 486 814 q 474 813 481 813 q 461 816 465 813 q 453 829 457 819 l 436 878 l 433 889 q 444 906 433 901 l 772 1043 q 779 1044 775 1044 q 796 1031 792 1044 l 828 938 z "},"b":{"ha":846,"x_min":76,"x_max":800,"o":"m 108 0 q 84 8 92 0 q 76 31 76 15 l 76 1004 q 83 1024 76 1017 q 100 1031 89 1031 l 269 1031 q 290 1006 290 1031 l 290 682 q 300 665 290 665 q 315 672 306 665 q 510 750 399 750 q 724 647 649 750 q 800 372 800 544 q 717 90 800 193 q 483 -14 633 -14 q 356 18 413 -14 q 264 99 300 50 q 254 106 257 106 q 247 94 250 106 l 231 28 q 219 6 226 13 q 199 0 213 0 l 108 0 m 290 254 q 331 156 290 194 q 429 117 372 117 q 582 369 582 117 q 545 555 582 496 q 435 614 508 614 q 290 540 351 614 l 290 254 z "},"c":{"ha":765,"x_min":43,"x_max":733,"o":"m 413 750 q 617 688 536 750 q 726 539 699 626 q 729 525 729 528 q 710 510 729 513 l 564 496 l 560 496 q 543 511 547 496 q 492 585 518 561 q 419 610 467 610 q 302 549 344 610 q 260 368 260 488 q 305 185 260 246 q 431 124 350 124 q 524 153 488 124 q 594 242 560 182 q 603 249 599 249 q 618 249 608 250 l 721 225 q 733 211 733 224 l 731 199 q 623 52 703 118 q 413 -14 543 -14 q 222 34 306 -14 q 90 168 138 82 q 43 365 43 254 q 91 565 43 478 q 223 701 139 653 q 413 750 307 750 z "},"ć":{"ha":765,"x_min":43,"x_max":733,"o":"m 413 750 q 617 688 536 750 q 726 539 699 626 q 729 525 729 528 q 710 510 729 513 l 564 496 l 560 496 q 543 511 547 496 q 492 585 518 561 q 419 610 467 610 q 302 549 344 610 q 260 368 260 488 q 305 185 260 246 q 431 124 350 124 q 524 153 488 124 q 594 242 560 182 q 603 249 599 249 q 618 249 608 250 l 721 225 q 733 211 733 224 l 731 199 q 623 52 703 118 q 413 -14 543 -14 q 222 34 306 -14 q 90 168 138 82 q 43 365 43 254 q 91 565 43 478 q 223 701 139 653 q 413 750 307 750 m 608 938 q 611 924 611 929 q 588 900 611 908 l 267 814 q 254 813 261 813 q 242 816 246 813 q 233 829 238 819 l 217 878 l 214 889 q 225 906 214 901 l 553 1043 q 560 1044 556 1044 q 576 1031 572 1044 l 608 938 z "},"č":{"ha":765,"x_min":43,"x_max":733,"o":"m 413 750 q 617 688 536 750 q 726 539 699 626 q 729 525 729 528 q 710 510 729 513 l 564 496 l 560 496 q 543 511 547 496 q 492 585 518 561 q 419 610 467 610 q 302 549 344 610 q 260 368 260 488 q 305 185 260 246 q 431 124 350 124 q 524 153 488 124 q 594 242 560 182 q 603 249 599 249 q 618 249 608 250 l 721 225 q 733 211 733 224 l 731 199 q 623 52 703 118 q 413 -14 543 -14 q 222 34 306 -14 q 90 168 138 82 q 43 365 43 254 q 91 565 43 478 q 223 701 139 653 q 413 750 307 750 m 494 1021 q 528 1032 506 1032 l 647 1032 q 661 1026 661 1032 q 650 1010 661 1021 l 501 853 q 486 840 493 844 q 467 836 479 836 l 367 836 q 341 840 350 836 q 321 854 332 844 l 171 1010 q 163 1025 163 1018 q 175 1032 163 1032 l 288 1032 q 306 1031 300 1032 q 319 1021 311 1029 l 389 947 q 411 931 403 931 q 423 938 417 931 q 431 947 429 946 l 494 1021 z "},"ç":{"ha":765,"x_min":43,"x_max":733,"o":"m 721 225 q 733 211 733 224 l 731 199 q 637 63 706 126 q 457 -11 568 0 l 435 -65 q 442 -75 431 -75 q 544 -110 511 -76 q 578 -187 578 -143 q 528 -272 578 -240 q 406 -304 478 -304 q 251 -271 311 -304 q 244 -253 239 -264 l 264 -204 q 279 -199 268 -194 q 379 -229 331 -229 q 431 -217 413 -229 q 450 -185 450 -206 q 422 -142 450 -157 q 329 -128 393 -128 q 318 -114 311 -128 l 363 -11 q 196 50 268 0 q 83 182 124 100 q 43 365 43 264 q 91 565 43 478 q 223 701 139 653 q 413 750 307 750 q 617 688 536 750 q 726 539 699 626 q 729 525 729 528 q 710 510 729 513 l 564 496 l 560 496 q 543 511 547 496 q 492 585 518 561 q 419 610 467 610 q 302 549 344 610 q 260 368 260 488 q 305 185 260 246 q 431 124 350 124 q 524 153 488 124 q 594 242 560 182 q 603 249 599 249 q 618 249 608 250 l 721 225 z "},"ĉ":{"ha":765,"x_min":43,"x_max":733,"o":"m 413 750 q 617 688 536 750 q 726 539 699 626 q 729 525 729 528 q 710 510 729 513 l 564 496 l 560 496 q 543 511 547 496 q 492 585 518 561 q 419 610 467 610 q 302 549 344 610 q 260 368 260 488 q 305 185 260 246 q 431 124 350 124 q 524 153 488 124 q 594 242 560 182 q 603 249 599 249 q 618 249 608 250 l 721 225 q 733 211 733 224 l 731 199 q 623 52 703 118 q 413 -14 543 -14 q 222 34 306 -14 q 90 168 138 82 q 43 365 43 254 q 91 565 43 478 q 223 701 139 653 q 413 750 307 750 m 431 931 q 419 942 425 938 q 410 947 414 947 q 389 931 403 947 l 319 857 q 306 847 311 849 q 288 846 300 846 l 175 846 q 163 853 163 846 q 171 868 163 860 l 321 1024 q 341 1038 332 1033 q 367 1042 350 1042 l 467 1042 q 486 1038 479 1042 q 501 1025 493 1033 l 650 868 q 661 851 661 857 q 647 846 661 846 l 528 846 q 494 857 506 846 l 431 931 z "},"ċ":{"ha":765,"x_min":43,"x_max":733,"o":"m 413 750 q 617 688 536 750 q 726 539 699 626 q 729 525 729 528 q 710 510 729 513 l 564 496 l 560 496 q 543 511 547 496 q 492 585 518 561 q 419 610 467 610 q 302 549 344 610 q 260 368 260 488 q 305 185 260 246 q 431 124 350 124 q 524 153 488 124 q 594 242 560 182 q 603 249 599 249 q 618 249 608 250 l 721 225 q 733 211 733 224 l 731 199 q 623 52 703 118 q 413 -14 543 -14 q 222 34 306 -14 q 90 168 138 82 q 43 365 43 254 q 91 565 43 478 q 223 701 139 653 q 413 750 307 750 m 522 858 q 513 833 522 840 q 485 825 504 825 l 335 825 q 311 832 318 825 q 304 856 304 839 l 304 1004 q 326 1031 304 1031 l 500 1031 q 522 1006 522 1031 l 522 858 z "},"d":{"ha":846,"x_min":46,"x_max":769,"o":"m 588 0 q 558 28 558 0 l 558 67 q 551 78 558 78 q 539 72 547 78 q 451 10 499 33 q 336 -14 403 -14 q 126 83 206 -14 q 46 363 46 181 q 87 565 46 476 q 197 701 128 653 q 350 750 267 750 q 448 732 404 750 q 532 676 492 714 q 546 669 542 669 q 556 688 556 669 l 556 1006 q 578 1031 556 1031 l 747 1031 q 763 1024 757 1031 q 769 1004 769 1017 l 769 29 q 763 7 769 14 q 738 0 756 0 l 588 0 m 556 544 q 492 596 524 579 q 422 613 461 613 q 306 552 349 613 q 263 365 263 492 q 304 178 263 238 q 419 119 346 119 q 515 156 475 119 q 556 242 556 193 l 556 544 z "},"ð":{"ha":832,"x_min":43,"x_max":789,"o":"m 789 381 q 742 173 789 263 q 611 35 696 83 q 414 -14 526 -14 q 222 33 306 -14 q 90 164 138 81 q 43 350 43 247 q 91 542 43 457 q 224 674 139 626 q 413 722 308 722 q 483 700 458 722 q 350 843 438 781 l 189 751 q 176 747 181 747 q 160 760 168 747 l 142 789 q 136 804 136 796 q 143 815 136 813 l 275 889 q 150 946 215 922 q 142 953 143 949 q 147 964 140 958 l 238 1036 q 253 1044 246 1044 l 265 1042 q 432 976 361 1013 l 547 1040 q 558 1044 553 1044 q 568 1039 563 1044 l 594 992 q 596 985 596 989 q 590 975 596 979 l 508 929 q 717 692 646 835 q 789 381 789 550 m 417 128 q 532 188 492 128 q 572 354 572 247 q 531 524 572 464 q 417 585 490 585 q 301 524 343 585 q 260 354 260 463 q 301 188 260 247 q 417 128 343 128 z "},"ď":{"ha":1036,"x_min":46,"x_max":997,"o":"m 588 0 q 558 28 558 0 l 558 67 q 551 78 558 78 q 539 72 547 78 q 451 10 499 33 q 336 -14 403 -14 q 126 83 206 -14 q 46 363 46 181 q 87 565 46 476 q 197 701 128 653 q 350 750 267 750 q 448 732 404 750 q 532 676 492 714 q 546 669 542 669 q 556 688 556 669 l 556 1006 q 578 1031 556 1031 l 747 1031 q 763 1024 757 1031 q 769 1004 769 1017 l 769 29 q 763 7 769 14 q 738 0 756 0 l 588 0 m 556 544 q 492 596 524 579 q 422 613 461 613 q 306 552 349 613 q 263 365 263 492 q 304 178 263 238 q 419 119 346 119 q 515 156 475 119 q 556 242 556 193 l 556 544 m 865 717 q 853 722 857 717 q 853 735 850 728 l 896 839 q 899 853 899 844 q 888 864 899 863 l 874 865 q 858 872 863 867 q 853 886 853 876 l 853 1013 q 869 1031 853 1031 l 982 1031 q 997 1015 997 1031 l 997 865 q 996 859 997 861 q 994 854 994 857 l 943 735 q 933 721 940 725 q 908 717 925 717 l 865 717 z "},"đ":{"ha":860,"x_min":46,"x_max":838,"o":"m 819 944 q 833 939 828 944 q 838 924 838 933 l 838 851 q 829 831 838 838 q 804 825 821 825 l 769 825 l 769 29 q 763 7 769 14 q 738 0 756 0 l 588 0 q 558 28 558 0 l 558 67 q 551 78 558 78 q 539 72 547 78 q 451 10 499 33 q 336 -14 403 -14 q 126 83 206 -14 q 46 363 46 181 q 87 565 46 476 q 197 701 128 653 q 350 750 267 750 q 448 732 404 750 q 532 676 492 714 q 546 669 542 669 q 556 688 556 669 l 556 825 l 379 825 q 360 831 365 825 q 354 849 354 836 l 354 922 q 372 944 354 944 l 556 944 l 556 1006 q 578 1031 556 1031 l 747 1031 q 763 1024 757 1031 q 769 1004 769 1017 l 769 944 l 819 944 m 556 544 q 492 596 524 579 q 422 613 461 613 q 306 552 349 613 q 263 365 263 492 q 304 178 263 238 q 419 119 346 119 q 515 156 475 119 q 556 242 556 193 l 556 544 z "},"ḍ":{"ha":846,"x_min":46,"x_max":769,"o":"m 588 0 q 558 28 558 0 l 558 67 q 551 78 558 78 q 539 72 547 78 q 451 10 499 33 q 336 -14 403 -14 q 126 83 206 -14 q 46 363 46 181 q 87 565 46 476 q 197 701 128 653 q 350 750 267 750 q 448 732 404 750 q 532 676 492 714 q 546 669 542 669 q 556 688 556 669 l 556 1006 q 578 1031 556 1031 l 747 1031 q 763 1024 757 1031 q 769 1004 769 1017 l 769 29 q 763 7 769 14 q 738 0 756 0 l 588 0 m 556 544 q 492 596 524 579 q 422 613 461 613 q 306 552 349 613 q 263 365 263 492 q 304 178 263 238 q 419 119 346 119 q 515 156 475 119 q 556 242 556 193 l 556 544 m 507 -203 q 501 -223 507 -217 q 479 -229 494 -229 l 364 -229 q 345 -224 350 -229 q 340 -207 340 -218 l 340 -85 q 344 -69 340 -74 q 357 -64 347 -64 l 492 -64 q 507 -83 507 -64 l 507 -203 z "},"ǳ":{"ha":1567,"x_min":46,"x_max":1528,"o":"m 588 0 q 558 28 558 0 l 558 67 q 551 78 558 78 q 539 72 547 78 q 451 10 499 33 q 336 -14 403 -14 q 126 83 206 -14 q 46 363 46 181 q 87 565 46 476 q 197 701 128 653 q 350 750 267 750 q 448 732 404 750 q 532 676 492 714 q 546 669 542 669 q 556 688 556 669 l 556 1006 q 578 1031 556 1031 l 747 1031 q 763 1024 757 1031 q 769 1004 769 1017 l 769 29 q 763 7 769 14 q 738 0 756 0 l 588 0 m 556 544 q 492 596 524 579 q 422 613 461 613 q 306 552 349 613 q 263 365 263 492 q 304 178 263 238 q 419 119 346 119 q 515 156 475 119 q 556 242 556 193 l 556 544 m 907 0 q 885 6 890 0 q 879 28 879 11 l 879 82 q 883 108 879 99 q 903 140 888 118 l 1242 582 q 1245 588 1243 585 q 1247 593 1247 590 q 1231 601 1247 601 l 935 601 q 915 607 921 601 q 910 626 910 613 l 910 714 q 929 736 910 736 l 1504 736 q 1519 731 1514 736 q 1525 715 1525 725 l 1525 654 q 1520 631 1525 642 q 1504 604 1515 619 l 1161 158 q 1154 144 1154 149 q 1169 136 1154 136 l 1503 136 q 1528 115 1528 136 l 1528 25 q 1500 0 1528 0 l 907 0 z "},"ǆ":{"ha":1567,"x_min":46,"x_max":1528,"o":"m 588 0 q 558 28 558 0 l 558 67 q 551 78 558 78 q 539 72 547 78 q 451 10 499 33 q 336 -14 403 -14 q 126 83 206 -14 q 46 363 46 181 q 87 565 46 476 q 197 701 128 653 q 350 750 267 750 q 448 732 404 750 q 532 676 492 714 q 546 669 542 669 q 556 688 556 669 l 556 1006 q 578 1031 556 1031 l 747 1031 q 763 1024 757 1031 q 769 1004 769 1017 l 769 29 q 763 7 769 14 q 738 0 756 0 l 588 0 m 556 544 q 492 596 524 579 q 422 613 461 613 q 306 552 349 613 q 263 365 263 492 q 304 178 263 238 q 419 119 346 119 q 515 156 475 119 q 556 242 556 193 l 556 544 m 907 0 q 885 6 890 0 q 879 28 879 11 l 879 82 q 883 108 879 99 q 903 140 888 118 l 1242 582 q 1245 588 1243 585 q 1247 593 1247 590 q 1231 601 1247 601 l 935 601 q 915 607 921 601 q 910 626 910 613 l 910 714 q 929 736 910 736 l 1504 736 q 1519 731 1514 736 q 1525 715 1525 725 l 1525 654 q 1520 631 1525 642 q 1504 604 1515 619 l 1161 158 q 1154 144 1154 149 q 1169 136 1154 136 l 1503 136 q 1528 115 1528 136 l 1528 25 q 1500 0 1528 0 l 907 0 m 1300 1021 q 1333 1032 1311 1032 l 1453 1032 q 1467 1026 1467 1032 q 1456 1010 1467 1021 l 1307 853 q 1292 840 1299 844 q 1272 836 1285 836 l 1172 836 q 1147 840 1156 836 q 1126 854 1138 844 l 976 1010 q 968 1025 968 1018 q 981 1032 968 1032 l 1093 1032 q 1111 1031 1106 1032 q 1125 1021 1117 1029 l 1194 947 q 1217 931 1208 931 q 1228 938 1222 931 q 1236 947 1235 946 l 1300 1021 z "},"e":{"ha":814,"x_min":43,"x_max":776,"o":"m 264 306 q 316 180 264 228 q 446 132 368 132 q 538 153 496 132 q 624 225 581 175 q 635 231 629 231 q 649 226 639 231 l 749 185 q 758 171 758 181 q 753 157 758 164 q 610 24 686 63 q 419 -14 533 -14 q 226 33 313 -14 q 92 165 140 81 q 43 357 43 249 q 93 563 43 474 q 228 701 143 653 q 415 750 314 750 q 603 703 521 750 q 731 569 685 657 q 776 361 776 482 q 773 336 776 343 q 753 328 769 329 l 281 328 q 264 306 264 328 m 543 444 q 563 448 558 444 q 567 464 567 451 q 550 536 567 500 q 501 596 533 572 q 424 619 469 619 q 310 571 354 619 q 267 446 265 522 l 543 444 z "},"é":{"ha":814,"x_min":43,"x_max":776,"o":"m 264 306 q 316 180 264 228 q 446 132 368 132 q 538 153 496 132 q 624 225 581 175 q 635 231 629 231 q 649 226 639 231 l 749 185 q 758 171 758 181 q 753 157 758 164 q 610 24 686 63 q 419 -14 533 -14 q 226 33 313 -14 q 92 165 140 81 q 43 357 43 249 q 93 563 43 474 q 228 701 143 653 q 415 750 314 750 q 603 703 521 750 q 731 569 685 657 q 776 361 776 482 q 773 336 776 343 q 753 328 769 329 l 281 328 q 264 306 264 328 m 543 444 q 563 448 558 444 q 567 464 567 451 q 550 536 567 500 q 501 596 533 572 q 424 619 469 619 q 310 571 354 619 q 267 446 265 522 l 543 444 m 613 938 q 615 924 615 929 q 592 900 615 908 l 271 814 q 258 813 265 813 q 246 816 250 813 q 238 829 242 819 l 221 878 l 218 889 q 229 906 218 901 l 557 1043 q 564 1044 560 1044 q 581 1031 576 1044 l 613 938 z "},"ĕ":{"ha":814,"x_min":43,"x_max":776,"o":"m 264 306 q 316 180 264 228 q 446 132 368 132 q 538 153 496 132 q 624 225 581 175 q 635 231 629 231 q 649 226 639 231 l 749 185 q 758 171 758 181 q 753 157 758 164 q 610 24 686 63 q 419 -14 533 -14 q 226 33 313 -14 q 92 165 140 81 q 43 357 43 249 q 93 563 43 474 q 228 701 143 653 q 415 750 314 750 q 603 703 521 750 q 731 569 685 657 q 776 361 776 482 q 773 336 776 343 q 753 328 769 329 l 281 328 q 264 306 264 328 m 543 444 q 563 448 558 444 q 567 464 567 451 q 550 536 567 500 q 501 596 533 572 q 424 619 469 619 q 310 571 354 619 q 267 446 265 522 l 543 444 m 647 1031 q 663 1026 660 1031 q 664 1010 667 1021 q 574 890 640 933 q 417 846 507 846 q 262 889 328 846 q 171 1011 196 932 l 169 1018 q 183 1031 169 1031 l 274 1031 q 290 1027 283 1031 q 303 1014 296 1024 q 350 969 319 988 q 417 951 381 951 q 483 969 451 951 q 533 1015 515 988 q 544 1028 539 1025 q 557 1031 549 1031 l 647 1031 z "},"ě":{"ha":814,"x_min":43,"x_max":776,"o":"m 264 306 q 316 180 264 228 q 446 132 368 132 q 538 153 496 132 q 624 225 581 175 q 635 231 629 231 q 649 226 639 231 l 749 185 q 758 171 758 181 q 753 157 758 164 q 610 24 686 63 q 419 -14 533 -14 q 226 33 313 -14 q 92 165 140 81 q 43 357 43 249 q 93 563 43 474 q 228 701 143 653 q 415 750 314 750 q 603 703 521 750 q 731 569 685 657 q 776 361 776 482 q 773 336 776 343 q 753 328 769 329 l 281 328 q 264 306 264 328 m 543 444 q 563 448 558 444 q 567 464 567 451 q 550 536 567 500 q 501 596 533 572 q 424 619 469 619 q 310 571 354 619 q 267 446 265 522 l 543 444 m 499 1021 q 532 1032 510 1032 l 651 1032 q 665 1026 665 1032 q 654 1010 665 1021 l 506 853 q 490 840 497 844 q 471 836 483 836 l 371 836 q 345 840 354 836 q 325 854 336 844 l 175 1010 q 167 1025 167 1018 q 179 1032 167 1032 l 292 1032 q 310 1031 304 1032 q 324 1021 315 1029 l 393 947 q 415 931 407 931 q 427 938 421 931 q 435 947 433 946 l 499 1021 z "},"ê":{"ha":814,"x_min":43,"x_max":776,"o":"m 264 306 q 316 180 264 228 q 446 132 368 132 q 538 153 496 132 q 624 225 581 175 q 635 231 629 231 q 649 226 639 231 l 749 185 q 758 171 758 181 q 753 157 758 164 q 610 24 686 63 q 419 -14 533 -14 q 226 33 313 -14 q 92 165 140 81 q 43 357 43 249 q 93 563 43 474 q 228 701 143 653 q 415 750 314 750 q 603 703 521 750 q 731 569 685 657 q 776 361 776 482 q 773 336 776 343 q 753 328 769 329 l 281 328 q 264 306 264 328 m 543 444 q 563 448 558 444 q 567 464 567 451 q 550 536 567 500 q 501 596 533 572 q 424 619 469 619 q 310 571 354 619 q 267 446 265 522 l 543 444 m 435 931 q 424 942 429 938 q 414 947 418 947 q 393 931 407 947 l 324 857 q 310 847 315 849 q 292 846 304 846 l 179 846 q 167 853 167 846 q 175 868 167 860 l 325 1024 q 345 1038 336 1033 q 371 1042 354 1042 l 471 1042 q 490 1038 483 1042 q 506 1025 497 1033 l 654 868 q 665 851 665 857 q 651 846 665 846 l 532 846 q 499 857 510 846 l 435 931 z "},"ȅ":{"ha":814,"x_min":43,"x_max":776,"o":"m 264 306 q 316 180 264 228 q 446 132 368 132 q 538 153 496 132 q 624 225 581 175 q 635 231 629 231 q 649 226 639 231 l 749 185 q 758 171 758 181 q 753 157 758 164 q 610 24 686 63 q 419 -14 533 -14 q 226 33 313 -14 q 92 165 140 81 q 43 357 43 249 q 93 563 43 474 q 228 701 143 653 q 415 750 314 750 q 603 703 521 750 q 731 569 685 657 q 776 361 776 482 q 773 336 776 343 q 753 328 769 329 l 281 328 q 264 306 264 328 m 543 444 q 563 448 558 444 q 567 464 567 451 q 550 536 567 500 q 501 596 533 572 q 424 619 469 619 q 310 571 354 619 q 267 446 265 522 l 543 444 m 590 865 q 596 853 596 860 q 588 836 596 844 l 551 796 q 536 788 543 788 q 514 796 528 788 l 435 849 q 426 836 432 843 l 390 796 q 375 788 382 788 q 354 796 367 788 l 163 922 q 147 943 147 932 q 157 965 147 953 l 217 1036 q 232 1044 224 1044 q 244 1039 239 1044 l 319 968 l 378 1036 q 392 1044 383 1044 q 404 1039 399 1044 l 590 865 z "},"ë":{"ha":814,"x_min":43,"x_max":776,"o":"m 264 306 q 316 180 264 228 q 446 132 368 132 q 538 153 496 132 q 624 225 581 175 q 635 231 629 231 q 649 226 639 231 l 749 185 q 758 171 758 181 q 753 157 758 164 q 610 24 686 63 q 419 -14 533 -14 q 226 33 313 -14 q 92 165 140 81 q 43 357 43 249 q 93 563 43 474 q 228 701 143 653 q 415 750 314 750 q 603 703 521 750 q 731 569 685 657 q 776 361 776 482 q 773 336 776 343 q 753 328 769 329 l 281 328 q 264 306 264 328 m 543 444 q 563 448 558 444 q 567 464 567 451 q 550 536 567 500 q 501 596 533 572 q 424 619 469 619 q 310 571 354 619 q 267 446 265 522 l 543 444 m 369 878 q 362 856 369 863 q 336 850 354 850 l 207 850 q 186 856 192 850 q 181 875 181 863 l 181 1007 q 200 1031 181 1031 l 350 1031 q 369 1008 369 1031 l 369 878 m 651 878 q 644 856 651 863 q 618 850 636 850 l 489 850 q 468 856 474 850 q 463 875 463 863 l 463 1007 q 482 1031 463 1031 l 632 1031 q 651 1008 651 1031 l 651 878 z "},"ė":{"ha":814,"x_min":43,"x_max":776,"o":"m 264 306 q 316 180 264 228 q 446 132 368 132 q 538 153 496 132 q 624 225 581 175 q 635 231 629 231 q 649 226 639 231 l 749 185 q 758 171 758 181 q 753 157 758 164 q 610 24 686 63 q 419 -14 533 -14 q 226 33 313 -14 q 92 165 140 81 q 43 357 43 249 q 93 563 43 474 q 228 701 143 653 q 415 750 314 750 q 603 703 521 750 q 731 569 685 657 q 776 361 776 482 q 773 336 776 343 q 753 328 769 329 l 281 328 q 264 306 264 328 m 543 444 q 563 448 558 444 q 567 464 567 451 q 550 536 567 500 q 501 596 533 572 q 424 619 469 619 q 310 571 354 619 q 267 446 265 522 l 543 444 m 517 858 q 508 833 517 840 q 479 825 499 825 l 329 825 q 306 832 313 825 q 299 856 299 839 l 299 1004 q 321 1031 299 1031 l 494 1031 q 517 1006 517 1031 l 517 858 z "},"ẹ":{"ha":814,"x_min":43,"x_max":776,"o":"m 264 306 q 316 180 264 228 q 446 132 368 132 q 538 153 496 132 q 624 225 581 175 q 635 231 629 231 q 649 226 639 231 l 749 185 q 758 171 758 181 q 753 157 758 164 q 610 24 686 63 q 419 -14 533 -14 q 226 33 313 -14 q 92 165 140 81 q 43 357 43 249 q 93 563 43 474 q 228 701 143 653 q 415 750 314 750 q 603 703 521 750 q 731 569 685 657 q 776 361 776 482 q 773 336 776 343 q 753 328 769 329 l 281 328 q 264 306 264 328 m 543 444 q 563 448 558 444 q 567 464 567 451 q 550 536 567 500 q 501 596 533 572 q 424 619 469 619 q 310 571 354 619 q 267 446 265 522 l 543 444 m 504 -203 q 498 -223 504 -217 q 476 -229 492 -229 l 361 -229 q 342 -224 347 -229 q 338 -207 338 -218 l 338 -85 q 341 -69 338 -74 q 354 -64 344 -64 l 489 -64 q 504 -83 504 -64 l 504 -203 z "},"è":{"ha":814,"x_min":43,"x_max":776,"o":"m 264 306 q 316 180 264 228 q 446 132 368 132 q 538 153 496 132 q 624 225 581 175 q 635 231 629 231 q 649 226 639 231 l 749 185 q 758 171 758 181 q 753 157 758 164 q 610 24 686 63 q 419 -14 533 -14 q 226 33 313 -14 q 92 165 140 81 q 43 357 43 249 q 93 563 43 474 q 228 701 143 653 q 415 750 314 750 q 603 703 521 750 q 731 569 685 657 q 776 361 776 482 q 773 336 776 343 q 753 328 769 329 l 281 328 q 264 306 264 328 m 543 444 q 563 448 558 444 q 567 464 567 451 q 550 536 567 500 q 501 596 533 572 q 424 619 469 619 q 310 571 354 619 q 267 446 265 522 l 543 444 m 246 1031 q 256 1042 249 1039 q 271 1043 263 1046 l 597 906 q 608 889 608 901 q 606 878 608 882 l 589 829 q 569 813 583 813 q 557 814 561 813 l 235 900 q 211 924 211 908 q 214 938 211 929 l 246 1031 z "},"ȇ":{"ha":814,"x_min":43,"x_max":776,"o":"m 264 306 q 316 180 264 228 q 446 132 368 132 q 538 153 496 132 q 624 225 581 175 q 635 231 629 231 q 649 226 639 231 l 749 185 q 758 171 758 181 q 753 157 758 164 q 610 24 686 63 q 419 -14 533 -14 q 226 33 313 -14 q 92 165 140 81 q 43 357 43 249 q 93 563 43 474 q 228 701 143 653 q 415 750 314 750 q 603 703 521 750 q 731 569 685 657 q 776 361 776 482 q 773 336 776 343 q 753 328 769 329 l 281 328 q 264 306 264 328 m 543 444 q 563 448 558 444 q 567 464 567 451 q 550 536 567 500 q 501 596 533 572 q 424 619 469 619 q 310 571 354 619 q 267 446 265 522 l 543 444 m 556 850 q 542 853 547 850 q 532 865 538 856 q 482 911 514 893 q 415 929 450 929 q 349 911 379 929 q 300 867 318 893 q 289 853 294 857 q 272 850 283 850 l 182 850 q 170 856 174 850 q 169 868 167 861 q 260 990 194 947 q 415 1033 326 1033 q 572 990 506 1033 q 663 871 638 947 l 664 863 q 646 850 664 850 l 556 850 z "},"ē":{"ha":814,"x_min":43,"x_max":776,"o":"m 264 306 q 316 180 264 228 q 446 132 368 132 q 538 153 496 132 q 624 225 581 175 q 635 231 629 231 q 649 226 639 231 l 749 185 q 758 171 758 181 q 753 157 758 164 q 610 24 686 63 q 419 -14 533 -14 q 226 33 313 -14 q 92 165 140 81 q 43 357 43 249 q 93 563 43 474 q 228 701 143 653 q 415 750 314 750 q 603 703 521 750 q 731 569 685 657 q 776 361 776 482 q 773 336 776 343 q 753 328 769 329 l 281 328 q 264 306 264 328 m 543 444 q 563 448 558 444 q 567 464 567 451 q 550 536 567 500 q 501 596 533 572 q 424 619 469 619 q 310 571 354 619 q 267 446 265 522 l 543 444 m 669 913 q 638 886 669 886 l 188 886 q 168 892 174 886 q 163 911 163 899 l 163 1000 q 181 1022 163 1022 l 651 1022 q 665 1017 660 1022 q 669 1003 669 1011 l 669 913 z "},"ę":{"ha":814,"x_min":43,"x_max":776,"o":"m 281 328 q 264 306 264 328 q 316 180 264 228 q 446 132 368 132 q 538 153 496 132 q 624 225 581 175 q 635 231 629 231 q 649 226 639 231 l 749 185 q 758 171 758 181 q 753 157 758 164 q 660 56 708 93 q 553 1 611 18 q 494 -36 511 -18 q 478 -76 478 -54 q 490 -111 478 -100 q 529 -122 503 -122 q 610 -101 571 -122 q 622 -99 615 -99 q 629 -102 628 -99 q 631 -114 631 -106 l 631 -174 q 619 -194 631 -189 q 561 -212 600 -204 q 481 -221 522 -221 q 365 -191 407 -221 q 324 -104 324 -161 q 375 -11 324 -47 q 203 47 279 -3 q 85 176 128 96 q 43 357 43 257 q 93 563 43 474 q 228 701 143 653 q 415 750 314 750 q 603 703 521 750 q 731 569 685 657 q 776 361 776 482 q 773 336 776 343 q 753 328 769 329 l 281 328 m 424 619 q 310 571 354 619 q 267 446 265 522 l 543 444 q 563 448 558 444 q 567 464 567 451 q 550 536 567 500 q 501 596 533 572 q 424 619 469 619 z "},"ẽ":{"ha":814,"x_min":43,"x_max":776,"o":"m 264 306 q 316 180 264 228 q 446 132 368 132 q 538 153 496 132 q 624 225 581 175 q 635 231 629 231 q 649 226 639 231 l 749 185 q 758 171 758 181 q 753 157 758 164 q 610 24 686 63 q 419 -14 533 -14 q 226 33 313 -14 q 92 165 140 81 q 43 357 43 249 q 93 563 43 474 q 228 701 143 653 q 415 750 314 750 q 603 703 521 750 q 731 569 685 657 q 776 361 776 482 q 773 336 776 343 q 753 328 769 329 l 281 328 q 264 306 264 328 m 543 444 q 563 448 558 444 q 567 464 567 451 q 550 536 567 500 q 501 596 533 572 q 424 619 469 619 q 310 571 354 619 q 267 446 265 522 l 543 444 m 649 908 q 522 871 594 871 q 473 876 496 871 q 415 892 450 881 q 362 906 383 901 q 317 911 340 911 q 269 904 289 911 q 224 879 250 897 q 210 872 214 872 q 197 889 201 872 l 178 949 q 175 963 175 957 q 186 982 175 971 q 242 1020 215 1007 q 310 1033 269 1033 q 363 1028 338 1033 q 428 1010 389 1022 q 522 989 490 989 q 572 998 549 989 q 618 1024 594 1007 q 632 1029 626 1029 q 647 1014 643 1029 l 664 942 q 665 933 665 939 q 649 908 665 921 z "},"f":{"ha":558,"x_min":28,"x_max":538,"o":"m 504 736 q 524 729 517 736 q 531 713 531 722 l 531 610 q 507 589 531 589 l 392 589 q 378 574 378 589 l 378 26 q 356 0 378 0 l 185 0 q 164 24 164 0 l 164 576 q 153 589 164 589 l 53 589 q 28 610 28 589 l 28 713 q 35 729 28 722 q 54 736 42 736 l 147 736 q 160 741 157 736 q 164 757 164 746 l 164 842 q 217 981 164 931 q 365 1031 269 1031 l 506 1031 q 536 1001 536 1031 l 538 911 q 517 888 538 888 l 442 888 q 392 865 411 888 q 372 806 372 842 l 372 751 q 389 736 372 736 l 504 736 z "},"g":{"ha":879,"x_min":10,"x_max":849,"o":"m 821 768 q 849 738 849 768 l 849 643 q 817 611 849 604 q 776 615 796 615 q 751 613 765 615 q 724 581 715 607 q 736 518 736 543 q 698 403 736 454 q 584 321 660 351 q 401 290 508 290 q 287 278 324 290 q 250 244 250 265 q 270 219 250 226 q 338 208 290 211 l 536 197 q 741 136 674 189 q 808 -4 808 83 q 706 -178 808 -112 q 414 -243 603 -243 q 10 -64 10 -243 q 44 12 10 -19 q 143 67 79 43 q 151 74 151 69 q 143 82 151 78 q 63 185 63 121 q 99 255 63 222 q 197 311 136 288 q 200 328 214 319 q 65 517 65 390 q 156 685 65 622 q 417 747 247 747 q 639 685 560 747 q 657 678 649 678 q 676 688 668 678 q 746 744 703 719 q 821 768 789 768 m 400 396 q 506 428 471 396 q 542 514 542 461 q 506 606 542 572 q 400 640 471 640 q 295 606 333 640 q 257 514 257 571 q 295 428 257 461 q 400 396 333 396 m 297 42 q 220 22 254 44 q 186 -36 186 -1 q 243 -114 186 -87 q 428 -140 300 -140 q 571 -115 521 -140 q 621 -42 621 -89 q 593 10 621 -10 q 511 32 565 29 l 297 42 z "},"ǵ":{"ha":879,"x_min":10,"x_max":849,"o":"m 821 768 q 849 738 849 768 l 849 643 q 817 611 849 604 q 776 615 796 615 q 751 613 765 615 q 724 581 715 607 q 736 518 736 543 q 698 403 736 454 q 584 321 660 351 q 401 290 508 290 q 287 278 324 290 q 250 244 250 265 q 270 219 250 226 q 338 208 290 211 l 536 197 q 741 136 674 189 q 808 -4 808 83 q 706 -178 808 -112 q 414 -243 603 -243 q 10 -64 10 -243 q 44 12 10 -19 q 143 67 79 43 q 151 74 151 69 q 143 82 151 78 q 63 185 63 121 q 99 255 63 222 q 197 311 136 288 q 200 328 214 319 q 65 517 65 390 q 156 685 65 622 q 417 747 247 747 q 639 685 560 747 q 657 678 649 678 q 676 688 668 678 q 746 744 703 719 q 821 768 789 768 m 400 396 q 506 428 471 396 q 542 514 542 461 q 506 606 542 572 q 400 640 471 640 q 295 606 333 640 q 257 514 257 571 q 295 428 257 461 q 400 396 333 396 m 297 42 q 220 22 254 44 q 186 -36 186 -1 q 243 -114 186 -87 q 428 -140 300 -140 q 571 -115 521 -140 q 621 -42 621 -89 q 593 10 621 -10 q 511 32 565 29 l 297 42 m 611 938 q 614 924 614 929 q 590 900 614 908 l 269 814 q 257 813 264 813 q 244 816 249 813 q 236 829 240 819 l 219 878 l 217 889 q 228 906 217 901 l 556 1043 q 563 1044 558 1044 q 579 1031 575 1044 l 611 938 z "},"ğ":{"ha":879,"x_min":10,"x_max":849,"o":"m 821 768 q 849 738 849 768 l 849 643 q 817 611 849 604 q 776 615 796 615 q 751 613 765 615 q 724 581 715 607 q 736 518 736 543 q 698 403 736 454 q 584 321 660 351 q 401 290 508 290 q 287 278 324 290 q 250 244 250 265 q 270 219 250 226 q 338 208 290 211 l 536 197 q 741 136 674 189 q 808 -4 808 83 q 706 -178 808 -112 q 414 -243 603 -243 q 10 -64 10 -243 q 44 12 10 -19 q 143 67 79 43 q 151 74 151 69 q 143 82 151 78 q 63 185 63 121 q 99 255 63 222 q 197 311 136 288 q 200 328 214 319 q 65 517 65 390 q 156 685 65 622 q 417 747 247 747 q 639 685 560 747 q 657 678 649 678 q 676 688 668 678 q 746 744 703 719 q 821 768 789 768 m 400 396 q 506 428 471 396 q 542 514 542 461 q 506 606 542 572 q 400 640 471 640 q 295 606 333 640 q 257 514 257 571 q 295 428 257 461 q 400 396 333 396 m 297 42 q 220 22 254 44 q 186 -36 186 -1 q 243 -114 186 -87 q 428 -140 300 -140 q 571 -115 521 -140 q 621 -42 621 -89 q 593 10 621 -10 q 511 32 565 29 l 297 42 m 646 1031 q 662 1026 658 1031 q 663 1010 665 1021 q 572 890 639 933 q 415 846 506 846 q 260 889 326 846 q 169 1011 194 932 l 168 1018 q 182 1031 168 1031 l 272 1031 q 288 1027 282 1031 q 301 1014 294 1024 q 349 969 318 988 q 415 951 379 951 q 482 969 450 951 q 532 1015 514 988 q 542 1028 538 1025 q 556 1031 547 1031 l 646 1031 z "},"ĝ":{"ha":879,"x_min":10,"x_max":849,"o":"m 821 768 q 849 738 849 768 l 849 643 q 817 611 849 604 q 776 615 796 615 q 751 613 765 615 q 724 581 715 607 q 736 518 736 543 q 698 403 736 454 q 584 321 660 351 q 401 290 508 290 q 287 278 324 290 q 250 244 250 265 q 270 219 250 226 q 338 208 290 211 l 536 197 q 741 136 674 189 q 808 -4 808 83 q 706 -178 808 -112 q 414 -243 603 -243 q 10 -64 10 -243 q 44 12 10 -19 q 143 67 79 43 q 151 74 151 69 q 143 82 151 78 q 63 185 63 121 q 99 255 63 222 q 197 311 136 288 q 200 328 214 319 q 65 517 65 390 q 156 685 65 622 q 417 747 247 747 q 639 685 560 747 q 657 678 649 678 q 676 688 668 678 q 746 744 703 719 q 821 768 789 768 m 400 396 q 506 428 471 396 q 542 514 542 461 q 506 606 542 572 q 400 640 471 640 q 295 606 333 640 q 257 514 257 571 q 295 428 257 461 q 400 396 333 396 m 297 42 q 220 22 254 44 q 186 -36 186 -1 q 243 -114 186 -87 q 428 -140 300 -140 q 571 -115 521 -140 q 621 -42 621 -89 q 593 10 621 -10 q 511 32 565 29 l 297 42 m 435 931 q 424 942 429 938 q 414 947 418 947 q 393 931 407 947 l 324 857 q 310 847 315 849 q 292 846 304 846 l 179 846 q 167 853 167 846 q 175 868 167 860 l 325 1024 q 345 1038 336 1033 q 371 1042 354 1042 l 471 1042 q 490 1038 483 1042 q 506 1025 497 1033 l 654 868 q 665 851 665 857 q 651 846 665 846 l 532 846 q 499 857 510 846 l 435 931 z "},"ģ":{"ha":879,"x_min":10,"x_max":849,"o":"m 356 844 q 336 864 336 844 l 336 981 q 338 989 336 985 q 342 996 340 993 l 407 1085 q 422 1098 414 1094 q 446 1101 429 1101 l 468 1101 q 483 1094 478 1101 q 482 1079 488 1086 l 439 1013 q 432 996 432 1003 q 437 985 432 989 q 450 981 442 981 l 461 981 q 482 975 476 981 q 488 954 488 969 l 488 868 q 482 851 488 857 q 467 844 476 844 l 356 844 m 821 768 q 849 738 849 768 l 849 643 q 817 611 849 604 q 776 615 796 615 q 751 613 765 615 q 724 581 715 607 q 736 518 736 543 q 698 403 736 454 q 584 321 660 351 q 401 290 508 290 q 287 278 324 290 q 250 244 250 265 q 270 219 250 226 q 338 208 290 211 l 536 197 q 741 136 674 189 q 808 -4 808 83 q 706 -178 808 -112 q 414 -243 603 -243 q 10 -64 10 -243 q 44 12 10 -19 q 143 67 79 43 q 151 74 151 69 q 143 82 151 78 q 63 185 63 121 q 99 255 63 222 q 197 311 136 288 q 200 328 214 319 q 65 517 65 390 q 156 685 65 622 q 417 747 247 747 q 639 685 560 747 q 657 678 649 678 q 676 688 668 678 q 746 744 703 719 q 821 768 789 768 m 400 396 q 506 428 471 396 q 542 514 542 461 q 506 606 542 572 q 400 640 471 640 q 295 606 333 640 q 257 514 257 571 q 295 428 257 461 q 400 396 333 396 m 297 42 q 220 22 254 44 q 186 -36 186 -1 q 243 -114 186 -87 q 428 -140 300 -140 q 571 -115 521 -140 q 621 -42 621 -89 q 593 10 621 -10 q 511 32 565 29 l 297 42 z "},"ġ":{"ha":879,"x_min":10,"x_max":849,"o":"m 821 768 q 849 738 849 768 l 849 643 q 817 611 849 604 q 776 615 796 615 q 751 613 765 615 q 724 581 715 607 q 736 518 736 543 q 698 403 736 454 q 584 321 660 351 q 401 290 508 290 q 287 278 324 290 q 250 244 250 265 q 270 219 250 226 q 338 208 290 211 l 536 197 q 741 136 674 189 q 808 -4 808 83 q 706 -178 808 -112 q 414 -243 603 -243 q 10 -64 10 -243 q 44 12 10 -19 q 143 67 79 43 q 151 74 151 69 q 143 82 151 78 q 63 185 63 121 q 99 255 63 222 q 197 311 136 288 q 200 328 214 319 q 65 517 65 390 q 156 685 65 622 q 417 747 247 747 q 639 685 560 747 q 657 678 649 678 q 676 688 668 678 q 746 744 703 719 q 821 768 789 768 m 400 396 q 506 428 471 396 q 542 514 542 461 q 506 606 542 572 q 400 640 471 640 q 295 606 333 640 q 257 514 257 571 q 295 428 257 461 q 400 396 333 396 m 297 42 q 220 22 254 44 q 186 -36 186 -1 q 243 -114 186 -87 q 428 -140 300 -140 q 571 -115 521 -140 q 621 -42 621 -89 q 593 10 621 -10 q 511 32 565 29 l 297 42 m 525 858 q 516 833 525 840 q 488 825 507 825 l 338 825 q 314 832 321 825 q 307 856 307 839 l 307 1004 q 329 1031 307 1031 l 503 1031 q 525 1006 525 1031 l 525 858 z "},"h":{"ha":829,"x_min":78,"x_max":758,"o":"m 107 0 q 85 6 92 0 q 78 28 78 13 l 78 1004 q 100 1031 78 1031 l 267 1031 q 288 1007 288 1031 l 288 651 q 294 640 288 640 q 304 646 299 640 q 423 726 368 703 q 539 750 478 750 q 701 692 644 750 q 758 528 758 633 l 758 33 q 725 0 758 0 l 571 0 q 550 6 556 0 q 544 28 544 13 l 544 497 q 519 570 544 544 q 444 596 493 596 q 367 575 401 596 q 292 510 332 554 l 292 32 q 283 8 292 15 q 256 0 275 0 l 107 0 z "},"ħ":{"ha":832,"x_min":11,"x_max":761,"o":"m 543 750 q 704 692 647 750 q 761 528 761 633 l 761 33 q 728 0 761 0 l 574 0 q 553 6 558 0 q 547 28 547 13 l 547 497 q 522 570 547 544 q 447 596 496 596 q 369 575 404 596 q 294 510 335 554 l 294 32 q 286 8 294 15 q 258 0 278 0 l 110 0 q 88 6 94 0 q 81 28 81 13 l 81 825 l 36 825 q 17 831 22 825 q 11 849 11 836 l 11 922 q 29 944 11 944 l 81 944 l 81 1004 q 103 1031 81 1031 l 269 1031 q 290 1007 290 1031 l 290 944 l 475 944 q 488 939 483 944 q 493 924 493 933 l 493 851 q 485 831 493 838 q 461 825 478 825 l 290 825 l 290 651 q 297 640 290 640 q 307 646 301 640 q 426 726 371 703 q 543 750 481 750 z "},"ĥ":{"ha":829,"x_min":78,"x_max":758,"o":"m 107 0 q 85 6 92 0 q 78 28 78 13 l 78 1004 q 100 1031 78 1031 l 267 1031 q 288 1007 288 1031 l 288 651 q 294 640 288 640 q 304 646 299 640 q 423 726 368 703 q 539 750 478 750 q 701 692 644 750 q 758 528 758 633 l 758 33 q 725 0 758 0 l 571 0 q 550 6 556 0 q 544 28 544 13 l 544 497 q 519 570 544 544 q 444 596 493 596 q 367 575 401 596 q 292 510 332 554 l 292 32 q 283 8 292 15 q 256 0 275 0 l 107 0 m 429 1228 q 418 1240 424 1235 q 408 1244 413 1244 q 388 1228 401 1244 l 318 1154 q 304 1144 310 1146 q 286 1143 299 1143 l 174 1143 q 161 1150 161 1143 q 169 1165 161 1157 l 319 1321 q 340 1335 331 1331 q 365 1339 349 1339 l 465 1339 q 485 1335 478 1339 q 500 1322 492 1331 l 649 1165 q 660 1149 660 1154 q 646 1143 660 1143 l 526 1143 q 493 1154 504 1143 l 429 1228 z "},"ḥ":{"ha":829,"x_min":78,"x_max":758,"o":"m 107 0 q 85 6 92 0 q 78 28 78 13 l 78 1004 q 100 1031 78 1031 l 267 1031 q 288 1007 288 1031 l 288 651 q 294 640 288 640 q 304 646 299 640 q 423 726 368 703 q 539 750 478 750 q 701 692 644 750 q 758 528 758 633 l 758 33 q 725 0 758 0 l 571 0 q 550 6 556 0 q 544 28 544 13 l 544 497 q 519 570 544 544 q 444 596 493 596 q 367 575 401 596 q 292 510 332 554 l 292 32 q 283 8 292 15 q 256 0 275 0 l 107 0 m 507 -203 q 501 -223 507 -217 q 479 -229 494 -229 l 364 -229 q 345 -224 350 -229 q 340 -207 340 -218 l 340 -85 q 344 -69 340 -74 q 357 -64 347 -64 l 492 -64 q 507 -83 507 -64 l 507 -203 z "},"i":{"ha":368,"x_min":75,"x_max":293,"o":"m 293 860 q 256 825 293 825 l 106 825 q 82 833 89 825 q 75 857 75 840 l 75 1003 q 99 1031 75 1031 l 271 1031 q 287 1024 281 1031 q 293 1004 293 1017 l 293 860 m 290 33 q 282 8 290 15 q 253 0 274 0 l 107 0 q 83 7 90 0 q 76 29 76 14 l 76 710 q 100 736 76 736 l 269 736 q 290 713 290 736 l 290 33 z "},"ı":{"ha":368,"x_min":76,"x_max":290,"o":"m 290 33 q 282 8 290 15 q 253 0 274 0 l 107 0 q 83 7 90 0 q 76 29 76 14 l 76 710 q 100 736 76 736 l 269 736 q 290 713 290 736 l 290 33 z "},"í":{"ha":368,"x_min":-11,"x_max":386,"o":"m 290 33 q 282 8 290 15 q 253 0 274 0 l 107 0 q 83 7 90 0 q 76 29 76 14 l 76 710 q 100 736 76 736 l 269 736 q 290 713 290 736 l 290 33 m 383 938 q 386 924 386 929 q 363 900 386 908 l 42 814 q 29 813 36 813 q 17 816 21 813 q 8 829 13 819 l -8 878 l -11 889 q 0 906 -11 901 l 328 1043 q 335 1044 331 1044 q 351 1031 347 1044 l 383 938 z "},"ĭ":{"ha":368,"x_min":-60,"x_max":438,"o":"m 290 33 q 282 8 290 15 q 253 0 274 0 l 107 0 q 83 7 90 0 q 76 29 76 14 l 76 710 q 100 736 76 736 l 269 736 q 290 713 290 736 l 290 33 m 418 1031 q 434 1026 431 1031 q 435 1010 438 1021 q 344 890 411 933 q 188 846 278 846 q 33 889 99 846 q -58 1011 -33 932 l -60 1018 q -46 1031 -60 1031 l 44 1031 q 60 1027 54 1031 q 74 1014 67 1024 q 121 969 90 988 q 188 951 151 951 q 254 969 222 951 q 304 1015 286 988 q 315 1028 310 1025 q 328 1031 319 1031 l 418 1031 z "},"î":{"ha":368,"x_min":-62,"x_max":436,"o":"m 290 33 q 282 8 290 15 q 253 0 274 0 l 107 0 q 83 7 90 0 q 76 29 76 14 l 76 710 q 100 736 76 736 l 269 736 q 290 713 290 736 l 290 33 m 206 931 q 194 942 200 938 q 185 947 189 947 q 164 931 178 947 l 94 857 q 81 847 86 849 q 63 846 75 846 l -50 846 q -62 853 -62 846 q -54 868 -62 860 l 96 1024 q 116 1038 107 1033 q 142 1042 125 1042 l 242 1042 q 261 1038 254 1042 q 276 1025 268 1033 l 425 868 q 436 851 436 857 q 422 846 436 846 l 303 846 q 269 857 281 846 l 206 931 z "},"ȉ":{"ha":368,"x_min":-82,"x_max":367,"o":"m 290 33 q 282 8 290 15 q 253 0 274 0 l 107 0 q 83 7 90 0 q 76 29 76 14 l 76 710 q 100 736 76 736 l 269 736 q 290 713 290 736 l 290 33 m 361 865 q 367 853 367 860 q 358 836 367 844 l 322 796 q 307 788 314 788 q 285 796 299 788 l 206 849 q 197 836 203 843 l 161 796 q 146 788 153 788 q 125 796 138 788 l -67 922 q -82 943 -82 932 q -72 965 -82 953 l -12 1036 q 3 1044 -6 1044 q 15 1039 10 1044 l 90 968 l 149 1036 q 163 1044 154 1044 q 175 1039 169 1044 l 361 865 z "},"ï":{"ha":368,"x_min":-49,"x_max":422,"o":"m 290 33 q 282 8 290 15 q 253 0 274 0 l 107 0 q 83 7 90 0 q 76 29 76 14 l 76 710 q 100 736 76 736 l 269 736 q 290 713 290 736 l 290 33 m 140 878 q 133 856 140 863 q 107 850 125 850 l -22 850 q -43 856 -37 850 q -49 875 -49 863 l -49 1007 q -29 1031 -49 1031 l 121 1031 q 140 1008 140 1031 l 140 878 m 422 878 q 415 856 422 863 q 389 850 407 850 l 260 850 q 239 856 244 850 q 233 875 233 863 l 233 1007 q 253 1031 233 1031 l 403 1031 q 422 1008 422 1031 l 422 878 z "},"ị":{"ha":368,"x_min":75,"x_max":293,"o":"m 293 860 q 256 825 293 825 l 106 825 q 82 833 89 825 q 75 857 75 840 l 75 1003 q 99 1031 75 1031 l 271 1031 q 287 1024 281 1031 q 293 1004 293 1017 l 293 860 m 290 33 q 282 8 290 15 q 253 0 274 0 l 107 0 q 83 7 90 0 q 76 29 76 14 l 76 710 q 100 736 76 736 l 269 736 q 290 713 290 736 l 290 33 m 272 -203 q 266 -223 272 -217 q 244 -229 260 -229 l 129 -229 q 110 -224 115 -229 q 106 -207 106 -218 l 106 -85 q 109 -69 106 -74 q 122 -64 113 -64 l 257 -64 q 272 -83 272 -64 l 272 -203 z "},"ì":{"ha":368,"x_min":-18,"x_max":379,"o":"m 290 33 q 282 8 290 15 q 253 0 274 0 l 107 0 q 83 7 90 0 q 76 29 76 14 l 76 710 q 100 736 76 736 l 269 736 q 290 713 290 736 l 290 33 m 17 1031 q 26 1042 19 1039 q 42 1043 33 1046 l 368 906 q 379 889 379 901 q 376 878 379 882 l 360 829 q 340 813 354 813 q 328 814 332 813 l 6 900 q -18 924 -18 908 q -15 938 -18 929 l 17 1031 z "},"ȋ":{"ha":368,"x_min":-61,"x_max":436,"o":"m 290 33 q 282 8 290 15 q 253 0 274 0 l 107 0 q 83 7 90 0 q 76 29 76 14 l 76 710 q 100 736 76 736 l 269 736 q 290 713 290 736 l 290 33 m 328 850 q 315 853 319 850 q 304 865 310 856 q 254 911 286 893 q 188 929 222 929 q 121 911 151 929 q 72 867 90 893 q 61 853 67 857 q 44 850 56 850 l -46 850 q -58 856 -54 850 q -58 868 -61 861 q 33 990 -33 947 q 188 1033 99 1033 q 344 990 278 1033 q 435 871 410 947 l 436 863 q 418 850 436 850 l 328 850 z "},"ĳ":{"ha":736,"x_min":75,"x_max":663,"o":"m 293 860 q 256 825 293 825 l 106 825 q 82 833 89 825 q 75 857 75 840 l 75 1003 q 99 1031 75 1031 l 271 1031 q 287 1024 281 1031 q 293 1004 293 1017 l 293 860 m 290 33 q 282 8 290 15 q 253 0 274 0 l 107 0 q 83 7 90 0 q 76 29 76 14 l 76 710 q 100 736 76 736 l 269 736 q 290 713 290 736 l 290 33 m 663 860 q 654 833 663 842 q 625 825 646 825 l 475 825 q 451 833 458 825 q 444 857 444 840 l 444 1003 q 451 1024 444 1017 q 468 1031 457 1031 l 639 1031 q 663 1004 663 1031 l 663 860 m 660 8 q 599 -176 660 -115 q 407 -236 538 -236 q 331 -231 347 -236 q 314 -208 314 -226 l 313 -99 q 319 -80 313 -89 q 335 -69 325 -71 l 393 -62 q 433 -42 419 -60 q 446 17 446 -25 l 446 710 q 452 729 446 722 q 469 736 458 736 l 639 736 q 660 713 660 736 l 660 8 z "},"ī":{"ha":368,"x_min":-67,"x_max":440,"o":"m 290 33 q 282 8 290 15 q 253 0 274 0 l 107 0 q 83 7 90 0 q 76 29 76 14 l 76 710 q 100 736 76 736 l 269 736 q 290 713 290 736 l 290 33 m 440 913 q 408 886 440 886 l -42 886 q -61 892 -56 886 q -67 911 -67 899 l -67 1000 q -49 1022 -67 1022 l 422 1022 q 435 1017 431 1022 q 440 1003 440 1011 l 440 913 z "},"į":{"ha":368,"x_min":-1,"x_max":306,"o":"m 110 825 q 86 832 93 825 q 79 856 79 839 l 79 1004 q 101 1031 79 1031 l 275 1031 q 297 1006 297 1031 l 297 858 q 288 833 297 840 q 260 825 279 825 l 110 825 m 285 -119 q 297 -117 290 -117 q 304 -120 303 -117 q 306 -132 306 -124 l 306 -192 q 294 -212 306 -207 q 236 -231 275 -222 q 156 -239 197 -239 q 40 -209 82 -239 q -1 -122 -1 -179 q 23 -54 -1 -83 q 108 0 47 -25 l 107 0 q 83 7 90 0 q 76 29 76 14 l 76 710 q 100 736 76 736 l 269 736 q 290 713 290 736 l 290 33 q 282 7 290 15 l 285 7 l 278 4 l 271 1 q 179 -44 206 -22 q 153 -94 153 -67 q 165 -129 153 -118 q 204 -140 178 -140 q 285 -119 246 -140 z "},"ĩ":{"ha":368,"x_min":-53,"x_max":438,"o":"m 290 33 q 282 8 290 15 q 253 0 274 0 l 107 0 q 83 7 90 0 q 76 29 76 14 l 76 710 q 100 736 76 736 l 269 736 q 290 713 290 736 l 290 33 m 421 908 q 294 871 367 871 q 245 876 268 871 q 188 892 222 881 q 134 906 156 901 q 89 911 113 911 q 42 904 61 911 q -4 879 22 897 q -18 872 -14 872 q -31 889 -26 872 l -50 949 q -53 963 -53 957 q -42 982 -53 971 q 15 1020 -12 1007 q 82 1033 42 1033 q 135 1028 110 1033 q 200 1010 161 1022 q 294 989 263 989 q 344 998 321 989 q 390 1024 367 1007 q 404 1029 399 1029 q 419 1014 415 1029 l 436 942 q 438 933 438 939 q 421 908 438 921 z "},"j":{"ha":368,"x_min":-56,"x_max":294,"o":"m 294 860 q 286 833 294 842 q 257 825 278 825 l 107 825 q 83 833 90 825 q 76 857 76 840 l 76 1003 q 83 1024 76 1017 q 100 1031 89 1031 l 271 1031 q 294 1004 294 1031 l 294 860 m 292 8 q 231 -176 292 -115 q 39 -236 169 -236 q -37 -231 -21 -236 q -54 -208 -54 -226 l -56 -99 q -49 -80 -56 -89 q -33 -69 -43 -71 l 25 -62 q 65 -42 51 -60 q 78 17 78 -25 l 78 710 q 84 729 78 722 q 101 736 90 736 l 271 736 q 292 713 292 736 l 292 8 z "},"ȷ":{"ha":368,"x_min":-56,"x_max":292,"o":"m 292 8 q 231 -176 292 -115 q 39 -236 169 -236 q -37 -231 -21 -236 q -54 -208 -54 -226 l -56 -99 q -49 -80 -56 -89 q -33 -69 -43 -71 l 25 -62 q 65 -42 51 -60 q 78 17 78 -25 l 78 710 q 84 729 78 722 q 101 736 90 736 l 271 736 q 292 713 292 736 l 292 8 z "},"ĵ":{"ha":368,"x_min":-65,"x_max":433,"o":"m 292 8 q 231 -176 292 -115 q 39 -236 169 -236 q -37 -231 -21 -236 q -54 -208 -54 -226 l -56 -99 q -49 -80 -56 -89 q -33 -69 -43 -71 l 25 -62 q 65 -42 51 -60 q 78 17 78 -25 l 78 710 q 84 729 78 722 q 101 736 90 736 l 271 736 q 292 713 292 736 l 292 8 m 203 931 q 192 942 197 938 q 182 947 186 947 q 161 931 175 947 l 92 857 q 78 847 83 849 q 60 846 72 846 l -53 846 q -65 853 -65 846 q -57 868 -65 860 l 93 1024 q 113 1038 104 1033 q 139 1042 122 1042 l 239 1042 q 258 1038 251 1042 q 274 1025 265 1033 l 422 868 q 433 851 433 857 q 419 846 433 846 l 300 846 q 267 857 278 846 l 203 931 z "},"k":{"ha":839,"x_min":78,"x_max":813,"o":"m 810 32 q 813 19 813 28 q 806 6 813 11 q 789 0 800 0 l 607 0 q 569 29 583 0 l 426 315 q 414 328 421 328 q 403 321 410 328 l 304 224 q 292 189 292 214 l 292 33 q 283 8 292 15 q 256 0 275 0 l 108 0 q 85 7 92 0 q 78 29 78 14 l 78 1004 q 100 1031 78 1031 l 271 1031 q 292 1006 292 1031 l 292 436 q 297 425 292 425 q 308 432 303 425 l 569 715 q 607 736 590 736 l 756 736 q 779 721 779 736 q 769 701 779 711 l 575 504 q 567 486 567 494 q 572 465 567 476 l 810 32 z "},"ķ":{"ha":839,"x_min":78,"x_max":813,"o":"m 810 32 q 813 19 813 28 q 806 6 813 11 q 789 0 800 0 l 607 0 q 569 29 583 0 l 426 315 q 414 328 421 328 q 403 321 410 328 l 304 224 q 292 189 292 214 l 292 33 q 283 8 292 15 q 256 0 275 0 l 108 0 q 85 7 92 0 q 78 29 78 14 l 78 1004 q 100 1031 78 1031 l 271 1031 q 292 1006 292 1031 l 292 436 q 297 425 292 425 q 308 432 303 425 l 569 715 q 607 736 590 736 l 756 736 q 779 721 779 736 q 769 701 779 711 l 575 504 q 567 486 567 494 q 572 465 567 476 l 810 32 m 353 -337 q 338 -330 343 -337 q 339 -315 333 -322 l 382 -249 q 388 -232 388 -242 q 371 -217 388 -217 l 358 -217 q 339 -210 344 -217 q 333 -190 333 -204 l 333 -104 q 354 -81 333 -81 l 464 -81 q 483 -100 483 -81 l 483 -217 q 479 -232 483 -219 l 414 -321 q 399 -334 407 -331 q 375 -337 392 -337 l 353 -337 z "},"ĸ":{"ha":839,"x_min":78,"x_max":813,"o":"m 810 32 q 813 19 813 28 q 806 6 813 11 q 789 0 800 0 l 607 0 q 569 29 583 0 l 426 315 q 414 328 421 328 q 403 321 410 328 l 304 224 q 292 189 292 214 l 292 33 q 283 8 292 15 q 256 0 275 0 l 108 0 q 85 7 92 0 q 78 29 78 14 l 78 710 q 100 736 78 736 l 271 736 q 292 711 292 736 l 292 436 q 297 425 292 425 q 308 432 303 425 l 569 715 q 607 736 590 736 l 756 736 q 779 721 779 736 q 769 701 779 711 l 575 504 q 567 486 567 494 q 572 465 567 476 l 810 32 z "},"l":{"ha":369,"x_min":76,"x_max":292,"o":"m 292 33 q 283 8 292 15 q 254 0 275 0 l 107 0 q 83 7 90 0 q 76 29 76 14 l 81 1004 q 103 1031 81 1031 l 271 1031 q 292 1006 292 1031 l 292 33 z "},"ĺ":{"ha":369,"x_min":-10,"x_max":388,"o":"m 292 33 q 283 8 292 15 q 254 0 275 0 l 107 0 q 83 7 90 0 q 76 29 76 14 l 81 1004 q 103 1031 81 1031 l 271 1031 q 292 1006 292 1031 l 292 33 m 385 1232 q 388 1218 388 1224 q 364 1194 388 1203 l 43 1108 q 31 1107 38 1107 q 18 1110 22 1107 q 10 1124 14 1114 l -7 1172 l -10 1183 q 1 1200 -10 1196 l 329 1338 q 336 1339 332 1339 q 353 1325 349 1339 l 385 1232 z "},"ľ":{"ha":561,"x_min":76,"x_max":522,"o":"m 292 33 q 283 8 292 15 q 254 0 275 0 l 107 0 q 83 7 90 0 q 76 29 76 14 l 81 1004 q 103 1031 81 1031 l 271 1031 q 292 1006 292 1031 l 292 33 m 390 717 q 378 722 382 717 q 378 735 375 728 l 421 839 q 424 853 424 844 q 413 864 424 863 l 399 865 q 383 872 388 867 q 378 886 378 876 l 378 1013 q 394 1031 378 1031 l 507 1031 q 522 1015 522 1031 l 522 865 q 521 859 522 861 q 519 854 519 857 l 468 735 q 458 721 465 725 q 433 717 450 717 l 390 717 z "},"ļ":{"ha":369,"x_min":76,"x_max":292,"o":"m 292 33 q 283 8 292 15 q 254 0 275 0 l 107 0 q 83 7 90 0 q 76 29 76 14 l 81 1004 q 103 1031 81 1031 l 271 1031 q 292 1006 292 1031 l 292 33 m 133 -337 q 119 -330 124 -337 q 119 -315 114 -322 l 163 -249 q 168 -232 168 -242 q 151 -217 168 -217 l 139 -217 q 119 -210 125 -217 q 114 -190 114 -204 l 114 -104 q 135 -81 114 -81 l 244 -81 q 264 -100 264 -81 l 264 -217 q 260 -232 264 -219 l 194 -321 q 180 -334 188 -331 q 156 -337 172 -337 l 133 -337 z "},"ŀ":{"ha":554,"x_min":76,"x_max":568,"o":"m 292 33 q 283 8 292 15 q 254 0 275 0 l 107 0 q 83 7 90 0 q 76 29 76 14 l 81 1004 q 103 1031 81 1031 l 271 1031 q 292 1006 292 1031 l 292 33 m 568 329 q 560 306 568 313 q 535 299 553 299 l 379 299 q 358 305 364 299 q 351 325 351 311 l 351 485 q 371 508 351 508 l 550 508 q 568 488 568 508 l 568 329 z "},"ǉ":{"ha":739,"x_min":76,"x_max":664,"o":"m 292 33 q 283 8 292 15 q 254 0 275 0 l 107 0 q 83 7 90 0 q 76 29 76 14 l 81 1004 q 103 1031 81 1031 l 271 1031 q 292 1006 292 1031 l 292 33 m 664 860 q 656 833 664 842 q 626 825 647 825 l 476 825 q 453 833 460 825 q 446 857 446 840 l 446 1003 q 452 1024 446 1017 q 469 1031 458 1031 l 640 1031 q 664 1004 664 1031 l 664 860 m 661 8 q 600 -176 661 -115 q 408 -236 539 -236 q 332 -231 349 -236 q 315 -208 315 -226 l 314 -99 q 320 -80 314 -89 q 336 -69 326 -71 l 394 -62 q 434 -42 421 -60 q 447 17 447 -25 l 447 710 q 453 729 447 722 q 471 736 460 736 l 640 736 q 661 713 661 736 l 661 8 z "},"ł":{"ha":457,"x_min":21,"x_max":436,"o":"m 410 668 q 426 675 421 675 q 436 658 436 675 l 436 535 q 414 499 436 513 l 335 440 l 335 33 q 326 8 335 15 q 299 0 318 0 l 150 0 q 126 7 133 0 q 119 29 119 14 l 121 285 l 50 233 q 31 225 38 225 q 21 243 21 225 l 21 372 q 42 411 21 394 l 122 467 l 125 1004 q 147 1031 125 1031 l 314 1031 q 335 1006 335 1031 l 335 615 l 410 668 z "},"m":{"ha":1276,"x_min":76,"x_max":1207,"o":"m 106 0 q 83 6 90 0 q 76 28 76 13 l 76 710 q 83 729 76 722 q 99 736 89 736 l 265 736 q 286 713 286 736 l 286 644 q 293 633 286 633 q 303 639 297 633 q 417 722 361 693 q 535 751 472 751 q 660 717 608 751 q 732 622 711 682 q 738 617 733 617 q 750 624 743 617 q 866 715 801 681 q 994 750 931 750 q 1149 690 1092 750 q 1207 526 1207 631 l 1207 33 q 1174 0 1207 0 l 1019 0 q 999 6 1004 0 q 993 28 993 13 l 993 497 q 968 569 993 543 q 897 596 943 596 q 824 575 860 596 q 764 525 789 554 q 752 507 756 515 q 749 486 749 499 l 749 33 q 715 0 749 0 l 563 0 q 542 6 549 0 q 536 28 536 13 l 536 497 q 511 569 536 543 q 439 596 486 596 q 364 575 399 596 q 290 510 329 554 l 290 32 q 282 8 290 15 q 254 0 274 0 l 106 0 z "},"n":{"ha":828,"x_min":76,"x_max":758,"o":"m 106 0 q 83 6 90 0 q 76 28 76 13 l 76 710 q 99 736 76 736 l 267 736 q 288 713 288 736 l 288 644 q 294 633 288 633 q 304 639 299 633 q 418 722 361 693 q 539 750 475 750 q 699 690 640 750 q 758 531 758 631 l 758 33 q 725 0 758 0 l 571 0 q 550 6 556 0 q 544 28 544 13 l 544 497 q 519 570 544 544 q 443 596 493 596 q 366 575 401 596 q 290 510 331 554 l 290 32 q 282 8 290 15 q 254 0 274 0 l 106 0 z "},"ń":{"ha":828,"x_min":76,"x_max":758,"o":"m 106 0 q 83 6 90 0 q 76 28 76 13 l 76 710 q 99 736 76 736 l 267 736 q 288 713 288 736 l 288 644 q 294 633 288 633 q 304 639 299 633 q 418 722 361 693 q 539 750 475 750 q 699 690 640 750 q 758 531 758 631 l 758 33 q 725 0 758 0 l 571 0 q 550 6 556 0 q 544 28 544 13 l 544 497 q 519 570 544 544 q 443 596 493 596 q 366 575 401 596 q 290 510 331 554 l 290 32 q 282 8 290 15 q 254 0 274 0 l 106 0 m 618 938 q 621 924 621 929 q 597 900 621 908 l 276 814 q 264 813 271 813 q 251 816 256 813 q 243 829 247 819 l 226 878 l 224 889 q 235 906 224 901 l 563 1043 q 569 1044 565 1044 q 586 1031 582 1044 l 618 938 z "},"ŉ":{"ha":972,"x_min":49,"x_max":903,"o":"m 64 631 q 52 637 56 631 q 51 650 49 643 l 94 803 l 97 817 q 86 828 97 826 l 72 831 q 56 835 61 831 q 51 850 51 839 l 51 1013 q 68 1031 51 1031 l 183 1031 q 197 1015 197 1031 l 197 831 q 194 818 197 824 l 143 650 q 133 635 140 639 q 108 631 125 631 l 64 631 m 250 0 q 228 6 235 0 q 221 28 221 13 l 221 710 q 243 736 221 736 l 411 736 q 432 713 432 736 l 432 644 q 439 633 432 633 q 449 639 443 633 q 563 722 506 693 q 683 750 619 750 q 844 690 785 750 q 903 531 903 631 l 903 33 q 869 0 903 0 l 715 0 q 694 6 700 0 q 689 28 689 13 l 689 497 q 663 570 689 544 q 588 596 638 596 q 510 575 546 596 q 435 510 475 554 l 435 32 q 426 8 435 15 q 399 0 418 0 l 250 0 z "},"ň":{"ha":828,"x_min":76,"x_max":758,"o":"m 106 0 q 83 6 90 0 q 76 28 76 13 l 76 710 q 99 736 76 736 l 267 736 q 288 713 288 736 l 288 644 q 294 633 288 633 q 304 639 299 633 q 418 722 361 693 q 539 750 475 750 q 699 690 640 750 q 758 531 758 631 l 758 33 q 725 0 758 0 l 571 0 q 550 6 556 0 q 544 28 544 13 l 544 497 q 519 570 544 544 q 443 596 493 596 q 366 575 401 596 q 290 510 331 554 l 290 32 q 282 8 290 15 q 254 0 274 0 l 106 0 m 504 1021 q 538 1032 515 1032 l 657 1032 q 671 1026 671 1032 q 660 1010 671 1021 l 511 853 q 496 840 503 844 q 476 836 489 836 l 376 836 q 351 840 360 836 q 331 854 342 844 l 181 1010 q 172 1025 172 1018 q 185 1032 172 1032 l 297 1032 q 315 1031 310 1032 q 329 1021 321 1029 l 399 947 q 421 931 413 931 q 433 938 426 931 q 440 947 439 946 l 504 1021 z "},"ņ":{"ha":828,"x_min":76,"x_max":758,"o":"m 106 0 q 83 6 90 0 q 76 28 76 13 l 76 710 q 99 736 76 736 l 267 736 q 288 713 288 736 l 288 644 q 294 633 288 633 q 304 639 299 633 q 418 722 361 693 q 539 750 475 750 q 699 690 640 750 q 758 531 758 631 l 758 33 q 725 0 758 0 l 571 0 q 550 6 556 0 q 544 28 544 13 l 544 497 q 519 570 544 544 q 443 596 493 596 q 366 575 401 596 q 290 510 331 554 l 290 32 q 282 8 290 15 q 254 0 274 0 l 106 0 m 363 -337 q 348 -330 353 -337 q 349 -315 343 -322 l 392 -249 q 397 -232 397 -242 q 381 -217 397 -217 l 368 -217 q 349 -210 354 -217 q 343 -190 343 -204 l 343 -104 q 364 -81 343 -81 l 474 -81 q 493 -100 493 -81 l 493 -217 q 489 -232 493 -219 l 424 -321 q 409 -334 417 -331 q 385 -337 401 -337 l 363 -337 z "},"ṅ":{"ha":828,"x_min":76,"x_max":758,"o":"m 106 0 q 83 6 90 0 q 76 28 76 13 l 76 710 q 99 736 76 736 l 267 736 q 288 713 288 736 l 288 644 q 294 633 288 633 q 304 639 299 633 q 418 722 361 693 q 539 750 475 750 q 699 690 640 750 q 758 531 758 631 l 758 33 q 725 0 758 0 l 571 0 q 550 6 556 0 q 544 28 544 13 l 544 497 q 519 570 544 544 q 443 596 493 596 q 366 575 401 596 q 290 510 331 554 l 290 32 q 282 8 290 15 q 254 0 274 0 l 106 0 m 531 858 q 522 833 531 840 q 493 825 513 825 l 343 825 q 319 832 326 825 q 313 856 313 839 l 313 1004 q 335 1031 313 1031 l 508 1031 q 531 1006 531 1031 l 531 858 z "},"ŋ":{"ha":835,"x_min":76,"x_max":760,"o":"m 539 750 q 699 690 639 750 q 760 531 760 631 l 760 13 q 690 -172 760 -107 q 507 -236 621 -236 q 442 -231 457 -236 q 426 -208 426 -226 l 425 -99 q 431 -81 425 -89 q 447 -69 438 -72 l 492 -64 q 533 -43 519 -61 q 546 17 546 -25 l 546 496 q 520 569 546 543 q 443 596 494 596 q 293 508 361 596 l 293 32 q 285 8 293 15 q 257 0 276 0 l 106 0 q 83 6 90 0 q 76 28 76 13 l 81 710 q 103 736 81 736 l 268 736 q 289 713 289 736 l 289 643 q 294 633 289 633 q 304 639 299 633 q 420 722 364 694 q 539 750 476 750 z "},"ǌ":{"ha":1196,"x_min":76,"x_max":1122,"o":"m 106 0 q 83 6 90 0 q 76 28 76 13 l 76 710 q 99 736 76 736 l 267 736 q 288 713 288 736 l 288 644 q 294 633 288 633 q 304 639 299 633 q 418 722 361 693 q 539 750 475 750 q 699 690 640 750 q 758 531 758 631 l 758 33 q 725 0 758 0 l 571 0 q 550 6 556 0 q 544 28 544 13 l 544 497 q 519 570 544 544 q 443 596 493 596 q 366 575 401 596 q 290 510 331 554 l 290 32 q 282 8 290 15 q 254 0 274 0 l 106 0 m 1122 860 q 1114 833 1122 842 q 1085 825 1106 825 l 935 825 q 911 833 918 825 q 904 857 904 840 l 904 1003 q 910 1024 904 1017 q 928 1031 917 1031 l 1099 1031 q 1122 1004 1122 1031 l 1122 860 m 1119 8 q 1058 -176 1119 -115 q 867 -236 997 -236 q 790 -231 807 -236 q 774 -208 774 -226 l 772 -99 q 778 -80 772 -89 q 794 -69 785 -71 l 853 -62 q 892 -42 879 -60 q 906 17 906 -25 l 906 710 q 912 729 906 722 q 929 736 918 736 l 1099 736 q 1119 713 1119 736 l 1119 8 z "},"ñ":{"ha":828,"x_min":76,"x_max":758,"o":"m 106 0 q 83 6 90 0 q 76 28 76 13 l 76 710 q 99 736 76 736 l 267 736 q 288 713 288 736 l 288 644 q 294 633 288 633 q 304 639 299 633 q 418 722 361 693 q 539 750 475 750 q 699 690 640 750 q 758 531 758 631 l 758 33 q 725 0 758 0 l 571 0 q 550 6 556 0 q 544 28 544 13 l 544 497 q 519 570 544 544 q 443 596 493 596 q 366 575 401 596 q 290 510 331 554 l 290 32 q 282 8 290 15 q 254 0 274 0 l 106 0 m 654 908 q 528 871 600 871 q 478 876 501 871 q 421 892 456 881 q 367 906 389 901 q 322 911 346 911 q 275 904 294 911 q 229 879 256 897 q 215 872 219 872 q 203 889 207 872 l 183 949 q 181 963 181 957 q 192 982 181 971 q 248 1020 221 1007 q 315 1033 275 1033 q 369 1028 343 1033 q 433 1010 394 1022 q 528 989 496 989 q 577 998 554 989 q 624 1024 600 1007 q 638 1029 632 1029 q 653 1014 649 1029 l 669 942 q 671 933 671 939 q 654 908 671 921 z "},"o":{"ha":832,"x_min":43,"x_max":789,"o":"m 415 -14 q 222 34 306 -14 q 90 168 138 82 q 43 364 43 254 q 91 565 43 478 q 224 701 139 653 q 417 750 310 750 q 611 701 526 750 q 742 564 696 651 q 789 365 789 476 q 742 169 789 256 q 610 35 694 83 q 415 -14 525 -14 m 417 128 q 533 188 493 128 q 572 368 572 249 q 533 551 572 489 q 417 613 493 613 q 300 551 340 613 q 260 368 260 489 q 300 189 260 250 q 417 128 340 128 z "},"ó":{"ha":832,"x_min":43,"x_max":789,"o":"m 415 -14 q 222 34 306 -14 q 90 168 138 82 q 43 364 43 254 q 91 565 43 478 q 224 701 139 653 q 417 750 310 750 q 611 701 526 750 q 742 564 696 651 q 789 365 789 476 q 742 169 789 256 q 610 35 694 83 q 415 -14 525 -14 m 417 128 q 533 188 493 128 q 572 368 572 249 q 533 551 572 489 q 417 613 493 613 q 300 551 340 613 q 260 368 260 489 q 300 189 260 250 q 417 128 340 128 m 613 938 q 615 924 615 929 q 592 900 615 908 l 271 814 q 258 813 265 813 q 246 816 250 813 q 238 829 242 819 l 221 878 l 218 889 q 229 906 218 901 l 557 1043 q 564 1044 560 1044 q 581 1031 576 1044 l 613 938 z "},"ŏ":{"ha":832,"x_min":43,"x_max":789,"o":"m 415 -14 q 222 34 306 -14 q 90 168 138 82 q 43 364 43 254 q 91 565 43 478 q 224 701 139 653 q 417 750 310 750 q 611 701 526 750 q 742 564 696 651 q 789 365 789 476 q 742 169 789 256 q 610 35 694 83 q 415 -14 525 -14 m 417 128 q 533 188 493 128 q 572 368 572 249 q 533 551 572 489 q 417 613 493 613 q 300 551 340 613 q 260 368 260 489 q 300 189 260 250 q 417 128 340 128 m 647 1031 q 663 1026 660 1031 q 664 1010 667 1021 q 574 890 640 933 q 417 846 507 846 q 262 889 328 846 q 171 1011 196 932 l 169 1018 q 183 1031 169 1031 l 274 1031 q 290 1027 283 1031 q 303 1014 296 1024 q 350 969 319 988 q 417 951 381 951 q 483 969 451 951 q 533 1015 515 988 q 544 1028 539 1025 q 557 1031 549 1031 l 647 1031 z "},"ô":{"ha":832,"x_min":43,"x_max":789,"o":"m 415 -14 q 222 34 306 -14 q 90 168 138 82 q 43 364 43 254 q 91 565 43 478 q 224 701 139 653 q 417 750 310 750 q 611 701 526 750 q 742 564 696 651 q 789 365 789 476 q 742 169 789 256 q 610 35 694 83 q 415 -14 525 -14 m 417 128 q 533 188 493 128 q 572 368 572 249 q 533 551 572 489 q 417 613 493 613 q 300 551 340 613 q 260 368 260 489 q 300 189 260 250 q 417 128 340 128 m 435 931 q 424 942 429 938 q 414 947 418 947 q 393 931 407 947 l 324 857 q 310 847 315 849 q 292 846 304 846 l 179 846 q 167 853 167 846 q 175 868 167 860 l 325 1024 q 345 1038 336 1033 q 371 1042 354 1042 l 471 1042 q 490 1038 483 1042 q 506 1025 497 1033 l 654 868 q 665 851 665 857 q 651 846 665 846 l 532 846 q 499 857 510 846 l 435 931 z "},"ȍ":{"ha":832,"x_min":43,"x_max":789,"o":"m 415 -14 q 222 34 306 -14 q 90 168 138 82 q 43 364 43 254 q 91 565 43 478 q 224 701 139 653 q 417 750 310 750 q 611 701 526 750 q 742 564 696 651 q 789 365 789 476 q 742 169 789 256 q 610 35 694 83 q 415 -14 525 -14 m 417 128 q 533 188 493 128 q 572 368 572 249 q 533 551 572 489 q 417 613 493 613 q 300 551 340 613 q 260 368 260 489 q 300 189 260 250 q 417 128 340 128 m 590 865 q 596 853 596 860 q 588 836 596 844 l 551 796 q 536 788 543 788 q 514 796 528 788 l 435 849 q 426 836 432 843 l 390 796 q 375 788 382 788 q 354 796 367 788 l 163 922 q 147 943 147 932 q 157 965 147 953 l 217 1036 q 232 1044 224 1044 q 244 1039 239 1044 l 319 968 l 378 1036 q 392 1044 383 1044 q 404 1039 399 1044 l 590 865 z "},"ö":{"ha":832,"x_min":43,"x_max":789,"o":"m 415 -14 q 222 34 306 -14 q 90 168 138 82 q 43 364 43 254 q 91 565 43 478 q 224 701 139 653 q 417 750 310 750 q 611 701 526 750 q 742 564 696 651 q 789 365 789 476 q 742 169 789 256 q 610 35 694 83 q 415 -14 525 -14 m 417 128 q 533 188 493 128 q 572 368 572 249 q 533 551 572 489 q 417 613 493 613 q 300 551 340 613 q 260 368 260 489 q 300 189 260 250 q 417 128 340 128 m 369 878 q 362 856 369 863 q 336 850 354 850 l 207 850 q 186 856 192 850 q 181 875 181 863 l 181 1007 q 200 1031 181 1031 l 350 1031 q 369 1008 369 1031 l 369 878 m 651 878 q 644 856 651 863 q 618 850 636 850 l 489 850 q 468 856 474 850 q 463 875 463 863 l 463 1007 q 482 1031 463 1031 l 632 1031 q 651 1008 651 1031 l 651 878 z "},"ọ":{"ha":832,"x_min":43,"x_max":789,"o":"m 415 -14 q 222 34 306 -14 q 90 168 138 82 q 43 364 43 254 q 91 565 43 478 q 224 701 139 653 q 417 750 310 750 q 611 701 526 750 q 742 564 696 651 q 789 365 789 476 q 742 169 789 256 q 610 35 694 83 q 415 -14 525 -14 m 417 128 q 533 188 493 128 q 572 368 572 249 q 533 551 572 489 q 417 613 493 613 q 300 551 340 613 q 260 368 260 489 q 300 189 260 250 q 417 128 340 128 m 496 -203 q 490 -223 496 -217 q 468 -229 483 -229 l 353 -229 q 334 -224 339 -229 q 329 -207 329 -218 l 329 -85 q 333 -69 329 -74 q 346 -64 336 -64 l 481 -64 q 496 -83 496 -64 l 496 -203 z "},"ò":{"ha":832,"x_min":43,"x_max":789,"o":"m 415 -14 q 222 34 306 -14 q 90 168 138 82 q 43 364 43 254 q 91 565 43 478 q 224 701 139 653 q 417 750 310 750 q 611 701 526 750 q 742 564 696 651 q 789 365 789 476 q 742 169 789 256 q 610 35 694 83 q 415 -14 525 -14 m 417 128 q 533 188 493 128 q 572 368 572 249 q 533 551 572 489 q 417 613 493 613 q 300 551 340 613 q 260 368 260 489 q 300 189 260 250 q 417 128 340 128 m 246 1031 q 256 1042 249 1039 q 271 1043 263 1046 l 597 906 q 608 889 608 901 q 606 878 608 882 l 589 829 q 569 813 583 813 q 557 814 561 813 l 235 900 q 211 924 211 908 q 214 938 211 929 l 246 1031 z "},"ő":{"ha":832,"x_min":43,"x_max":789,"o":"m 415 -14 q 222 34 306 -14 q 90 168 138 82 q 43 364 43 254 q 91 565 43 478 q 224 701 139 653 q 417 750 310 750 q 611 701 526 750 q 742 564 696 651 q 789 365 789 476 q 742 169 789 256 q 610 35 694 83 q 415 -14 525 -14 m 417 128 q 533 188 493 128 q 572 368 572 249 q 533 551 572 489 q 417 613 493 613 q 300 551 340 613 q 260 368 260 489 q 300 189 260 250 q 417 128 340 128 m 650 965 q 660 943 660 953 q 644 922 660 932 l 454 796 q 432 788 440 788 q 417 796 425 788 l 381 836 q 374 849 374 843 l 293 796 q 272 788 278 788 q 257 796 265 788 l 221 836 q 213 853 213 844 q 218 865 213 861 l 403 1039 q 415 1044 408 1044 q 431 1036 425 1044 l 488 967 l 564 1039 q 576 1044 569 1044 q 590 1036 585 1044 l 650 965 z "},"ȏ":{"ha":832,"x_min":43,"x_max":789,"o":"m 415 -14 q 222 34 306 -14 q 90 168 138 82 q 43 364 43 254 q 91 565 43 478 q 224 701 139 653 q 417 750 310 750 q 611 701 526 750 q 742 564 696 651 q 789 365 789 476 q 742 169 789 256 q 610 35 694 83 q 415 -14 525 -14 m 417 128 q 533 188 493 128 q 572 368 572 249 q 533 551 572 489 q 417 613 493 613 q 300 551 340 613 q 260 368 260 489 q 300 189 260 250 q 417 128 340 128 m 557 850 q 544 853 549 850 q 533 865 539 856 q 483 911 515 893 q 417 929 451 929 q 350 911 381 929 q 301 867 319 893 q 290 853 296 857 q 274 850 285 850 l 183 850 q 172 856 175 850 q 171 868 168 861 q 262 990 196 947 q 417 1033 328 1033 q 573 990 507 1033 q 664 871 639 947 l 665 863 q 647 850 665 850 l 557 850 z "},"ō":{"ha":832,"x_min":43,"x_max":789,"o":"m 415 -14 q 222 34 306 -14 q 90 168 138 82 q 43 364 43 254 q 91 565 43 478 q 224 701 139 653 q 417 750 310 750 q 611 701 526 750 q 742 564 696 651 q 789 365 789 476 q 742 169 789 256 q 610 35 694 83 q 415 -14 525 -14 m 417 128 q 533 188 493 128 q 572 368 572 249 q 533 551 572 489 q 417 613 493 613 q 300 551 340 613 q 260 368 260 489 q 300 189 260 250 q 417 128 340 128 m 669 913 q 638 886 669 886 l 188 886 q 168 892 174 886 q 163 911 163 899 l 163 1000 q 181 1022 163 1022 l 651 1022 q 665 1017 660 1022 q 669 1003 669 1011 l 669 913 z "},"ǫ":{"ha":832,"x_min":43,"x_max":789,"o":"m 539 4 q 439 -45 467 -22 q 411 -96 411 -68 q 424 -131 411 -119 q 463 -142 436 -142 q 543 -121 504 -142 q 556 -118 549 -118 q 563 -122 561 -118 q 564 -133 564 -125 l 564 -193 q 553 -214 564 -208 q 494 -232 533 -224 q 414 -240 456 -240 q 299 -210 340 -240 q 257 -124 257 -181 q 277 -60 257 -89 q 349 -8 297 -32 q 188 56 257 6 q 81 186 119 107 q 43 364 43 265 q 91 565 43 478 q 224 701 139 653 q 417 750 310 750 q 611 701 526 750 q 742 564 696 651 q 789 365 789 476 q 722 137 789 233 q 539 4 654 40 m 260 368 q 300 189 260 250 q 417 128 340 128 q 533 188 493 128 q 572 368 572 249 q 533 551 572 489 q 417 613 493 613 q 300 551 340 613 q 260 368 260 489 z "},"ø":{"ha":828,"x_min":28,"x_max":800,"o":"m 793 688 q 800 672 800 681 q 792 656 800 664 l 725 593 q 789 365 789 497 q 742 169 789 256 q 609 35 694 83 q 414 -14 524 -14 q 171 68 269 -14 l 114 14 q 88 1 100 1 q 64 14 76 1 l 42 38 q 28 64 28 51 q 38 82 28 72 l 103 144 q 42 364 42 239 q 90 565 42 478 q 224 701 139 653 q 415 750 308 750 q 657 668 557 750 l 717 724 q 739 736 729 736 q 754 729 747 736 l 793 688 m 258 368 q 263 294 258 328 l 533 550 q 415 613 493 613 q 299 551 339 613 q 258 368 258 489 m 572 368 q 568 443 572 410 l 299 189 q 417 128 339 128 q 533 188 493 128 q 572 368 572 249 z "},"ǿ":{"ha":828,"x_min":28,"x_max":800,"o":"m 793 688 q 800 672 800 681 q 792 656 800 664 l 725 593 q 789 365 789 497 q 742 169 789 256 q 609 35 694 83 q 414 -14 524 -14 q 171 68 269 -14 l 114 14 q 88 1 100 1 q 64 14 76 1 l 42 38 q 28 64 28 51 q 38 82 28 72 l 103 144 q 42 364 42 239 q 90 565 42 478 q 224 701 139 653 q 415 750 308 750 q 657 668 557 750 l 717 724 q 739 736 729 736 q 754 729 747 736 l 793 688 m 258 368 q 263 294 258 328 l 533 550 q 415 613 493 613 q 299 551 339 613 q 258 368 258 489 m 572 368 q 568 443 572 410 l 299 189 q 417 128 339 128 q 533 188 493 128 q 572 368 572 249 m 610 938 q 613 924 613 929 q 589 900 613 908 l 268 814 q 256 813 263 813 q 243 816 247 813 q 235 829 239 819 l 218 878 l 215 889 q 226 906 215 901 l 554 1043 q 561 1044 557 1044 q 578 1031 574 1044 l 610 938 z "}}}
